<svg height="512pt" viewBox="0 0 512.002 512" width="512pt" xmlns="http://www.w3.org/2000/svg"><path d="m481.914062 479.894531h-451.828124v-297.039062c0-9.03125 7.320312-16.355469 16.355468-16.355469h419.117188c9.035156 0 16.355468 7.324219 16.355468 16.355469zm0 0" fill="#707afa"/><path d="m56.558594 453.417969v-252.75c0-4.25 3.445312-7.695313 7.695312-7.695313h383.492188c4.25 0 7.695312 3.445313 7.695312 7.695313v252.75zm0 0" fill="#a1f1fc"/><path d="m494.636719 512h-477.273438c-9.589843 0-17.363281-7.773438-17.363281-17.359375v-11.550781c0-1.765625 1.433594-3.195313 3.195312-3.195313h505.605469c1.765625 0 3.195313 1.429688 3.195313 3.195313v11.550781c.003906 9.585937-7.769532 17.359375-17.359375 17.359375zm0 0" fill="#6770e6"/><path d="m510.894531 480.691406c-2.457031 6.597656-8.800781 11.308594-16.257812 11.308594h-477.273438c-7.460937 0-13.800781-4.710938-16.257812-11.308594-.671875.585938-1.105469 1.4375-1.105469 2.398438v11.550781c0 9.585937 7.773438 17.359375 17.363281 17.359375h477.273438c9.589843 0 17.363281-7.773438 17.363281-17.359375v-11.550781c0-.960938-.433594-1.8125-1.105469-2.398438zm0 0" fill="#5861c7"/><path d="m325.320312 495.945312h-138.640624c-4.792969 0-8.679688-3.882812-8.679688-8.679687v-7.371094h156v7.371094c0 4.796875-3.886719 8.679687-8.679688 8.679687zm0 0" fill="#4e56b0"/><path d="m302 344c-8.289062 0-15.816406 3.179688-21.503906 8.351562l-39.4375-22.769531c.59375-2.433593.941406-4.964843.941406-7.582031 0-1.859375-.191406-3.671875-.496094-5.445312l39.257813-22.664063c5.648437 5.027344 13.078125 8.109375 21.238281 8.109375 17.671875 0 32-14.324219 32-32 0-17.671875-14.328125-32-32-32s-32 14.328125-32 32c0 2.265625.242188 4.476562.691406 6.609375l-38.59375 22.28125c-5.746094-5.492187-13.519531-8.890625-22.097656-8.890625-17.671875 0-32 14.328125-32 32 0 17.675781 14.328125 32 32 32 7.796875 0 14.9375-2.792969 20.488281-7.425781l40.132813 23.167969c-.402344 2.023437-.621094 4.117187-.621094 6.257812 0 17.675781 14.328125 32 32 32s32-14.324219 32-32c0-17.671875-14.328125-32-32-32zm0 0" fill="#fff7f2"/><path d="m488.078125 216h-94.15625c-13.210937 0-23.921875 10.710938-23.921875 23.921875v70.160156c0 13.210938 10.710938 23.921875 23.921875 23.921875h4.078125v25.21875c0 3.976563 4.808594 5.96875 7.625 3.15625l28.375-28.378906h54.078125c13.210937 0 23.921875-10.710938 23.921875-23.917969v-70.160156c0-13.210937-10.710938-23.921875-23.921875-23.921875zm0 0" fill="#5fd4e3"/><path d="m23.921875 272h94.15625c13.210937 0 23.921875 10.710938 23.921875 23.921875v70.160156c0 13.210938-10.710938 23.921875-23.921875 23.921875h-4.078125v25.21875c0 3.976563-4.808594 5.96875-7.625 3.15625l-28.375-28.378906h-54.078125c-13.210937 0-23.921875-10.710938-23.921875-23.917969v-70.164062c0-13.207031 10.710938-23.917969 23.921875-23.917969zm0 0" fill="#ff8354"/><g fill="#a1f1fc"><path d="m479.152344 257.4375h-83.121094c-3.007812 0-5.449219-2.441406-5.449219-5.449219 0-3.011719 2.441407-5.453125 5.449219-5.453125h83.121094c3.011718 0 5.453125 2.441406 5.453125 5.453125 0 3.007813-2.441407 5.449219-5.453125 5.449219zm0 0"/><path d="m479.726562 304.621094h-83.121093c-3.011719 0-5.453125-2.4375-5.453125-5.449219 0-3.007813 2.441406-5.449219 5.453125-5.449219h83.121093c3.007813 0 5.449219 2.441406 5.449219 5.449219 0 3.011719-2.441406 5.449219-5.449219 5.449219zm0 0"/><path d="m438.273438 281.03125h-42.242188c-3.007812 0-5.449219-2.441406-5.449219-5.449219 0-3.011719 2.441407-5.449219 5.449219-5.449219h42.242188c3.011718 0 5.449218 2.4375 5.449218 5.449219.003906 3.007813-2.4375 5.449219-5.449218 5.449219zm0 0"/><path d="m485.96875 281.03125h-28.617188c-3.007812 0-5.449218-2.441406-5.449218-5.449219 0-3.011719 2.441406-5.449219 5.449218-5.449219h28.617188c3.007812 0 5.449219 2.4375 5.449219 5.449219 0 3.007813-2.441407 5.449219-5.449219 5.449219zm0 0"/></g><path d="m90.996094 327.90625-40.042969-23.121094c-2.382813-1.375-5.363281.34375-5.363281 3.097656v46.238282c0 2.753906 2.976562 4.472656 5.363281 3.097656l40.042969-23.121094c2.386718-1.375 2.386718-4.816406 0-6.191406zm0 0" fill="#ffefe4"/><path d="m118.078125 272h-94.15625c-13.214844 0-23.921875 10.710938-23.921875 23.921875v10c0-13.210937 10.707031-23.921875 23.921875-23.921875h94.15625c13.210937 0 23.921875 10.710938 23.921875 23.921875v-10c0-13.210937-10.707031-23.921875-23.921875-23.921875zm0 0" fill="#ffac8c"/><path d="m488.078125 216h-94.15625c-13.210937 0-23.921875 10.710938-23.921875 23.921875v10c0-13.210937 10.707031-23.921875 23.921875-23.921875h94.160156c13.210938 0 23.921875 10.710938 23.921875 23.921875v-10c-.003906-13.210937-10.710937-23.921875-23.925781-23.921875zm0 0" fill="#69ebfc"/><path d="m230.363281 142.667969 120.375 44.582031v-187.25l-120.375 44.585938zm0 0" fill="#6770e6"/><path d="m206.957031 225.148438c12.925781 0 23.40625-10.480469 23.40625-23.40625v-59.074219h-46.8125v59.074219c0 12.925781 10.480469 23.40625 23.40625 23.40625zm0 0" fill="#b665c2"/><path d="m174.636719 142.667969h55.730469v-98.082031h-55.730469c-27.085938 0-49.042969 21.953124-49.042969 49.042968 0 27.082032 21.957031 49.039063 49.042969 49.039063zm0 0" fill="#d476e2"/><path d="m174.636719 44.585938c-22.007813 0-40.628907 14.492187-46.835938 34.457031-.238281.769531-.460937 1.542969-.660156 2.328125-.40625 1.566406-.730469 3.164062-.980469 4.789062-.246094 1.621094-.414062 3.269532-.5 4.941406-.042968.835938-.0625 1.679688-.0625 2.527344 0 .90625.027344 1.808594.078125 2.707032.007813.15625.023438.308593.035157.464843.050781.765625.109374 1.527344.195312 2.28125.007812.097657.027344.195313.035156.289063.097656.828125.210938 1.652344.351563 2.464844.003906.023437.011719.054687.015625.078124.148437.875.320312 1.742188.515625 2.601563v.003906c4.957031-21.839843 24.472656-38.148437 47.8125-38.148437h55.730469v-21.785156zm0 0" fill="#ea82fa"/><path d="m230.363281 44.585938v21.785156l120.375-44.582032v-21.789062zm0 0" fill="#8f95e6"/><path d="m359.277344 120.753906h-8.539063v-54.257812h8.539063c14.984375 0 27.128906 12.148437 27.128906 27.132812 0 14.980469-12.144531 27.125-27.128906 27.125zm0 0" fill="#d476e2"/></svg>