<svg width="53" height="53" viewBox="0 0 53 53" fill="none" xmlns="http://www.w3.org/2000/svg">
<circle cx="26.4999" cy="26.5" r="26.5" fill="white"/>
<path d="M20.3922 38.0001L13.525 14.0001H19.0679L23.0406 30.6759H23.2398L27.6226 14.0001H32.3687L36.7398 30.7111H36.9507L40.9234 14.0001H46.4664L39.5992 38.0001H34.6539L30.0836 22.3087H29.8961L25.3375 38.0001H20.3922Z" fill="#5B6C64"/>
<path d="M14.0737 37.85L6.07378 37.8712L6.05974 32.5743L7.45427 32.5706L7.46382 36.1761L9.37007 36.171L9.36144 32.9171L10.756 32.9134L10.7646 36.1673L14.0693 36.1586L14.0737 37.85ZM14.0589 32.2404L6.05891 32.2616L6.04463 26.871L7.43915 26.8673L7.44896 30.5665L9.3552 30.5615L9.34613 27.1396L10.7407 27.1359L10.7497 30.5578L12.6599 30.5527L12.65 26.8379L14.0446 26.8342L14.0589 32.2404ZM14.0432 26.3301L6.04325 26.3513L6.02896 20.9607L7.42349 20.957L7.43329 24.6562L9.33954 24.6511L9.33047 21.2293L10.725 21.2256L10.7341 24.6474L12.6442 24.6424L12.6344 20.9275L14.0289 20.9239L14.0432 26.3301ZM14.02 17.5838L14.0276 20.4198L6.02759 20.441L6.02001 17.5816C6.01788 16.7769 6.1762 16.0838 6.49497 15.5022C6.81114 14.9206 7.26698 14.4728 7.86251 14.1587C8.45802 13.842 9.17115 13.6826 10.0019 13.6804C10.8352 13.6782 11.5518 13.8338 12.1516 14.1474C12.7513 14.4583 13.2122 14.9063 13.534 15.4914C13.8559 16.0738 14.0179 16.7713 14.02 17.5838ZM12.5739 18.7322L12.571 17.658C12.5697 17.158 12.48 16.7376 12.302 16.397C12.1215 16.0537 11.8434 15.7966 11.468 15.6257C11.0899 15.4523 10.6027 15.3663 10.0063 15.3679C9.4152 15.3695 8.93236 15.458 8.55782 15.6335C8.18328 15.8063 7.90792 16.0636 7.73174 16.4052C7.55556 16.7468 7.46814 17.1676 7.46946 17.6676L7.47232 18.7457L12.5739 18.7322Z" fill="#5B6C64"/>
</svg>
