<?xml version="1.0" encoding="UTF-8"?>
<svg version="1.1" xmlns="http://www.w3.org/2000/svg" width="512" height="512">
<path d="M0 0 C15.84 0 31.68 0 48 0 C48.33 8.91 48.66 17.82 49 27 C52.96 28.65 56.92 30.3 61 32 C64.37293565 30.31353217 65.93346994 29.30850283 68.453125 26.7421875 C69.38125 25.80439453 69.38125 25.80439453 70.328125 24.84765625 C70.96234375 24.19667969 71.5965625 23.54570313 72.25 22.875 C72.8996875 22.21628906 73.549375 21.55757812 74.21875 20.87890625 C75.81711727 19.25703357 77.41061897 17.6306719 79 16 C81.85779017 17.29719924 83.91008536 18.6636826 86.11621094 20.88916016 C86.98666046 21.75983627 86.98666046 21.75983627 87.87469482 22.64810181 C88.79523651 23.58412735 88.79523651 23.58412735 89.734375 24.5390625 C90.37240051 25.17991791 91.01042603 25.82077332 91.66778564 26.48104858 C93.69994069 28.52437821 95.72502218 30.57455982 97.75 32.625 C99.1284453 34.0134786 100.50734636 35.4015049 101.88671875 36.7890625 C105.26311894 40.18748697 108.63319288 43.59207254 112 47 C110.64940938 50.04069207 109.16348472 52.04223754 106.7421875 54.3125 C106.11699219 54.91320312 105.49179688 55.51390625 104.84765625 56.1328125 C103.52842564 57.38150998 102.2054745 58.62628804 100.87890625 59.8671875 C100.25628906 60.46789062 99.63367188 61.06859375 98.9921875 61.6875 C98.13149658 62.49767578 98.13149658 62.49767578 97.25341797 63.32421875 C95.60069722 65.18507594 95.60069722 65.18507594 96 69 C97.71896484 68.58427734 97.71896484 68.58427734 99.47265625 68.16015625 C101.0025644 67.79410461 102.53251457 67.42822853 104.0625 67.0625 C105.19075195 66.78889648 105.19075195 66.78889648 106.34179688 66.50976562 C107.08623047 66.33251953 107.83066406 66.15527344 108.59765625 65.97265625 C109.61098022 65.72914429 109.61098022 65.72914429 110.64477539 65.48071289 C130.36356754 61.45601073 153.70052406 62.46311593 173 68 C173.99821777 68.27287842 173.99821777 68.27287842 175.01660156 68.55126953 C183.45127797 70.90264046 191.11923024 74.29950625 198.72363281 78.58496094 C200.83392771 79.77206013 200.83392771 79.77206013 204 81 C207.73159756 79.77842096 210.04766072 77.16409538 212.74584961 74.40185547 C213.20347687 73.9364888 213.66110413 73.47112213 214.13259888 72.99165344 C215.12393881 71.98269642 216.11305174 70.97154746 217.10017204 69.95846176 C218.67342006 68.34558023 220.25425439 66.74050789 221.83753967 65.13748169 C226.33797101 60.57925655 230.82897731 56.0119333 235.30395508 51.42871094 C238.04668587 48.6207484 240.80213179 45.82577523 243.56543159 43.03805923 C244.60618575 41.98323111 245.64228389 40.92378431 246.67317009 39.85931015 C256.59036206 29.62397553 266.91015527 22.12898997 280.90429688 18.38525391 C284.94846853 17.2869207 288.98430022 16.16270748 293.01757812 15.02490234 C299.82969144 13.10874546 306.65155552 11.22925586 313.4765625 9.35961914 C317.06893055 8.37540872 320.6592254 7.38384412 324.24908066 6.39051342 C327.03449329 5.62093435 329.82116641 4.85600335 332.60822296 4.0924015 C333.93392811 3.72841825 335.25918724 3.36280632 336.58397675 2.99550438 C338.42411397 2.48588532 340.26621676 1.98337967 342.10839844 1.48120117 C343.15268005 1.19427902 344.19696167 0.90735687 345.27288818 0.61174011 C348 0 348 0 352 0 C351.34108602 8.02430859 349.10594183 15.64580721 346.9921875 23.3828125 C346.58434674 24.88482198 346.17656172 26.38684659 345.76882935 27.8888855 C344.91386661 31.0318987 344.05398916 34.17352332 343.19140625 37.31445312 C342.09856758 41.29766758 341.024466 45.28567038 339.95498466 49.27520943 C339.1190322 52.38050411 338.26958729 55.48199767 337.41666031 58.5826683 C337.01562266 60.04903994 336.61931425 61.51671505 336.22826767 62.98578262 C331.99422698 78.84959592 325.85967763 91.51800328 314 103 C313.52253326 103.46245747 313.04506653 103.92491493 312.5531311 104.40138626 C309.60879755 107.22906385 306.61555897 110.00082636 303.60954285 112.76262093 C300.26134909 115.85994293 296.97041457 119.01839411 293.67107391 122.16756535 C290.7935335 124.90791036 287.89760291 127.62181047 284.95361328 130.29077148 C272.14708504 140.86417316 272.14708504 140.86417316 264.45751953 154.74676514 C264.70779345 160.02079716 266.62394077 164.40842512 269.03753662 169.04122925 C273.41995135 177.96016163 272.40168382 189.7570378 272.375 199.5 C272.37418427 200.62267776 272.37418427 200.62267776 272.37335205 201.76803589 C272.30469877 222.35989953 267.6970725 239.97723511 260 259 C261.134375 259.103125 262.26875 259.20625 263.4375 259.3125 C268.21505548 259.91704129 272.50327612 261.3159438 277 263 C277.8245166 263.30832764 278.6490332 263.61665527 279.49853516 263.93432617 C310.99614986 276.12958753 336.4804584 301.09574315 350.12109375 331.90527344 C351.65385772 335.5583609 353.0247375 339.25400318 354.3125 343 C354.54300049 343.66241699 354.77350098 344.32483398 355.01098633 345.00732422 C359.90294791 360.13054588 360.41750941 374.82478449 360.29296875 390.5625 C360.28854485 392.45247124 360.28549238 394.3424462 360.28381348 396.23242188 C360.26823598 403.15500483 360.22635306 410.07750855 360.1875 417 C360.125625 432.51 360.06375 448.02 360 464 C328.32 464 296.64 464 264 464 C263.625 424.6875 263.625 424.6875 263.52197266 412.3347168 C263.48200492 408.63857383 263.48200492 408.63857383 263.43954468 404.94245911 C263.4220115 403.31297601 263.40814098 401.68345072 263.39730835 400.0539093 C263.48733935 380.33528137 263.48733935 380.33528137 255 363 C247.34622784 355.50436363 238.0970658 352.97452835 227.5625 352.9375 C225.7990625 352.9684375 225.7990625 352.9684375 224 353 C224.94875 353.7425 225.8975 354.485 226.875 355.25 C229.43255112 357.25156174 230.84626242 358.94150698 232 362 C232.67002222 367.59390643 232.75476125 372.46352174 230.25 377.5625 C228.25907029 379.71934052 226.5141898 381.49148612 224 383 C223.34 383 222.68 383 222 383 C222 383.66 222 384.32 222 385 C223.11375 385.3403125 223.11375 385.3403125 224.25 385.6875 C228.09146563 387.52092678 230.11488412 390.22976824 232 394 C232.50502343 399.53042052 232.73807257 404.41030524 230.375 409.5 C226.84698425 413.21370079 224.08761438 415.93364551 218.8046875 416.1015625 C217.41636719 416.05128906 217.41636719 416.05128906 216 416 C216.02094727 416.67466309 216.04189453 417.34932617 216.06347656 418.04443359 C216.14754586 421.15446567 216.19894444 424.26425759 216.25 427.375 C216.28351563 428.43589844 216.31703125 429.49679687 216.3515625 430.58984375 C216.46960763 440.21052214 214.39126552 448.30771065 207.703125 455.46875 C199.7056354 462.65915349 191.68351766 464.29993856 181.19628906 464.29052734 C180.11907593 464.29724457 179.04186279 464.30396179 177.93200684 464.31088257 C174.37649908 464.32985506 170.82118021 464.33378658 167.265625 464.3359375 C164.78708825 464.34236649 162.30855225 464.34909493 159.83001709 464.35610962 C154.63503257 464.36808092 149.44011453 464.37179064 144.24511719 464.37060547 C137.60303867 464.37040242 130.9613995 464.39769111 124.31940079 464.43214989 C119.19942281 464.45443834 114.07954758 464.45844238 108.95952606 464.45738602 C106.51161982 464.45973954 104.06371064 464.46854897 101.61585236 464.48405075 C98.18403027 464.5037469 94.7531274 464.49785733 91.32128906 464.48583984 C90.31938538 464.49707886 89.31748169 464.50831787 88.28521729 464.51989746 C79.20956811 464.43954015 71.25774711 461.98541947 64.53125 455.703125 C56.84633854 447.15562144 55.70399918 438.79266923 55.875 427.625 C55.88402344 426.50738281 55.89304688 425.38976562 55.90234375 424.23828125 C55.92581654 421.49196538 55.95865272 418.74609528 56 416 C54.61167969 416.05027344 54.61167969 416.05027344 53.1953125 416.1015625 C47.91238562 415.93364551 45.15301575 413.21370079 41.625 409.5 C39.2301429 404.34184625 39.23277299 399.59308489 40 394 C41.97098569 389.98763627 44.15417088 387.30749747 48 385 C48.66 385 49.32 385 50 385 C50 384.34 50 383.68 50 383 C48.88625 382.6596875 48.88625 382.6596875 47.75 382.3125 C43.90853437 380.47907322 41.88511588 377.77023176 40 374 C39.48771985 368.39011251 39.23743967 363.55235496 41.75 358.4375 C43.72398304 356.29901837 45.55641088 354.57087872 48 353 C37.15221628 352.59064967 27.70232863 354.09920607 19 361 C10.40903676 369.77220719 8.88942213 380.24611164 8.79467773 392.13842773 C8.78464501 392.93224633 8.77461229 393.72606493 8.76427555 394.54393864 C8.73312017 397.09046156 8.70821507 399.63700018 8.68359375 402.18359375 C8.66516908 403.76501954 8.64633129 405.34644056 8.6270752 406.92785645 C8.55888561 412.76434805 8.49866799 418.60093059 8.4375 424.4375 C8.293125 437.493125 8.14875 450.54875 8 464 C-23.68 464 -55.36 464 -88 464 C-88.0825 448.5725 -88.165 433.145 -88.25 417.25 C-88.28641602 412.42020508 -88.32283203 407.59041016 -88.36035156 402.61425781 C-88.37841797 396.61083984 -88.37841797 396.61083984 -88.3817749 393.77996826 C-88.38782502 391.84747609 -88.40169547 389.91499675 -88.42230225 387.98260498 C-88.59423635 370.97496627 -87.09340822 354.23118933 -80.8125 338.25 C-80.51770752 337.47962402 -80.22291504 336.70924805 -79.91918945 335.91552734 C-67.55229477 304.73724377 -42.74377842 279.45533005 -12.14746094 265.89208984 C4.44334975 259 4.44334975 259 12 259 C11.54109375 257.8140625 11.0821875 256.628125 10.609375 255.40625 C4.75837983 240.05655477 0.05200589 225.0037464 -0.31640625 208.44140625 C-0.33718735 207.65225327 -0.35796844 206.86310028 -0.37937927 206.05003357 C-0.44423305 203.55426891 -0.50345805 201.05840822 -0.5625 198.5625 C-0.60574642 196.86001652 -0.64936256 195.15754238 -0.69335938 193.45507812 C-0.79984763 189.30348127 -0.90129147 185.15178882 -1 181 C-2.90790032 180.10604671 -4.82673806 179.23540666 -6.75 178.375 C-7.81734375 177.88773438 -8.8846875 177.40046875 -9.984375 176.8984375 C-12.85986493 175.74226798 -12.85986493 175.74226798 -15.17480469 176.64794922 C-17.10064023 178.07455131 -18.77346656 179.54704927 -20.453125 181.2578125 C-21.071875 181.88300781 -21.690625 182.50820312 -22.328125 183.15234375 C-22.96234375 183.80332031 -23.5965625 184.45429688 -24.25 185.125 C-24.8996875 185.78371094 -25.549375 186.44242188 -26.21875 187.12109375 C-27.81711727 188.74296643 -29.41061897 190.3693281 -31 192 C-33.85779017 190.70280076 -35.91008536 189.3363174 -38.11621094 187.11083984 C-38.69651062 186.5303891 -39.2768103 185.94993835 -39.87469482 185.35189819 C-40.48838928 184.72788116 -41.10208374 184.10386414 -41.734375 183.4609375 C-42.37240051 182.82008209 -43.01042603 182.17922668 -43.66778564 181.51895142 C-45.69994069 179.47562179 -47.72502218 177.42544018 -49.75 175.375 C-51.1284453 173.9865214 -52.50734636 172.5984951 -53.88671875 171.2109375 C-57.26311894 167.81251303 -60.63319288 164.40792746 -64 161 C-62.6415798 157.95667235 -61.11536976 155.87690849 -58.7421875 153.546875 C-58.11699219 152.928125 -57.49179687 152.309375 -56.84765625 151.671875 C-56.19667969 151.03765625 -55.54570313 150.4034375 -54.875 149.75 C-54.21628906 149.1003125 -53.55757812 148.450625 -52.87890625 147.78125 C-51.25703357 146.18288273 -49.6306719 144.58938103 -48 143 C-49.53769464 138.26863188 -51.24879762 133.66987302 -53 129 C-61.91 128.67 -70.82 128.34 -80 128 C-80 112.16 -80 96.32 -80 80 C-71.09 79.67 -62.18 79.34 -53 79 C-50.525 73.06 -50.525 73.06 -48 67 C-49.68646783 63.62706435 -50.69149717 62.06653006 -53.2578125 59.546875 C-53.88300781 58.928125 -54.50820312 58.309375 -55.15234375 57.671875 C-55.80332031 57.03765625 -56.45429687 56.4034375 -57.125 55.75 C-57.78371094 55.1003125 -58.44242188 54.450625 -59.12109375 53.78125 C-60.74296643 52.18288273 -62.3693281 50.58938103 -64 49 C-62.70280076 46.14220983 -61.3363174 44.08991464 -59.11083984 41.88378906 C-58.5303891 41.30348938 -57.94993835 40.7231897 -57.35189819 40.12530518 C-56.41587265 39.20476349 -56.41587265 39.20476349 -55.4609375 38.265625 C-54.82008209 37.62759949 -54.17922668 36.98957397 -53.51895142 36.33221436 C-51.47562179 34.30005931 -49.42544018 32.27497782 -47.375 30.25 C-45.9865214 28.8715547 -44.5984951 27.49265364 -43.2109375 26.11328125 C-39.81251303 22.73688106 -36.40792746 19.36680712 -33 16 C-29.95667235 17.3584202 -27.87690849 18.88463024 -25.546875 21.2578125 C-24.61875 22.19560547 -24.61875 22.19560547 -23.671875 23.15234375 C-23.03765625 23.80332031 -22.4034375 24.45429687 -21.75 25.125 C-20.77546875 26.11306641 -20.77546875 26.11306641 -19.78125 27.12109375 C-18.18288273 28.74296643 -16.58938103 30.3693281 -15 32 C-10.26863188 30.46230536 -5.66987302 28.75120238 -1 27 C-0.67 18.09 -0.34 9.18 0 0 Z " fill="#FEE66C" transform="translate(120,24)"/>
<path d="M0 0 C1.14849426 -0.00953201 2.29698853 -0.01906403 3.48028564 -0.02888489 C4.70850037 -0.02797348 5.93671509 -0.02706207 7.20214844 -0.02612305 C8.47950867 -0.03040817 9.7568689 -0.0346933 11.07293701 -0.03910828 C13.77278807 -0.04654913 16.47250835 -0.04629594 19.17236328 -0.04101562 C22.60616908 -0.0352401 26.0394321 -0.05211517 29.47314835 -0.0753603 C32.77866927 -0.09377814 36.08407671 -0.08990923 39.38964844 -0.08862305 C40.60976624 -0.09783279 41.82988403 -0.10704254 43.0869751 -0.11653137 C54.02499189 -0.05785387 63.68883655 1.84602658 72.06152344 9.2746582 C76.03328351 13.92452365 79.18484878 18.12697715 80.06152344 24.2746582 C80.98964844 24.3571582 81.91777344 24.4396582 82.87402344 24.5246582 C86.06152344 25.2746582 86.06152344 25.2746582 87.87402344 27.0871582 C89.06152344 29.2746582 89.06152344 29.2746582 89.28027344 31.2355957 C89.91987157 33.54396459 89.91987157 33.54396459 92.57324219 34.73168945 C93.62125 35.17899414 94.66925781 35.62629883 95.74902344 36.0871582 C104.3774542 40.17107739 108.38817597 45.60932572 112.06152344 54.2746582 C113.08471376 57.34422918 113.19524283 59.49906144 113.18652344 62.7121582 C113.18910156 63.65961914 113.19167969 64.60708008 113.19433594 65.58325195 C113.07625819 67.97606279 112.74264979 69.98801973 112.06152344 72.2746582 C112.650625 72.53375977 113.23972656 72.79286133 113.84667969 73.05981445 C121.35000957 77.17539751 125.26528994 85.54457468 128.06152344 93.2746582 C130.79643787 104.30197344 129.15116178 114.22827024 124.06152344 124.2746582 C121.30205933 128.70673867 118.03761562 132.86657919 114.06152344 136.2746582 C113.40152344 136.2746582 112.74152344 136.2746582 112.06152344 136.2746582 C112.39152344 137.2646582 112.72152344 138.2546582 113.06152344 139.2746582 C114.07664898 148.82074262 111.38985829 157.45449813 105.87011719 165.23168945 C102.18848619 169.39042166 97.60040003 172.38291926 92.37011719 174.2199707 C89.65737523 175.13830645 89.65737523 175.13830645 88.68652344 178.7121582 C88.15027344 179.8877832 87.61402344 181.0634082 87.06152344 182.2746582 C85.34157477 182.89124358 83.62019686 183.50483032 81.88574219 184.0793457 C79.16096451 185.86474607 78.40446583 188.15644746 77.06152344 191.0871582 C73.06648116 199.79026867 67.90399006 203.36841961 59.26202393 207.20944214 C53.4934581 209.12938216 47.76872499 208.96643114 41.74121094 208.90356445 C40.38843597 208.90439575 39.03566113 208.90686494 37.68289185 208.91087341 C34.8672189 208.91371038 32.0523507 208.89923647 29.23681641 208.87158203 C25.65147756 208.83743498 22.06756879 208.84355852 18.48216057 208.86224461 C15.6954482 208.87287548 12.90906148 208.86382335 10.1223793 208.84885979 C8.16557369 208.84125626 6.20872819 208.84848349 4.25192261 208.85609436 C-3.04510595 208.76020359 -8.58137976 207.9425608 -14.93847656 204.2746582 C-15.73640625 203.82864258 -16.53433594 203.38262695 -17.35644531 202.9230957 C-23.55509716 198.46225575 -27.5248278 192.51560449 -29.93847656 185.2746582 C-31.07285156 184.8002832 -32.20722656 184.3259082 -33.37597656 183.8371582 C-36.93847656 182.2746582 -36.93847656 182.2746582 -38.37597656 180.2746582 C-38.93847656 178.2746582 -38.93847656 178.2746582 -38.93847656 175.2746582 C-39.74285156 175.0684082 -40.54722656 174.8621582 -41.37597656 174.6496582 C-49.95951752 171.33671257 -55.76856114 166.52093325 -59.93847656 158.2746582 C-62.3531458 152.70445529 -63.02563803 148.13486575 -62.62597656 142.0871582 C-62.43401089 137.86780025 -62.43401089 137.86780025 -64.49707031 134.38012695 C-65.90141451 133.28903912 -67.32571015 132.22325518 -68.76660156 131.1809082 C-74.93223566 125.76934446 -78.43022957 115.62713429 -79.18847656 107.6418457 C-79.65248734 96.53458764 -76.93824357 86.78481739 -69.81738281 78.17700195 C-67.93847656 76.2746582 -67.93847656 76.2746582 -65.21972656 74.4777832 C-62.58852193 72.40983547 -62.58852193 72.40983547 -62.59082031 68.91918945 C-62.68492187 67.65461914 -62.77902344 66.39004883 -62.87597656 65.0871582 C-63.15608199 58.51575825 -62.47552638 53.87223237 -58.93847656 48.2746582 C-58.514375 47.57856445 -58.09027344 46.8824707 -57.65332031 46.1652832 C-53.68697656 40.2875816 -48.19436227 35.2862541 -41.16113281 33.61450195 C-40.42765625 33.50235352 -39.69417969 33.39020508 -38.93847656 33.2746582 C-38.85597656 32.3465332 -38.77347656 31.4184082 -38.68847656 30.4621582 C-37.93847656 27.2746582 -37.93847656 27.2746582 -36.12597656 25.3996582 C-33.93847656 24.2746582 -33.93847656 24.2746582 -29.93847656 24.2746582 C-29.73222656 23.4702832 -29.52597656 22.6659082 -29.31347656 21.8371582 C-25.82629453 12.80218658 -20.42962459 6.94737838 -11.93847656 2.2746582 C-7.82565274 0.69534556 -4.39743418 0.02016707 0 0 Z " fill="#F6CCA8" transform="translate(230.9384765625,119.725341796875)"/>
<path d="M0 0 C1.06347656 0.00322266 2.12695312 0.00644531 3.22265625 0.00976562 C4.86427734 0.02233398 4.86427734 0.02233398 6.5390625 0.03515625 C7.65667969 0.03966797 8.77429688 0.04417969 9.92578125 0.04882812 C12.67193054 0.06056381 15.41796836 0.07698262 18.1640625 0.09765625 C18.17864502 0.67209473 18.19322754 1.2465332 18.20825195 1.83837891 C18.28319975 4.46711321 18.37970244 7.09464177 18.4765625 9.72265625 C18.49912109 10.62628906 18.52167969 11.52992188 18.54492188 12.4609375 C18.75544634 17.70491049 19.23295425 21.57355439 22.1640625 26.09765625 C26.45814469 29.97280359 28.84845135 31.22110363 34.56524658 31.23809814 C36.28547279 31.24666336 36.28547279 31.24666336 38.04045105 31.25540161 C39.30488541 31.25651947 40.56931976 31.25763733 41.87207031 31.25878906 C43.21236813 31.26341662 44.55266463 31.26844119 45.89295959 31.27383423 C49.53982143 31.28696848 53.18666484 31.29340547 56.83354664 31.29784489 C59.11207388 31.30077467 61.39059608 31.30487936 63.66912079 31.30934906 C70.79823924 31.32302826 77.92734617 31.33269218 85.05647683 31.33655095 C93.2853429 31.34102936 101.51404267 31.35856527 109.74285817 31.38755155 C116.10302802 31.40917725 122.46315112 31.41925575 128.82335734 31.42059207 C132.6219603 31.4216397 136.42040702 31.42753813 140.21897125 31.44541168 C143.79439893 31.46190726 147.36955321 31.46404081 150.94500542 31.45527267 C152.87854374 31.45413677 154.81207304 31.46784372 156.74555969 31.48202515 C164.89652678 31.51452386 164.89652678 31.51452386 172.1640625 28.09765625 C175.93284125 24.02330084 177.23614253 20.90957565 177.48046875 15.4296875 C177.52236328 14.53701172 177.56425781 13.64433594 177.60742188 12.72460938 C177.64673828 11.79583984 177.68605469 10.86707031 177.7265625 9.91015625 C177.79133789 8.49959961 177.79133789 8.49959961 177.85742188 7.06054688 C177.96344915 4.73972771 178.06551279 2.418803 178.1640625 0.09765625 C202.24416709 -0.54016233 222.14938695 1.95899714 240.44921875 19.2578125 C252.40504209 31.95079643 258.35511831 47.57742387 258.27758789 64.85693359 C258.27773392 65.71612396 258.27787994 66.57531433 258.2780304 67.46054077 C258.27733679 70.28491794 258.2695703 73.10922818 258.26171875 75.93359375 C258.25985261 77.89799971 258.25842963 79.86240615 258.25743103 81.82681274 C258.25362129 86.98558853 258.24380421 92.14433596 258.23272705 97.30310059 C258.22247971 102.57185482 258.2179263 107.84061366 258.21289062 113.109375 C258.20218053 123.43881652 258.18459626 133.76822958 258.1640625 144.09765625 C247.6040625 144.09765625 237.0440625 144.09765625 226.1640625 144.09765625 C226.14424316 141.73182373 226.12442383 139.36599121 226.10400391 136.9284668 C226.03684354 129.07737752 225.95920899 121.22641634 225.87653542 113.37547588 C225.82676919 108.61940568 225.78043874 103.86335559 225.7421875 99.10717773 C225.70508451 94.50996408 225.65865963 89.9129273 225.60599899 85.31586647 C225.58758702 83.56939638 225.57243139 81.82288857 225.56071854 80.0763607 C225.64325 60.3967798 225.64325 60.3967798 217.1640625 43.09765625 C209.51029034 35.60201988 200.2611283 33.0721846 189.7265625 33.03515625 C188.5509375 33.05578125 187.3753125 33.07640625 186.1640625 33.09765625 C187.1128125 33.84015625 188.0615625 34.58265625 189.0390625 35.34765625 C191.59661362 37.34921799 193.01032492 39.03916323 194.1640625 42.09765625 C194.83408472 47.69156268 194.91882375 52.56117799 192.4140625 57.66015625 C190.42313279 59.81699677 188.6782523 61.58914237 186.1640625 63.09765625 C185.5040625 63.09765625 184.8440625 63.09765625 184.1640625 63.09765625 C184.1640625 63.75765625 184.1640625 64.41765625 184.1640625 65.09765625 C184.9065625 65.32453125 185.6490625 65.55140625 186.4140625 65.78515625 C190.25552813 67.61858303 192.27894662 70.32742449 194.1640625 74.09765625 C194.66908593 79.62807677 194.90213507 84.50796149 192.5390625 89.59765625 C189.01104675 93.31135704 186.25167688 96.03130176 180.96875 96.19921875 C180.04320312 96.16570312 179.11765625 96.1321875 178.1640625 96.09765625 C178.18500977 96.77231934 178.20595703 97.44698242 178.22753906 98.14208984 C178.31160836 101.25212192 178.36300694 104.36191384 178.4140625 107.47265625 C178.44757813 108.53355469 178.48109375 109.59445312 178.515625 110.6875 C178.63367013 120.30817839 176.55532802 128.4053669 169.8671875 135.56640625 C161.8696979 142.75680974 153.84758016 144.39759481 143.36035156 144.38818359 C142.28313843 144.39490082 141.20592529 144.40161804 140.09606934 144.40853882 C136.54056158 144.42751131 132.98524271 144.43144283 129.4296875 144.43359375 C126.95115075 144.44002274 124.47261475 144.44675118 121.99407959 144.45376587 C116.79909507 144.46573717 111.60417703 144.46944689 106.40917969 144.46826172 C99.76710117 144.46805867 93.125462 144.49534736 86.48346329 144.52980614 C81.36348531 144.55209459 76.24361008 144.55609863 71.12358856 144.55504227 C68.67568232 144.55739579 66.22777314 144.56620522 63.77991486 144.581707 C60.34809277 144.60140315 56.9171899 144.59551358 53.48535156 144.58349609 C52.48344788 144.59473511 51.48154419 144.60597412 50.44927979 144.61755371 C41.37363061 144.5371964 33.42180961 142.08307572 26.6953125 135.80078125 C19.01040104 127.25327769 17.86806168 118.89032548 18.0390625 107.72265625 C18.04808594 106.60503906 18.05710937 105.48742187 18.06640625 104.3359375 C18.08987904 101.58962163 18.12271522 98.84375153 18.1640625 96.09765625 C17.23851562 96.13117188 16.31296875 96.1646875 15.359375 96.19921875 C10.07644812 96.03130176 7.31707825 93.31135704 3.7890625 89.59765625 C1.3942054 84.4395025 1.39683549 79.69074114 2.1640625 74.09765625 C4.13504819 70.08529252 6.31823338 67.40515372 10.1640625 65.09765625 C10.8240625 65.09765625 11.4840625 65.09765625 12.1640625 65.09765625 C12.1640625 64.43765625 12.1640625 63.77765625 12.1640625 63.09765625 C11.4215625 62.87078125 10.6790625 62.64390625 9.9140625 62.41015625 C6.07259687 60.57672947 4.04917838 57.86788801 2.1640625 54.09765625 C1.65178235 48.48776876 1.40150217 43.65001121 3.9140625 38.53515625 C5.88804554 36.39667462 7.72047338 34.66853497 10.1640625 33.09765625 C-0.68372122 32.68830592 -10.13360887 34.19686232 -18.8359375 41.09765625 C-27.42689614 49.86985875 -28.94657607 60.34371217 -29.04125977 72.23608398 C-29.05115936 73.01739182 -29.06105896 73.79869965 -29.07125854 74.60368347 C-29.10261693 77.16284245 -29.12752845 79.72201994 -29.15234375 82.28125 C-29.17293549 84.06486977 -29.19393252 85.8484849 -29.21531677 87.63209534 C-29.27030824 92.30911486 -29.31981789 96.98617674 -29.36816406 101.66326904 C-29.41854727 106.4428684 -29.47414524 111.22240683 -29.52929688 116.00195312 C-29.63659775 125.36713721 -29.73762179 134.73237353 -29.8359375 144.09765625 C-40.3959375 144.09765625 -50.9559375 144.09765625 -61.8359375 144.09765625 C-61.90397098 132.8484075 -61.95890156 121.59929753 -61.99137402 110.3498888 C-62.0069666 105.12518931 -62.0280866 99.90063904 -62.06225586 94.67602539 C-62.09507936 89.62502787 -62.11283858 84.57417303 -62.12056923 79.52307701 C-62.12607175 77.60515793 -62.13681569 75.68724581 -62.15312767 73.7693882 C-62.33512034 51.46555212 -58.04122967 33.74965572 -41.97265625 17.17578125 C-30.66193439 6.59100634 -15.5553355 -0.08363084 0 0 Z " fill="#E8EDF2" transform="translate(157.8359375,343.90234375)"/>
<path d="M0 0 C15.84 0 31.68 0 48 0 C48.33 8.91 48.66 17.82 49 27 C52.96 28.65 56.92 30.3 61 32 C64.37293565 30.31353217 65.93346994 29.30850283 68.453125 26.7421875 C69.38125 25.80439453 69.38125 25.80439453 70.328125 24.84765625 C70.96234375 24.19667969 71.5965625 23.54570313 72.25 22.875 C72.8996875 22.21628906 73.549375 21.55757812 74.21875 20.87890625 C75.81711727 19.25703357 77.41061897 17.6306719 79 16 C81.85779017 17.29719924 83.91008536 18.6636826 86.11621094 20.88916016 C86.98666046 21.75983627 86.98666046 21.75983627 87.87469482 22.64810181 C88.79523651 23.58412735 88.79523651 23.58412735 89.734375 24.5390625 C90.37240051 25.17991791 91.01042603 25.82077332 91.66778564 26.48104858 C93.69994069 28.52437821 95.72502218 30.57455982 97.75 32.625 C99.1284453 34.0134786 100.50734636 35.4015049 101.88671875 36.7890625 C105.26311894 40.18748697 108.63319288 43.59207254 112 47 C110.64735936 50.05747515 109.16536549 52.02440914 106.70703125 54.27734375 C105.7624707 55.17163086 105.7624707 55.17163086 104.79882812 56.08398438 C103.47026993 57.32371076 102.13423695 58.555473 100.79101562 59.77929688 C99.03453876 61.45618056 97.42096484 63.0298812 96 65 C95.88257506 67.87023868 95.88257506 67.87023868 97 70 C96.46745605 70.20044922 95.93491211 70.40089844 95.38623047 70.60742188 C75.04524975 78.3288529 57.93345887 87.92507933 42 103 C41.17628906 103.75925781 40.35257812 104.51851563 39.50390625 105.30078125 C17.5835746 126.19520035 5.19078048 155.38882737 1 185 C0.68675781 184.09894531 0.68675781 184.09894531 0.3671875 183.1796875 C-1.53460885 180.14768075 -3.59693386 179.47950655 -6.875 178.125 C-7.92429687 177.67382812 -8.97359375 177.22265625 -10.0546875 176.7578125 C-12.8661927 175.73226129 -12.8661927 175.73226129 -14.96826172 176.74902344 C-17.10974665 178.06757292 -18.69287216 179.46496238 -20.453125 181.2578125 C-21.071875 181.88300781 -21.690625 182.50820312 -22.328125 183.15234375 C-23.27945313 184.12880859 -23.27945313 184.12880859 -24.25 185.125 C-24.8996875 185.78371094 -25.549375 186.44242188 -26.21875 187.12109375 C-27.81711727 188.74296643 -29.41061897 190.3693281 -31 192 C-33.85779017 190.70280076 -35.91008536 189.3363174 -38.11621094 187.11083984 C-38.69651062 186.5303891 -39.2768103 185.94993835 -39.87469482 185.35189819 C-40.48838928 184.72788116 -41.10208374 184.10386414 -41.734375 183.4609375 C-42.37240051 182.82008209 -43.01042603 182.17922668 -43.66778564 181.51895142 C-45.69994069 179.47562179 -47.72502218 177.42544018 -49.75 175.375 C-51.1284453 173.9865214 -52.50734636 172.5984951 -53.88671875 171.2109375 C-57.26311894 167.81251303 -60.63319288 164.40792746 -64 161 C-62.6415798 157.95667235 -61.11536976 155.87690849 -58.7421875 153.546875 C-58.11699219 152.928125 -57.49179687 152.309375 -56.84765625 151.671875 C-56.19667969 151.03765625 -55.54570313 150.4034375 -54.875 149.75 C-53.88693359 148.77546875 -53.88693359 148.77546875 -52.87890625 147.78125 C-51.25703357 146.18288273 -49.6306719 144.58938103 -48 143 C-49.53769464 138.26863188 -51.24879762 133.66987302 -53 129 C-61.91 128.67 -70.82 128.34 -80 128 C-80 112.16 -80 96.32 -80 80 C-71.09 79.67 -62.18 79.34 -53 79 C-50.525 73.06 -50.525 73.06 -48 67 C-49.68646783 63.62706435 -50.69149717 62.06653006 -53.2578125 59.546875 C-53.88300781 58.928125 -54.50820312 58.309375 -55.15234375 57.671875 C-55.80332031 57.03765625 -56.45429687 56.4034375 -57.125 55.75 C-57.78371094 55.1003125 -58.44242188 54.450625 -59.12109375 53.78125 C-60.74296643 52.18288273 -62.3693281 50.58938103 -64 49 C-62.70280076 46.14220983 -61.3363174 44.08991464 -59.11083984 41.88378906 C-58.5303891 41.30348938 -57.94993835 40.7231897 -57.35189819 40.12530518 C-56.41587265 39.20476349 -56.41587265 39.20476349 -55.4609375 38.265625 C-54.82008209 37.62759949 -54.17922668 36.98957397 -53.51895142 36.33221436 C-51.47562179 34.30005931 -49.42544018 32.27497782 -47.375 30.25 C-45.9865214 28.8715547 -44.5984951 27.49265364 -43.2109375 26.11328125 C-39.81251303 22.73688106 -36.40792746 19.36680712 -33 16 C-29.95667235 17.3584202 -27.87690849 18.88463024 -25.546875 21.2578125 C-24.61875 22.19560547 -24.61875 22.19560547 -23.671875 23.15234375 C-23.03765625 23.80332031 -22.4034375 24.45429687 -21.75 25.125 C-20.77546875 26.11306641 -20.77546875 26.11306641 -19.78125 27.12109375 C-18.18288273 28.74296643 -16.58938103 30.3693281 -15 32 C-10.26863188 30.46230536 -5.66987302 28.75120238 -1 27 C-0.67 18.09 -0.34 9.18 0 0 Z " fill="#3397E7" transform="translate(120,24)"/>
<path d="M0 0 C-0.65891398 8.02430859 -2.89405817 15.64580721 -5.0078125 23.3828125 C-5.41565326 24.88482198 -5.82343828 26.38684659 -6.23117065 27.8888855 C-7.08613339 31.0318987 -7.94601084 34.17352332 -8.80859375 37.31445312 C-9.90143242 41.29766758 -10.975534 45.28567038 -12.04501534 49.27520943 C-12.8809678 52.38050411 -13.73041271 55.48199767 -14.58333969 58.5826683 C-14.98437734 60.04903994 -15.38068575 61.51671505 -15.77173233 62.98578262 C-20.01320858 78.87745494 -26.27503175 91.32934387 -38 103 C-38.94982392 103.97165565 -39.89791913 104.94500421 -40.8442688 105.92004395 C-43.77985437 108.93426458 -46.74859335 111.91443051 -49.72265625 114.890625 C-50.80080427 115.97199765 -51.87888205 117.05344034 -52.95689392 118.13494873 C-55.1878594 120.37182799 -57.42080547 122.6067075 -59.6550293 124.84033203 C-62.52164158 127.70684129 -65.38122795 130.58025647 -68.23925114 133.45532608 C-70.44995456 135.67710104 -72.66514017 137.89436388 -74.88165092 140.11034393 C-75.93945371 141.16932735 -76.995634 142.22993403 -78.05015755 143.29218292 C-79.51192032 144.76367856 -80.97980284 146.2287806 -82.44946289 147.69238281 C-83.28232315 148.52666809 -84.11518341 149.36095337 -84.97328186 150.22052002 C-87 152 -87 152 -89 152 C-89.39155273 151.14003418 -89.39155273 151.14003418 -89.79101562 150.26269531 C-102.65707681 122.17592602 -119.98194024 98.89297633 -147 83 C-141.90953363 76.86924616 -136.4115507 71.19620193 -130.80859375 65.53515625 C-130.32282427 65.04406309 -129.83705479 64.55296993 -129.33656502 64.04699516 C-126.76362515 61.44749334 -124.18712898 58.85157051 -121.6081543 56.25805664 C-119.49978694 54.13638472 -117.39891753 52.00770112 -115.30444336 49.87231445 C-112.7477251 47.26569963 -110.17840783 44.67212182 -107.60014534 42.0868206 C-106.16926295 40.6461548 -104.75059082 39.19339336 -103.3323822 37.74024963 C-93.97542736 28.41290557 -83.98348274 21.83301416 -71.09570312 18.38525391 C-67.05153147 17.2869207 -63.01569978 16.16270748 -58.98242188 15.02490234 C-52.17030856 13.10874546 -45.34844448 11.22925586 -38.5234375 9.35961914 C-34.93106945 8.37540872 -31.3407746 7.38384412 -27.75091934 6.39051342 C-24.96550671 5.62093435 -22.17883359 4.85600335 -19.39177704 4.0924015 C-18.06607189 3.72841825 -16.74081276 3.36280632 -15.41602325 2.99550438 C-13.57588603 2.48588532 -11.73378324 1.98337967 -9.89160156 1.48120117 C-8.84731995 1.19427902 -7.80303833 0.90735687 -6.72711182 0.61174011 C-4 0 -4 0 0 0 Z " fill="#2A78B8" transform="translate(472,24)"/>
<path d="M0 0 C33.5126678 7.85376931 62.79739894 26.61625997 81.5703125 55.97265625 C87.24348988 65.2200695 91.78465675 74.73778971 95.3125 85 C95.54300049 85.66241699 95.77350098 86.32483398 96.01098633 87.00732422 C100.90292985 102.13049004 101.41624483 116.82556405 101.29296875 132.5625 C101.28735946 134.69197284 101.28309568 136.82144961 101.28010559 138.95092773 C101.26876169 144.50092642 101.23938694 150.05068198 101.20599365 155.60058594 C101.17506483 161.28577386 101.16155195 166.97100184 101.14648438 172.65625 C101.11450519 183.77095624 101.06182517 194.88541968 101 206 C90.44 206 79.88 206 69 206 C68.9906543 203.34283936 68.98130859 200.68567871 68.97167969 197.94799805 C68.93766849 189.0950791 68.88198857 180.24238736 68.81609726 171.3896513 C68.77685745 166.03067114 68.74455516 160.67184954 68.72900391 155.31274414 C68.71368075 150.12536184 68.67896439 144.93841618 68.63169098 139.75123024 C68.61703663 137.78809248 68.60896834 135.82489233 68.60811615 133.86170006 C68.58239021 104.26916054 61.17447729 79.52975376 40 58 C39.25234375 57.23945313 38.5046875 56.47890625 37.734375 55.6953125 C21.72524961 40.37532165 2.14541894 34.6633281 -19 30 C-18.63173096 29.45279297 -18.26346191 28.90558594 -17.8840332 28.34179688 C-14.66517556 23.55127088 -11.50558808 18.723491 -8.375 13.875 C-8.00318604 13.30185059 -7.63137207 12.72870117 -7.24829102 12.13818359 C-4.69095447 8.16565504 -2.31581208 4.11816355 0 0 Z " fill="#EB423E" transform="translate(379,282)"/>
<path d="M0 0 C2.80609832 2.00632583 4.03999709 4.78112854 5.5625 7.8125 C8.83268198 13.9895104 12.80297846 19.50748095 16.92578125 25.12890625 C19 28 19 28 20 30 C19.41734375 30.11480713 18.8346875 30.22961426 18.234375 30.34790039 C-4.72083144 34.96556033 -22.99775994 42.27832495 -40 59 C-40.76054688 59.74765625 -41.52109375 60.4953125 -42.3046875 61.265625 C-62.39774663 82.26252416 -67.59718169 108.67194463 -67.609375 136.76171875 C-67.62440231 138.77481891 -67.64113873 140.78790696 -67.65948486 142.80097961 C-67.70266059 148.03024955 -67.7230453 153.25935342 -67.73822021 158.48876953 C-67.75797343 163.85263697 -67.79992113 169.2163296 -67.83984375 174.58007812 C-67.91460495 185.05336044 -67.96316291 195.52651559 -68 206 C-78.56 206 -89.12 206 -100 206 C-100.09094635 193.82857995 -100.16408478 181.65739148 -100.20724869 169.48570633 C-100.22798182 163.83181217 -100.25603348 158.17816572 -100.30175781 152.52441406 C-100.34573115 147.05192436 -100.36924391 141.57967048 -100.37950897 136.10701752 C-100.38680915 134.03577724 -100.40105941 131.96454751 -100.42292023 129.89340973 C-100.59470769 112.91797608 -99.08107325 96.19980414 -92.8125 80.25 C-92.51770752 79.47962402 -92.22291504 78.70924805 -91.91918945 77.91552734 C-79.55171952 46.73579351 -54.74186159 21.45743669 -24.14746094 7.88769531 C-17.58197689 5.17372305 -10.80022112 3.0386555 -4 1 C-3.29512451 0.78827148 -2.59024902 0.57654297 -1.86401367 0.35839844 C-1.24888916 0.24012695 -0.63376465 0.12185547 0 0 Z " fill="#EB423E" transform="translate(132,282)"/>
<path d="M0 0 C52.8 0 105.6 0 160 0 C160 30.58522727 160 30.58522727 151.703125 39.46875 C143.7056354 46.65915349 135.68351766 48.29993856 125.19628906 48.29052734 C124.11907593 48.29724457 123.04186279 48.30396179 121.93200684 48.31088257 C118.37649908 48.32985506 114.82118021 48.33378658 111.265625 48.3359375 C108.78708825 48.34236649 106.30855225 48.34909493 103.83001709 48.35610962 C98.63503257 48.36808092 93.44011453 48.37179064 88.24511719 48.37060547 C81.60303867 48.37040242 74.9613995 48.39769111 68.31940079 48.43214989 C63.19942281 48.45443834 58.07954758 48.45844238 52.95952606 48.45738602 C50.51161982 48.45973954 48.06371064 48.46854897 45.61585236 48.48405075 C42.18403027 48.5037469 38.7531274 48.49785733 35.32128906 48.48583984 C34.31938538 48.49707886 33.31748169 48.50831787 32.28521729 48.51989746 C23.20956811 48.43954015 15.25774711 45.98541947 8.53125 39.703125 C-2.16005796 27.81177226 0 16.80872024 0 0 Z " fill="#3297E8" transform="translate(176,440)"/>
<path d="M0 0 C26.60765515 3.42567694 50.71987272 15.91417421 67.53662109 37.09082031 C83.45051131 58.32088495 87.83349509 81.02094374 87.54296875 107.109375 C87.53548342 109.12245616 87.52980138 111.13554473 87.52581787 113.14863586 C87.51074157 118.37811365 87.47162122 123.60712781 87.42700195 128.83642578 C87.3856545 134.20013156 87.36772365 139.56391424 87.34765625 144.92773438 C87.30510433 155.40127534 87.23490821 165.87435424 87.15234375 176.34765625 C76.59234375 176.34765625 66.03234375 176.34765625 55.15234375 176.34765625 C55.13776123 173.74995361 55.12317871 171.15225098 55.1081543 168.47583008 C55.05760192 159.85039947 54.99097153 151.22514549 54.91662884 142.5998888 C54.87208282 137.37528365 54.83279272 132.15075365 54.8059082 126.92602539 C54.77971695 121.87488468 54.73920497 116.82403567 54.68915749 111.77307701 C54.67259504 109.85521792 54.66101515 107.9373085 54.65472984 106.0193882 C54.57946569 85.1459425 51.24267867 67.06789625 36.15234375 51.34765625 C22.02751552 38.01152402 5.19083606 33.56681142 -13.72265625 32.78515625 C-14.6971875 32.74197266 -15.67171875 32.69878906 -16.67578125 32.65429688 C-19.06628427 32.54883351 -21.45688069 32.4467145 -23.84765625 32.34765625 C-22.54931763 20.64834124 -16.09037512 14.14569532 -7.5546875 6.79296875 C-4.84571581 4.53184596 -4.84571581 4.53184596 -3.23828125 2.03125 C-1.84765625 0.34765625 -1.84765625 0.34765625 0 0 Z " fill="#FED23A" transform="translate(360.84765625,311.65234375)"/>
<path d="M0 0 C1.66796875 1.49609375 1.66796875 1.49609375 3.1875 3.4375 C5.9951554 6.87934073 8.9691615 9.93784557 12.1875 13 C16.77329758 17.54391815 20.87239397 21.94560828 21.0859375 28.73046875 C21.05757813 29.47941406 21.02921875 30.22835938 21 31 C20.37134033 31.01458252 19.74268066 31.02916504 19.0949707 31.04418945 C-4.21865256 31.64766109 -24.23015729 34.5844811 -41.14453125 52.23828125 C-55.36965318 68.85692274 -57.44316266 86.60008696 -57.51171875 107.51953125 C-57.52859687 109.47394414 -57.54675124 111.42834638 -57.56611633 113.38273621 C-57.61328249 118.48382233 -57.64330662 123.58486528 -57.66955566 128.68609619 C-57.69953112 133.90865605 -57.74600237 139.13106756 -57.79101562 144.35351562 C-57.87666828 154.56894916 -57.94265331 164.78436832 -58 175 C-68.56 175 -79.12 175 -90 175 C-90.11384767 163.51504739 -90.20519755 152.03048149 -90.25906086 140.54508781 C-90.284938 135.20952944 -90.31992587 129.87438357 -90.37719727 124.5390625 C-90.43231054 119.37128896 -90.46158404 114.20390716 -90.47438622 109.03586197 C-90.48348614 107.08347547 -90.50124604 105.1311056 -90.52865028 103.17889023 C-90.8030032 82.7869232 -87.67018931 63.63322781 -77 46 C-76.32066406 44.87335938 -75.64132813 43.74671875 -74.94140625 42.5859375 C-60.04834418 19.68614664 -37.82170059 5.66549896 -11.38183594 -0.02294922 C-3.90952588 -1.47140338 -3.90952588 -1.47140338 0 0 Z " fill="#FED23A" transform="translate(154,313)"/>
<path d="M0 0 C7.67354478 5.61343997 15.07454737 12.30567335 18.16796875 21.5859375 C17.5946582 21.95243408 17.02134766 22.31893066 16.43066406 22.6965332 C5.1686099 29.93690918 -5.3646381 37.088866 -14.83203125 46.5859375 C-15.61320312 47.3078125 -16.394375 48.0296875 -17.19921875 48.7734375 C-31.81127212 62.52595832 -41.48453314 81.14515793 -48.83203125 99.5859375 C-60.65251664 97.73632917 -70.63522497 89.17819422 -77.58203125 79.8359375 C-86.71148738 66.06761619 -90.2390567 50.20914483 -87.14453125 33.98046875 C-82.55132503 17.96166207 -73.88579134 6.41918913 -59.83203125 -2.4140625 C-40.49054228 -12.80846813 -18.46234133 -12.18452678 0 0 Z " fill="#E7EDF1" transform="translate(175.83203125,81.4140625)"/>
<path d="M0 0 C1.05489624 -0.00935994 1.05489624 -0.00935994 2.13110352 -0.01890898 C4.47576936 -0.03479977 6.81938988 -0.02225106 9.1640625 -0.00964355 C10.84977828 -0.01506645 12.53548932 -0.02219005 14.22119141 -0.03088379 C18.79145963 -0.04910026 23.36136618 -0.04205658 27.93164062 -0.02936745 C32.71745774 -0.01923109 37.50324416 -0.02863489 42.2890625 -0.03491211 C50.32557731 -0.04218666 58.36194503 -0.03260586 66.3984375 -0.0135498 C75.68597197 0.00821857 84.97315519 0.00116706 94.26068115 -0.02085543 C102.23877974 -0.0390149 110.21677267 -0.04156507 118.19488525 -0.03110075 C122.95810706 -0.02486883 127.72116384 -0.02402189 132.484375 -0.0372467 C136.96279317 -0.04881255 141.44075904 -0.04076615 145.91912842 -0.01766968 C147.56141408 -0.0123865 149.20373788 -0.01388971 150.8460083 -0.02272034 C153.09055875 -0.03367555 155.33366615 -0.01991476 157.578125 0 C158.83318848 0.0015081 160.08825195 0.0030162 161.38134766 0.00457001 C166.5664884 0.77048389 169.61909387 3.27638864 173.1640625 7.00793457 C175.56209825 12.17293466 175.54287785 16.90816337 174.7890625 22.50793457 C172.47916652 27.48309515 169.50950231 29.82698187 164.7890625 32.50793457 C161.38134766 33.01129913 161.38134766 33.01129913 157.578125 33.01586914 C156.52322876 33.02522908 156.52322876 33.02522908 155.44702148 33.03477812 C153.10235564 33.05066891 150.75873512 33.0381202 148.4140625 33.0255127 C146.72834672 33.03093559 145.04263568 33.03805919 143.35693359 33.04675293 C138.78666537 33.0649694 134.21675882 33.05792572 129.64648438 33.04523659 C124.86066726 33.03510023 120.07488084 33.04450404 115.2890625 33.05078125 C107.25254769 33.0580558 99.21617997 33.048475 91.1796875 33.02941895 C81.89215303 33.00765057 72.60496981 33.01470208 63.31744385 33.03672457 C55.33934526 33.05488404 47.36135233 33.05743421 39.38323975 33.04696989 C34.62001794 33.04073798 29.85696116 33.03989103 25.09375 33.05311584 C20.61533183 33.06468169 16.13736596 33.05663529 11.65899658 33.03353882 C10.01671092 33.02825564 8.37438712 33.02975885 6.7321167 33.03858948 C4.48756625 33.04954469 2.24445885 33.0357839 0 33.01586914 C-1.25506348 33.01436104 -2.51012695 33.01285294 -3.80322266 33.01129913 C-8.9883634 32.24538525 -12.04096887 29.7394805 -15.5859375 26.00793457 C-17.98397325 20.84293448 -17.96475285 16.10770577 -17.2109375 10.50793457 C-13.71687306 2.98225731 -8.11362412 0.00974945 0 0 Z " fill="#DADCDD" transform="translate(177.2109375,407.4920654296875)"/>
<path d="M0 0 C1.06347656 0.00322266 2.12695312 0.00644531 3.22265625 0.00976562 C4.86427734 0.02233398 4.86427734 0.02233398 6.5390625 0.03515625 C7.65667969 0.03966797 8.77429688 0.04417969 9.92578125 0.04882812 C12.67193054 0.06056381 15.41796836 0.07698262 18.1640625 0.09765625 C18.17864502 0.67209473 18.19322754 1.2465332 18.20825195 1.83837891 C18.28319975 4.46711321 18.37970244 7.09464177 18.4765625 9.72265625 C18.49912109 10.62628906 18.52167969 11.52992188 18.54492188 12.4609375 C18.75538663 17.70342327 19.23016842 21.57634122 22.1640625 26.09765625 C24.64067748 28.34616108 24.64067748 28.34616108 27.1640625 30.09765625 C28.1540625 31.08765625 28.1540625 31.08765625 29.1640625 32.09765625 C28.40375732 32.11747559 27.64345215 32.13729492 26.86010742 32.15771484 C23.35695898 32.25399757 19.85432475 32.36325191 16.3515625 32.47265625 C14.5581543 32.5190625 14.5581543 32.5190625 12.72851562 32.56640625 C0.27445874 32.97362337 -11.50506228 33.61212122 -20.6875 42.98828125 C-27.69257813 51.75325586 -28.95365963 61.23341483 -29.04125977 72.23608398 C-29.05115936 73.01739182 -29.06105896 73.79869965 -29.07125854 74.60368347 C-29.10261693 77.16284245 -29.12752845 79.72201994 -29.15234375 82.28125 C-29.17293549 84.06486977 -29.19393252 85.8484849 -29.21531677 87.63209534 C-29.27030824 92.30911486 -29.31981789 96.98617674 -29.36816406 101.66326904 C-29.41854727 106.4428684 -29.47414524 111.22240683 -29.52929688 116.00195312 C-29.63659775 125.36713721 -29.73762179 134.73237353 -29.8359375 144.09765625 C-40.3959375 144.09765625 -50.9559375 144.09765625 -61.8359375 144.09765625 C-61.90397098 132.8484075 -61.95890156 121.59929753 -61.99137402 110.3498888 C-62.0069666 105.12518931 -62.0280866 99.90063904 -62.06225586 94.67602539 C-62.09507936 89.62502787 -62.11283858 84.57417303 -62.12056923 79.52307701 C-62.12607175 77.60515793 -62.13681569 75.68724581 -62.15312767 73.7693882 C-62.33512034 51.46555212 -58.04122967 33.74965572 -41.97265625 17.17578125 C-30.66193439 6.59100634 -15.5553355 -0.08363084 0 0 Z " fill="#3496E6" transform="translate(157.8359375,343.90234375)"/>
<path d="M0 0 C24.08010459 -0.63781858 43.98532445 1.86134089 62.28515625 19.16015625 C74.24097959 31.85314018 80.19105581 47.47976762 80.11352539 64.75927734 C80.11367142 65.61846771 80.11381744 66.47765808 80.1139679 67.36288452 C80.11327429 70.18726169 80.1055078 73.01157193 80.09765625 75.8359375 C80.09579011 77.80034346 80.09436713 79.7647499 80.09336853 81.72915649 C80.08955879 86.88793228 80.07974171 92.04667971 80.06866455 97.20544434 C80.05841721 102.47419857 80.0538638 107.74295741 80.04882812 113.01171875 C80.03811803 123.34116027 80.02053376 133.67057333 80 144 C69.44 144 58.88 144 48 144 C47.970271 140.45125122 47.970271 140.45125122 47.93994141 136.83081055 C47.87278104 128.97972127 47.79514649 121.12876009 47.71247292 113.27781963 C47.66270669 108.52174943 47.61637624 103.76569934 47.578125 99.00952148 C47.54102201 94.41230783 47.49459713 89.81527105 47.44193649 85.21821022 C47.42352452 83.47174013 47.40836889 81.72523232 47.39665604 79.97870445 C47.4791875 60.29912355 47.4791875 60.29912355 39 43 C30.58394154 34.75782705 20.62958688 33.05256732 9.19140625 32.68359375 C7.33032227 32.62075195 7.33032227 32.62075195 5.43164062 32.55664062 C3.51641602 32.49766602 3.51641602 32.49766602 1.5625 32.4375 C0.25861328 32.39431641 -1.04527344 32.35113281 -2.38867188 32.30664062 C-5.59235316 32.20102476 -8.79610611 32.09891899 -12 32 C-11.01 31.34 -10.02 30.68 -9 30 C-4.9086355 26.91060231 -2.42076201 24.94347328 -1 20 C-0.62713993 16.56696357 -0.49203551 13.13760944 -0.375 9.6875 C-0.33632813 8.75615234 -0.29765625 7.82480469 -0.2578125 6.86523438 C-0.16393687 4.57701593 -0.07825491 2.28879705 0 0 Z " fill="#3496E6" transform="translate(336,344)"/>
<path d="M0 0 C-0.65891398 8.02430859 -2.89405817 15.64580721 -5.0078125 23.3828125 C-5.41565326 24.88482198 -5.82343828 26.38684659 -6.23117065 27.8888855 C-7.08613339 31.0318987 -7.94601084 34.17352332 -8.80859375 37.31445312 C-9.90143242 41.29766758 -10.975534 45.28567038 -12.04501534 49.27520943 C-12.8809678 52.38050411 -13.73041271 55.48199767 -14.58333969 58.5826683 C-14.98437734 60.04903994 -15.38068575 61.51671505 -15.77173233 62.98578262 C-19.51917969 77.02646137 -24.40129584 89.59399956 -35 100 C-39.56964892 96.17599988 -43.92089744 92.22181138 -48.11889648 87.99462891 C-48.68562576 87.42804565 -49.25235504 86.8614624 -49.83625793 86.27770996 C-51.68358747 84.42969132 -53.52736301 82.57817097 -55.37109375 80.7265625 C-56.66124403 79.43454448 -57.95161724 78.14274904 -59.24220276 76.85116577 C-62.61944189 73.47012957 -65.99366562 70.08609986 -69.36724854 66.70141602 C-72.81786929 63.24052041 -76.27136338 59.78249457 -79.72460938 56.32421875 C-86.48587186 49.55226856 -93.24394899 42.77714917 -100 36 C-85.51574911 18.16633258 -59.6628137 15.15014636 -38.5234375 9.35961914 C-34.93106945 8.37540872 -31.3407746 7.38384412 -27.75091934 6.39051342 C-24.96550671 5.62093435 -22.17883359 4.85600335 -19.39177704 4.0924015 C-18.06607189 3.72841825 -16.74081276 3.36280632 -15.41602325 2.99550438 C-13.57588603 2.48588532 -11.73378324 1.98337967 -9.89160156 1.48120117 C-8.32517914 1.05081795 -8.32517914 1.05081795 -6.72711182 0.61174011 C-4 0 -4 0 0 0 Z " fill="#FAE8D7" transform="translate(472,24)"/>
<path d="M0 0 C10.56 0 21.12 0 32 0 C32 5.28 32 10.56 32 16 C37.28 16 42.56 16 48 16 C48 26.56 48 37.12 48 48 C42.72 48 37.44 48 32 48 C32 53.28 32 58.56 32 64 C21.44 64 10.88 64 0 64 C0 58.72 0 53.44 0 48 C-5.28 48 -10.56 48 -16 48 C-16 37.44 -16 26.88 -16 16 C-10.72 16 -5.44 16 0 16 C0 10.72 0 5.44 0 0 Z " fill="#FFD33A" transform="translate(440,192)"/>
<path d="M0 0 C5.06623768 4.23816537 9.80038069 8.67408963 14.4375 13.375 C15.07365234 14.01566406 15.70980469 14.65632813 16.36523438 15.31640625 C17.91250332 16.87530879 19.45736492 18.43651416 21 20 C19.44115869 23.72907476 17.14652096 26.10701374 14.30664062 28.95214844 C13.8316362 29.4306575 13.35663177 29.90916656 12.86723328 30.4021759 C11.30188647 31.97629809 9.72937006 33.54302394 8.15625 35.109375 C7.06501471 36.2019577 5.97407645 37.29483712 4.88342285 38.38800049 C2.60016205 40.67420649 0.31333087 42.9567638 -1.97607422 45.23681641 C-4.91529627 48.16461727 -7.84541309 51.10134092 -10.77294159 54.0408287 C-13.02205434 56.29715329 -15.27589 58.54871137 -17.53120422 60.79883575 C-18.61398799 61.88028255 -19.69528031 62.96322471 -20.77507019 64.04766083 C-22.28081863 65.55846632 -23.7927902 67.06274863 -25.30664062 68.56542969 C-26.16664673 69.4238446 -27.02665283 70.28225952 -27.91271973 71.16668701 C-30 73 -30 73 -32 73 C-32.28721924 72.39526855 -32.57443848 71.79053711 -32.87036133 71.16748047 C-34.18378294 68.40302306 -35.49813361 65.63900833 -36.8125 62.875 C-37.26431641 61.92367187 -37.71613281 60.97234375 -38.18164062 59.9921875 C-38.84389648 58.6 -38.84389648 58.6 -39.51953125 57.1796875 C-39.92276611 56.33132324 -40.32600098 55.48295898 -40.74145508 54.60888672 C-42.13276243 51.72479159 -43.56565701 48.86289618 -45 46 C-44.45098526 45.45320587 -43.90197052 44.90641174 -43.33631897 44.3430481 C-38.16876835 39.19551495 -33.00361367 34.04559527 -27.84114933 28.8929615 C-25.18684383 26.24387984 -22.53161394 23.5957386 -19.87426758 20.94970703 C-17.31095579 18.39724178 -14.75007768 15.84235829 -12.19088554 13.28576279 C-11.21292262 12.30965092 -10.23407841 11.33442121 -9.25435066 10.36008072 C-7.88478292 8.99774673 -6.51860211 7.63201037 -5.15258789 6.26611328 C-4.37315323 5.48889923 -3.59371857 4.71168518 -2.79066467 3.91091919 C-0.94036598 2.11844622 -0.94036598 2.11844622 0 0 Z " fill="#3597E7" transform="translate(415,103)"/>
<path d="M0 0 C3.3247945 1.57588004 5.51631617 3.2817149 8.109375 5.9140625 C8.86347656 6.67460938 9.61757813 7.43515625 10.39453125 8.21875 C11.17183594 9.0128125 11.94914062 9.806875 12.75 10.625 C13.54277344 11.42679688 14.33554687 12.22859375 15.15234375 13.0546875 C17.10614493 15.03202846 19.05512103 17.01388909 21 19 C16.37508621 24.55439924 11.44639036 29.68525669 6.3203125 34.77734375 C5.10116653 35.99436729 5.10116653 35.99436729 3.85739136 37.23597717 C1.28228262 39.8055259 -1.2962962 42.37155968 -3.875 44.9375 C-5.63043946 46.68791929 -7.38565017 48.438568 -9.140625 50.18945312 C-13.42444082 54.46229302 -17.71110472 58.73225899 -22 63 C-25.52892471 61.65686943 -27.89947061 60.43597212 -30.625 57.8125 C-35.32658899 53.52522728 -40.5698588 50.2840376 -46 47 C-41.18562562 41.20164104 -36.00751568 35.87718215 -30.6640625 30.56640625 C-29.78471039 29.68846909 -28.90535828 28.81053192 -27.99935913 27.9059906 C-25.21025942 25.12245588 -22.41768982 22.34243231 -19.625 19.5625 C-17.7247458 17.66783335 -15.82525347 15.7724037 -13.92578125 13.87695312 C-9.28649396 9.24864839 -4.64435833 4.62321579 0 0 Z " fill="#3698E7" transform="translate(371,60)"/>
<path d="M0 0 C5.25332021 3.00039331 10.63750557 7.4110554 12.94921875 13.11328125 C12.51025654 16.32554117 11.53625465 17.86866188 9.17578125 20.0390625 C8.6029541 20.58159668 8.03012695 21.12413086 7.43994141 21.68310547 C6.82425293 22.25818848 6.20856445 22.83327148 5.57421875 23.42578125 C-1.62487957 30.35006231 -7.41132119 37.8957823 -13.05078125 46.11328125 C-20.4054725 45.22402271 -25.05849483 41.55487875 -29.92578125 36.11328125 C-34.36132669 29.85133475 -34.87434568 23.61092629 -34.05078125 16.11328125 C-32.18542949 9.03996752 -26.83800772 4.27071544 -21.05078125 0.11328125 C-14.36339575 -3.13577869 -6.80391927 -2.91202224 0 0 Z " fill="#2B79B8" transform="translate(154.05078125,105.88671875)"/>
<path d="M0 0 C0.66 -0.0103125 1.32 -0.020625 2 -0.03125 C4.98174986 0.76077731 6.16411059 2.04673186 8 4.5 C8.390625 7.515625 8.390625 7.515625 8.25 10.75 C8.21390625 11.82765625 8.1778125 12.9053125 8.140625 14.015625 C8.09421875 14.83546875 8.0478125 15.6553125 8 16.5 C8.81984375 16.45359375 9.6396875 16.4071875 10.484375 16.359375 C11.56203125 16.32328125 12.6396875 16.2871875 13.75 16.25 C15.35101563 16.18039063 15.35101563 16.18039063 16.984375 16.109375 C20 16.5 20 16.5 22.359375 18.265625 C24.09023982 20.62289805 24.54492653 21.62470206 24.5 24.5 C24.5103125 25.16 24.520625 25.82 24.53125 26.5 C23.73922269 29.48174986 22.45326814 30.66411059 20 32.5 C16.984375 32.890625 16.984375 32.890625 13.75 32.75 C12.67234375 32.71390625 11.5946875 32.6778125 10.484375 32.640625 C9.66453125 32.59421875 8.8446875 32.5478125 8 32.5 C8.04640625 33.31984375 8.0928125 34.1396875 8.140625 34.984375 C8.19476563 36.60085938 8.19476563 36.60085938 8.25 38.25 C8.29640625 39.31734375 8.3428125 40.3846875 8.390625 41.484375 C8 44.5 8 44.5 6.234375 46.859375 C3.87710195 48.59023982 2.87529794 49.04492653 0 49 C-0.99 49.01546875 -0.99 49.01546875 -2 49.03125 C-4.98174986 48.23922269 -6.16411059 46.95326814 -8 44.5 C-8.390625 41.484375 -8.390625 41.484375 -8.25 38.25 C-8.21390625 37.17234375 -8.1778125 36.0946875 -8.140625 34.984375 C-8.09421875 34.16453125 -8.0478125 33.3446875 -8 32.5 C-8.81984375 32.54640625 -9.6396875 32.5928125 -10.484375 32.640625 C-12.10085937 32.69476563 -12.10085937 32.69476563 -13.75 32.75 C-14.81734375 32.79640625 -15.8846875 32.8428125 -16.984375 32.890625 C-20 32.5 -20 32.5 -22.359375 30.734375 C-24.09023982 28.37710195 -24.54492653 27.37529794 -24.5 24.5 C-24.51546875 23.51 -24.51546875 23.51 -24.53125 22.5 C-23.73922269 19.51825014 -22.45326814 18.33588941 -20 16.5 C-16.984375 16.109375 -16.984375 16.109375 -13.75 16.25 C-12.67234375 16.28609375 -11.5946875 16.3221875 -10.484375 16.359375 C-9.25460938 16.42898437 -9.25460938 16.42898437 -8 16.5 C-8.04640625 15.68015625 -8.0928125 14.8603125 -8.140625 14.015625 C-8.17671875 12.93796875 -8.2128125 11.8603125 -8.25 10.75 C-8.29640625 9.68265625 -8.3428125 8.6153125 -8.390625 7.515625 C-8 4.5 -8 4.5 -6.234375 2.140625 C-3.87710195 0.40976018 -2.87529794 -0.04492653 0 0 Z " fill="#FFD339" transform="translate(56,231.5)"/>
<path d="M0 0 C0.66 -0.0103125 1.32 -0.020625 2 -0.03125 C4.98174986 0.76077731 6.16411059 2.04673186 8 4.5 C8.390625 7.515625 8.390625 7.515625 8.25 10.75 C8.21390625 11.82765625 8.1778125 12.9053125 8.140625 14.015625 C8.09421875 14.83546875 8.0478125 15.6553125 8 16.5 C8.81984375 16.45359375 9.6396875 16.4071875 10.484375 16.359375 C11.56203125 16.32328125 12.6396875 16.2871875 13.75 16.25 C15.35101563 16.18039063 15.35101563 16.18039063 16.984375 16.109375 C20 16.5 20 16.5 22.359375 18.265625 C24.09023982 20.62289805 24.54492653 21.62470206 24.5 24.5 C24.5103125 25.16 24.520625 25.82 24.53125 26.5 C23.73922269 29.48174986 22.45326814 30.66411059 20 32.5 C16.984375 32.890625 16.984375 32.890625 13.75 32.75 C12.67234375 32.71390625 11.5946875 32.6778125 10.484375 32.640625 C9.66453125 32.59421875 8.8446875 32.5478125 8 32.5 C8.04640625 33.31984375 8.0928125 34.1396875 8.140625 34.984375 C8.19476563 36.60085937 8.19476563 36.60085937 8.25 38.25 C8.29640625 39.31734375 8.3428125 40.3846875 8.390625 41.484375 C8 44.5 8 44.5 6.234375 46.859375 C3.87710195 48.59023982 2.87529794 49.04492653 0 49 C-0.99 49.01546875 -0.99 49.01546875 -2 49.03125 C-4.98174986 48.23922269 -6.16411059 46.95326814 -8 44.5 C-8.390625 41.484375 -8.390625 41.484375 -8.25 38.25 C-8.21390625 37.17234375 -8.1778125 36.0946875 -8.140625 34.984375 C-8.09421875 34.16453125 -8.0478125 33.3446875 -8 32.5 C-8.81984375 32.54640625 -9.6396875 32.5928125 -10.484375 32.640625 C-12.10085938 32.69476563 -12.10085938 32.69476563 -13.75 32.75 C-14.81734375 32.79640625 -15.8846875 32.8428125 -16.984375 32.890625 C-20 32.5 -20 32.5 -22.359375 30.734375 C-24.09023982 28.37710195 -24.54492653 27.37529794 -24.5 24.5 C-24.51546875 23.51 -24.51546875 23.51 -24.53125 22.5 C-23.73922269 19.51825014 -22.45326814 18.33588941 -20 16.5 C-16.984375 16.109375 -16.984375 16.109375 -13.75 16.25 C-12.67234375 16.28609375 -11.5946875 16.3221875 -10.484375 16.359375 C-9.25460937 16.42898437 -9.25460937 16.42898437 -8 16.5 C-8.04640625 15.68015625 -8.0928125 14.8603125 -8.140625 14.015625 C-8.17671875 12.93796875 -8.2128125 11.8603125 -8.25 10.75 C-8.29640625 9.68265625 -8.3428125 8.6153125 -8.390625 7.515625 C-8 4.5 -8 4.5 -6.234375 2.140625 C-3.87710195 0.40976018 -2.87529794 -0.04492653 0 0 Z " fill="#FFD339" transform="translate(296,15.5)"/>
<path d="M0 0 C-0.61171615 6.03162489 -1.83162721 11.63030212 -3.46875 17.4609375 C-3.82930481 18.7686058 -3.82930481 18.7686058 -4.19714355 20.10269165 C-4.70220564 21.93035483 -5.20993511 23.7572828 -5.72021484 25.58349609 C-6.50309018 28.38606233 -7.2776095 31.19083666 -8.05078125 33.99609375 C-8.54378904 35.77617517 -9.03726201 37.55612784 -9.53125 39.3359375 C-9.76356323 40.17546967 -9.99587646 41.01500183 -10.23522949 41.87997437 C-11.88311463 47.76622926 -11.88311463 47.76622926 -13 50 C-13.66 50 -14.32 50 -15 50 C-16.25854492 48.72241211 -16.25854492 48.72241211 -17.79296875 46.83984375 C-22.72918394 41.03636919 -28.13334449 35.7169083 -33.52661133 30.34301758 C-35.32947341 28.54557764 -37.12684985 26.74277339 -38.92382812 24.93945312 C-40.06999147 23.79394953 -41.21646442 22.64875561 -42.36328125 21.50390625 C-42.89971756 20.96544571 -43.43615387 20.42698517 -43.98884583 19.87220764 C-46.73434408 17.09156438 -46.73434408 17.09156438 -50 15 C-50 14.34 -50 13.68 -50 13 C-37.93989502 9.43945808 -25.86966528 5.91553229 -13.75 2.5625 C-12.82880371 2.30388184 -11.90760742 2.04526367 -10.95849609 1.77880859 C-10.10078613 1.54371582 -9.24307617 1.30862305 -8.359375 1.06640625 C-7.23740723 0.7561853 -7.23740723 0.7561853 -6.09277344 0.43969727 C-4 0 -4 0 0 0 Z " fill="#464B4D" transform="translate(472,24)"/>
<path d="M0 0 C2.125 1.625 2.125 1.625 3.125 3.625 C3.5 6.4375 3.5 6.4375 3.125 9.625 C-0.46508311 14.09756164 -3.07876012 15.24557192 -8.6875 16 C-16.7909543 17.50347108 -21.05575662 20.54195787 -25.6875 27.25 C-27.2351939 31.64870898 -28.09312354 36.11627744 -28.93359375 40.69921875 C-30.0047118 44.02812921 -30.84452872 44.9735634 -33.875 46.625 C-37.90195637 47.31043938 -39.37236169 46.97466143 -42.75 44.625 C-45.46325692 40.79451964 -45.55955617 38.09743364 -44.875 33.625 C-42.62080881 21.2823794 -36.98765547 12.08006342 -26.875 4.625 C-19.50998249 -0.11570092 -8.30305732 -3.97102741 0 0 Z " fill="#E0B999" transform="translate(316.875,145.375)"/>
<path d="M0 0 C12.16559382 2.22185995 21.83883374 7.79931651 29 18 C33.27375222 25.75016262 36.42850997 34.02311347 35 43 C32.56887157 46.50368509 31.17862962 47.75445216 27 48.625 C22.71717866 47.73274555 21.50642479 46.62039136 19 43 C18.61617638 41.07535927 18.31107164 39.13423435 18.0625 37.1875 C17.08053652 29.65602542 13.88547205 25.67433994 8.4375 20.625 C4.42123469 17.94748979 1.27220739 16.98773821 -3.5 16.6875 C-7.0431032 16.34442824 -8.01445609 15.98967422 -11.0625 13.8125 C-13 11 -13 11 -13.625 8 C-12.06870758 0.52979637 -6.88888984 -1.05442191 0 0 Z " fill="#E0B999" transform="translate(205,144)"/>
<path d="M0 0 C2.875 2 2.875 2 5 5 C6.41210561 13.78643489 2.88793968 23.46189969 -1.75 30.875 C-8.31834443 39.86934099 -16.82736926 45.58737131 -27.76171875 47.68359375 C-32.18384825 48.30871153 -36.19991555 48.73849619 -40.4375 47 C-42.85915972 43.90027556 -43.40311536 40.89424645 -43 37 C-40.95059277 33.63311669 -39.26401382 32.3145649 -35.42578125 31.359375 C-33.50168882 31.03388051 -31.57439008 30.72684965 -29.64453125 30.4375 C-22.3129033 29.22458666 -18.19852314 24.80220306 -14 19 C-12.69546334 16.14244351 -12.09845001 13.59726338 -11.58984375 10.51171875 C-11.43644531 9.62097656 -11.28304687 8.73023438 -11.125 7.8125 C-10.94324219 6.55373047 -10.94324219 6.55373047 -10.7578125 5.26953125 C-9.04987204 0.15451368 -4.95151603 -0.80841078 0 0 Z " fill="#E0B999" transform="translate(235,256)"/>
<path d="M0 0 C4.17139865 0.86904139 5.52665208 2.16231292 8 5.625 C8.42390135 7.85472109 8.56858365 10.02921107 8.71875 12.29296875 C9.56186401 19.28378912 13.69324505 23.92067292 19 28.22265625 C22.349234 30.57104493 25.49546394 31.37699955 29.48828125 32.03515625 C30.37902344 32.18855469 31.26976562 32.34195312 32.1875 32.5 C33.44626953 32.68175781 33.44626953 32.68175781 34.73046875 32.8671875 C37.65706625 33.84439906 38.52733174 34.94349656 40 37.625 C40.25 39.66015625 40.25 39.66015625 40 41.6875 C39.9071875 42.69490234 39.9071875 42.69490234 39.8125 43.72265625 C38.56338576 46.64726508 36.85587182 47.3495621 34 48.625 C22.54734928 49.74720604 12.86717315 45.00250993 4.125 38 C-3.65262511 30.63172358 -7.67073478 19.99526723 -8.4375 9.4375 C-8 5.625 -8 5.625 -5.875 2.625 C-3 0.625 -3 0.625 0 0 Z " fill="#E0B999" transform="translate(280,255.375)"/>
<path d="M0 0 C4.12804743 0.86000988 5.47968464 2.26457952 8 5.625 C8.6484375 7.66796875 8.6484375 7.66796875 9.125 9.8125 C9.59197813 13.84906812 9.59197813 13.84906812 13 15.625 C16.49284028 16.0708945 18.29009758 16.09826828 21.25 14.125 C22.95377852 11.69103068 23.3965127 10.38744484 24 7.5625 C24.59109659 4.82613043 24.86194147 3.78278118 26.75 1.625 C29.81792333 0.26147852 31.67335882 0.08187491 35 0.625 C37.875 2.6875 37.875 2.6875 40 5.625 C40.9669965 12.03135181 39.14851873 17.59754179 35.453125 22.8046875 C31.23835417 27.89598146 26.73324353 31.63481713 20 32.625 C11.79790785 33.17180614 6.07910408 31.59404487 -0.3125 26.3125 C-5.6215923 21.37816715 -7.60557231 16.24058713 -8.375 9.1875 C-8 5.625 -8 5.625 -5.875 2.6875 C-3 0.625 -3 0.625 0 0 Z " fill="#E0B999" transform="translate(280,207.375)"/>
<path d="M0 0 C4.12804743 0.86000988 5.47968464 2.26457952 8 5.625 C8.6484375 7.66796875 8.6484375 7.66796875 9.125 9.8125 C9.59197813 13.84906812 9.59197813 13.84906812 13 15.625 C16.49284028 16.0708945 18.29009758 16.09826828 21.25 14.125 C22.95377852 11.69103068 23.3965127 10.38744484 24 7.5625 C24.59109659 4.82613043 24.86194147 3.78278118 26.75 1.625 C29.81792333 0.26147852 31.67335882 0.08187491 35 0.625 C37.875 2.6875 37.875 2.6875 40 5.625 C40.9669965 12.03135181 39.14851873 17.59754179 35.453125 22.8046875 C31.23835417 27.89598146 26.73324353 31.63481713 20 32.625 C11.79790785 33.17180614 6.07910408 31.59404487 -0.3125 26.3125 C-5.6215923 21.37816715 -7.60557231 16.24058713 -8.375 9.1875 C-8 5.625 -8 5.625 -5.875 2.6875 C-3 0.625 -3 0.625 0 0 Z " fill="#E0B999" transform="translate(200,207.375)"/>
<path d="M0 0 C4.10088626 0.8543513 5.41795197 2.35203822 8 5.625 C8.43900428 8.54886291 8.58958897 10.86540945 8.48828125 13.76953125 C8.48120651 14.53931808 8.47413177 15.30910492 8.46684265 16.10221863 C8.43896925 18.54832303 8.37625137 20.99209384 8.3125 23.4375 C8.28740768 25.10087827 8.26459613 26.76429262 8.24414062 28.42773438 C8.19342534 32.4951002 8.09558199 36.55745528 8 40.625 C2.72 40.625 -2.56 40.625 -8 40.625 C-8.11501351 35.73053633 -8.2144671 30.84078515 -8.2746582 25.94604492 C-8.29975347 24.28247161 -8.33383796 22.61900804 -8.37719727 20.95581055 C-8.4380746 18.56010847 -8.46625769 16.16586749 -8.48828125 13.76953125 C-8.51408768 13.0297554 -8.5398941 12.28997955 -8.56648254 11.52778625 C-8.56862679 7.55134805 -8.14997219 5.81510229 -5.65698242 2.6550293 C-3 0.625 -3 0.625 0 0 Z " fill="#E0B999" transform="translate(256,287.375)"/>
<path d="M0 0 C5.28 0 10.56 0 16 0 C16.11501351 4.89446367 16.2144671 9.78421485 16.2746582 14.67895508 C16.29975347 16.34252839 16.33383796 18.00599196 16.37719727 19.66918945 C16.4380746 22.06489153 16.46625769 24.45913251 16.48828125 26.85546875 C16.51408768 27.5952446 16.5398941 28.33502045 16.56648254 29.09721375 C16.56862679 33.07365195 16.14997219 34.80989771 13.65698242 37.9699707 C11 40 11 40 8 40.625 C3.89911374 39.7706487 2.58204803 38.27296178 0 35 C-0.43900428 32.07613709 -0.58958897 29.75959055 -0.48828125 26.85546875 C-0.48120651 26.08568192 -0.47413177 25.31589508 -0.46684265 24.52278137 C-0.43896925 22.07667697 -0.37625137 19.63290616 -0.3125 17.1875 C-0.28740768 15.52412173 -0.26459613 13.86070738 -0.24414062 12.19726562 C-0.19342534 8.1298998 -0.09558199 4.06754472 0 0 Z " fill="#E0B999" transform="translate(248,120)"/>
</svg>
