<svg width="1728" height="1108" viewBox="0 0 1728 1108" fill="none" xmlns="http://www.w3.org/2000/svg">
<path d="M290 1106.5C49.6 1117.3 -13.1667 1023.67 -14.5 975.5C17.8333 969.667 108.7 958 213.5 958C344.5 958 1043.5 851 1226.5 816.5C1372.9 788.9 1619.5 924.667 1724.5 996C1759.17 1000.67 1826.4 1017.6 1818 1048C1807.5 1086 1752.5 1079 1697 1075.5C1641.5 1072 1565.5 1010 1458.5 975.5C1351.5 941 1226.5 916 988 958C762.541 997.704 590.5 1093 290 1106.5Z" fill="#B9EAFF"/>
<path d="M169 235.5C89.3636 127.298 -32.3128 30.1604 -31.5 0.5C-68.7243 321.959 -89.5248 975.114 -10.7198 1018.06C87.7866 1071.75 256.54 1080.43 335 1074C457 1064 487 1049.38 680.5 996C930.728 926.969 1067.05 905.079 1199 892.5C1382.57 875 1524 927 1659 996C1722.48 1028.45 1822.9 1133.7 1838.5 1082.5C1854.1 1031.3 1854.41 1061.27 1726.8 946.481C1659 885.5 1659 889.125 1586.5 823C1540.17 780.746 1496.62 750.126 1400.07 696.439C1303.51 642.752 1218.17 620.383 1084.55 620.383H902.658C816.831 620.383 718.432 601.589 615.917 580.615L615.516 580.532C500.42 556.984 465.896 549.92 376 481C259.966 392.041 215 298 169 235.5Z" fill="#FFEBEB"/>
</svg>
