<svg width="1728" height="1107" viewBox="0 0 1728 1107" fill="none" xmlns="http://www.w3.org/2000/svg">
<path d="M1444.59 1106C1684.99 1116.8 1747.76 1023.17 1749.09 975C1716.76 969.167 1625.89 957.5 1521.09 957.5C1390.09 957.5 691.091 850.5 508.091 816C361.691 788.4 115.091 924.167 10.0906 995.5C-24.576 1000.17 -91.8094 1017.1 -83.4094 1047.5C-72.9094 1085.5 -17.9094 1078.5 37.5906 1075C93.0906 1071.5 169.091 1009.5 276.091 975C383.091 940.5 508.091 915.5 746.591 957.5C972.05 997.204 1144.09 1092.5 1444.59 1106Z" fill="#B9EAFF"/>
<path d="M1565.59 235C1645.23 126.798 1766.9 29.6604 1766.09 0C1803.31 321.459 1824.12 974.614 1745.31 1017.56C1646.8 1071.25 1478.05 1079.93 1399.59 1073.5C1277.59 1063.5 1247.59 1048.88 1054.09 995.5C803.863 926.469 667.537 904.579 535.591 892C352.024 874.5 210.591 926.5 75.5906 995.5C12.1068 1027.95 -88.3046 1133.2 -103.909 1082C-119.514 1030.8 -119.824 1060.77 7.79529 945.981C75.5906 885 75.5906 888.625 148.091 822.5C194.418 780.246 237.968 749.626 334.524 695.939C431.08 642.252 516.419 619.883 650.037 619.883H831.932C917.76 619.883 1016.16 601.089 1118.67 580.115L1119.07 580.032C1234.17 556.484 1268.69 549.42 1358.59 480.5C1474.62 391.541 1519.59 297.5 1565.59 235Z" fill="#FFEBEB"/>
</svg>
