<svg width="356" height="356" viewBox="0 0 356 356" fill="none" xmlns="http://www.w3.org/2000/svg">
<g clip-path="url(#clip0_13_350)">
<path fill-rule="evenodd" clip-rule="evenodd" d="M307.82 144.444C306.869 139.25 301.892 135.814 296.699 136.765C255.761 144.26 93.2337 174.019 52.2963 181.515C47.1028 182.466 43.6665 187.442 44.6174 192.636L68.7135 324.237C69.6645 329.431 74.6412 332.867 79.8348 331.916L324.237 287.166C329.431 286.215 332.867 281.238 331.916 276.045C326.971 249.038 312.765 171.45 307.82 144.444Z" fill="#4BBA6C"/>
<path fill-rule="evenodd" clip-rule="evenodd" d="M295.549 183.545C294.82 179.564 291.655 176.471 287.652 175.834C284.855 175.681 282.218 174.624 279.883 173.011C277.547 171.399 275.625 169.308 274.221 166.898C272.273 163.499 268.392 161.694 264.538 162.4C221.063 170.044 134.817 185.836 91.3977 193.786C87.4168 194.515 84.3242 197.68 83.6872 201.682C83.5338 204.479 82.4767 207.116 80.8641 209.452C79.2515 211.787 77.1603 213.71 74.7504 215.113C71.3522 217.061 69.5466 220.943 70.2522 224.797C73.2668 242.986 77.6644 267.003 80.9845 285.136C81.7134 289.117 84.8786 292.209 88.8813 292.846C91.6782 293 94.3151 294.057 96.6505 295.669C98.986 297.282 100.909 299.373 102.312 301.783C104.26 305.181 108.142 306.987 111.996 306.281C155.471 298.637 241.717 282.845 285.136 274.895C289.117 274.166 292.209 271.001 292.846 266.998C292.999 264.201 294.057 261.565 295.669 259.229C297.282 256.894 299.373 254.971 301.783 253.568C305.181 251.619 306.987 247.738 306.281 243.884C303.266 225.695 298.869 201.678 295.549 183.545Z" fill="#317A47"/>
<path d="M114.787 257.51C119.979 256.559 123.417 251.58 122.466 246.388C121.516 241.197 116.536 237.759 111.345 238.71C106.153 239.66 102.715 244.639 103.666 249.831C104.617 255.022 109.596 258.46 114.787 257.51Z" fill="#4BBA6C"/>
<path d="M265.189 229.971C270.38 229.021 273.818 224.042 272.868 218.85C271.917 213.658 266.938 210.221 261.746 211.171C256.555 212.122 253.117 217.101 254.067 222.292C255.018 227.484 259.997 230.922 265.189 229.971Z" fill="#4BBA6C"/>
<path d="M136.897 166.024C168.046 160.321 188.674 130.446 182.971 99.2968C177.267 68.1477 147.392 47.5198 116.243 53.2232C85.0941 58.9266 64.4663 88.8015 70.1697 119.951C75.8731 151.1 105.748 171.728 136.897 166.024Z" fill="#FEB62C"/>
<path d="M195.151 271.941C215.917 268.138 229.669 248.222 225.867 227.456C222.065 206.69 202.148 192.938 181.382 196.74C160.616 200.542 146.864 220.459 150.666 241.225C154.469 261.991 174.385 275.743 195.151 271.941Z" fill="#4BBA6C"/>
<path d="M240.298 147.092C255.873 144.24 266.187 129.302 263.335 113.728C260.483 98.1533 245.546 87.8394 229.971 90.6911C214.397 93.5428 204.083 108.48 206.934 124.055C209.786 139.629 224.724 149.943 240.298 147.092Z" fill="#FEB62C"/>
<path d="M212.429 74.4727C222.812 72.5715 229.688 62.6132 227.787 52.2302C225.885 41.8471 215.927 34.9712 205.544 36.8723C195.161 38.7734 188.285 48.7317 190.186 59.1148C192.087 69.4978 202.046 76.3738 212.429 74.4727Z" fill="#FEB62C"/>
<path fill-rule="evenodd" clip-rule="evenodd" d="M118.031 116.045L136.831 112.603C142.024 111.652 147.001 115.088 147.952 120.282C148.903 125.475 145.467 130.452 140.273 131.403L121.473 134.845C116.279 135.796 111.303 132.36 110.352 127.166C109.877 124.572 107.386 122.852 104.791 123.327C102.197 123.802 100.477 126.293 100.952 128.887C102.853 139.27 112.812 146.146 123.194 144.245L127.894 143.385L128.755 148.085C129.23 150.679 131.721 152.399 134.315 151.924C136.91 151.449 138.63 148.958 138.155 146.364L137.294 141.663L141.994 140.803C152.377 138.902 159.253 128.943 157.352 118.56C155.451 108.178 145.492 101.302 135.11 103.203L116.31 106.645C111.116 107.596 106.139 104.159 105.188 98.9659C104.237 93.7724 107.674 88.7956 112.867 87.8447L131.667 84.4024C136.861 83.4515 141.838 86.8878 142.789 92.0813C143.264 94.6758 145.755 96.3958 148.349 95.9208C150.944 95.4458 152.664 92.9546 152.189 90.3602C150.288 79.9778 140.329 73.1013 129.946 75.0023L125.246 75.8629L124.386 71.1628C123.911 68.5684 121.419 66.8483 118.825 67.3234C116.231 67.7984 114.511 70.2896 114.986 72.884L115.846 77.584L111.146 78.4446C100.764 80.3456 93.8872 90.3047 95.7882 100.687C97.6892 111.069 107.648 117.946 118.031 116.045Z" fill="#F8F4F0"/>
</g>
<defs>
<clipPath id="clip0_13_350">
<rect width="305.804" height="305.804" fill="white" transform="translate(0 55.0769) rotate(-10.3759)"/>
</clipPath>
</defs>
</svg>
