<svg width="37" height="36" viewBox="0 0 37 36" fill="none" xmlns="http://www.w3.org/2000/svg">
<g id="icons">
<g id="Group">
<path id="Vector" d="M18.5393 17.7187C18.4333 17.7187 18.3295 17.6888 18.2398 17.6323C18.1501 17.5759 18.0782 17.4953 18.0323 17.3997C17.9865 17.3042 17.9685 17.1977 17.9806 17.0924C17.9926 16.9871 18.0341 16.8874 18.1004 16.8047L20.3504 13.9922C20.4437 13.8759 20.5794 13.8015 20.7276 13.7852C20.8757 13.7689 21.0243 13.812 21.1407 13.9051C21.2571 13.9982 21.3318 14.1337 21.3484 14.2819C21.365 14.43 21.3222 14.5787 21.2293 14.6953L18.9793 17.5078C18.9264 17.5737 18.8595 17.6268 18.7833 17.6634C18.7071 17.6999 18.6237 17.7188 18.5393 17.7187Z" fill="#545C66"/>
<path id="Vector_2" d="M18.5404 17.7187C18.456 17.7189 18.3725 17.7001 18.2963 17.6635C18.2202 17.627 18.1532 17.5738 18.1004 17.5078L15.8504 14.6953C15.8041 14.6376 15.7696 14.5713 15.7489 14.5003C15.7282 14.4293 15.7217 14.3548 15.7298 14.2813C15.7379 14.2077 15.7605 14.1365 15.7961 14.0717C15.8318 14.0068 15.8799 13.9497 15.9377 13.9034C15.9954 13.8572 16.0618 13.8228 16.1328 13.8023C16.2039 13.7817 16.2784 13.7754 16.3519 13.7836C16.4254 13.7919 16.4966 13.8145 16.5614 13.8503C16.6262 13.8861 16.6832 13.9343 16.7293 13.9922L18.9793 16.8047C19.0456 16.8874 19.0871 16.9871 19.0992 17.0924C19.1112 17.1977 19.0932 17.3042 19.0474 17.3998C19.0015 17.4953 18.9296 17.5759 18.8399 17.6323C18.7502 17.6888 18.6464 17.7187 18.5404 17.7187Z" fill="#545C66"/>
</g>
<g id="Group_2">
<path id="Vector_3" d="M33.1643 28.9688L35.5043 32.3438L32.0393 31.7812C32.0393 31.7812 26.7968 33.1594 25.2893 31.2188L19.6643 21.0938V19.4062H27.5393C30.6499 19.4062 33.1643 24.3056 33.1643 28.9688Z" fill="#4A89DC"/>
<path id="Vector_4" d="M19.1018 16.5938C19.2509 16.5942 19.3937 16.6536 19.4991 16.759C19.6045 16.8644 19.6639 17.0072 19.6643 17.1562V22.2188L18.5393 26.7188L17.4143 22.2188V17.1562C17.4147 17.0072 17.4741 16.8644 17.5795 16.759C17.6849 16.6536 17.8278 16.5942 17.9768 16.5938H19.1018Z" fill="#656D78"/>
<path id="Vector_5" d="M35.9768 5.34375L33.1643 17.1562C32.7199 18.8381 30.9031 19.4062 28.1018 19.4062H19.6643V18.2812L30.3518 4.78125L34.8518 3.65625C35.4762 3.65625 35.9768 4.41 35.9768 5.34375Z" fill="#5D9CEC"/>
<path id="Vector_6" d="M17.4143 18.2812V19.4062H8.97681C6.17556 19.4062 4.35868 18.8381 3.91431 17.1562L1.10181 5.34375C1.10181 4.41 1.60243 3.65625 2.22681 3.65625L6.72681 4.78125L17.4143 18.2812Z" fill="#5D9CEC"/>
<path id="Vector_7" d="M17.4143 19.4062V21.0938L11.7893 31.2188C10.2818 33.1594 5.03934 31.7812 5.03934 31.7812L1.57434 32.3438L3.91434 28.9688C3.91434 24.3056 6.42872 19.4062 9.53934 19.4062H17.4143Z" fill="#4A89DC"/>
</g>
</g>
</svg>
