<svg width="298" height="83" viewBox="0 0 298 83" fill="none" xmlns="http://www.w3.org/2000/svg">
<g clip-path="url(#clip0_68_84)">
<path d="M0 13.28C0 5.94567 5.99286 0 13.3854 0H284.44C291.832 0 297.825 5.94567 297.825 13.28V69.72C297.825 77.0544 291.832 83 284.44 83H13.3854C5.99286 83 0 77.0544 0 69.72V13.28Z" fill="#FFDD00"/>
<path d="M59.8855 27.2965L59.8488 27.275L59.7635 27.2493C59.798 27.2779 59.8406 27.2945 59.8855 27.2965Z" fill="#0D0C22"/>
<path d="M59.9011 27.2905C59.8959 27.2899 59.8912 27.2887 59.8865 27.2871C59.886 27.2903 59.886 27.2935 59.8865 27.2967C59.8918 27.296 59.8964 27.2939 59.9011 27.2905Z" fill="#0D0C22"/>
<path d="M59.886 27.2982H59.8935V27.2937L59.886 27.2982Z" fill="#0D0C22"/>
<path d="M60.3912 31.0847L60.453 31.0497L60.476 31.0368L60.4968 31.0146C60.4579 31.0315 60.4219 31.0552 60.3912 31.0847Z" fill="#0D0C22"/>
<path d="M59.991 27.3798L59.9303 27.3227L59.8893 27.3005C59.9117 27.3392 59.9478 27.3676 59.991 27.3798Z" fill="#0D0C22"/>
<path d="M44.7711 64.2046C44.7227 64.2252 44.6804 64.2578 44.6479 64.299L44.6861 64.2746C44.712 64.2512 44.7488 64.223 44.7711 64.2046Z" fill="#0D0C22"/>
<path d="M53.6103 62.4794C53.6103 62.4252 53.5836 62.435 53.5901 62.6281C53.5901 62.6123 53.5966 62.5966 53.5995 62.5814C53.6031 62.5473 53.606 62.5136 53.6103 62.4794Z" fill="#0D0C22"/>
<path d="M52.6974 64.2046C52.649 64.2252 52.6067 64.2578 52.5742 64.299L52.6124 64.2746C52.6383 64.2512 52.675 64.223 52.6974 64.2046Z" fill="#0D0C22"/>
<path d="M38.5424 64.6151C38.5057 64.5837 38.4607 64.5625 38.4127 64.5549C38.4516 64.5739 38.4905 64.5924 38.5164 64.6065L38.5424 64.6151Z" fill="#0D0C22"/>
<path d="M37.1437 63.2845C37.138 63.2281 37.1205 63.1739 37.0925 63.1245C37.1124 63.1755 37.1289 63.2281 37.1422 63.2818L37.1437 63.2845Z" fill="#0D0C22"/>
<path d="M46.5519 39.4787C44.6287 40.2955 42.4462 41.2216 39.6176 41.2216C38.4343 41.2193 37.2568 41.0582 36.1169 40.7428L38.0733 60.6704C38.1425 61.5031 38.525 62.28 39.1447 62.8458C39.7644 63.4121 40.576 63.7262 41.4183 63.7257C41.4183 63.7257 44.1922 63.8689 45.1178 63.8689C46.1139 63.8689 49.1011 63.7257 49.1011 63.7257C49.9433 63.7257 50.7547 63.4116 51.3743 62.8458C51.9938 62.2794 52.3762 61.5031 52.4454 60.6704L54.5407 38.6497C53.6044 38.3324 52.6593 38.1216 51.594 38.1216C49.7515 38.1209 48.2669 38.7504 46.5519 39.4787Z" fill="white"/>
<path d="M30.0648 30.9771L30.098 31.0078L30.1196 31.0206C30.1029 31.0042 30.0846 30.9896 30.0648 30.9771Z" fill="#0D0C22"/>
<path d="M63.591 29.1377L63.2968 27.6635C63.0322 26.3407 62.4323 25.0908 61.0637 24.6127C60.6252 24.4598 60.1271 24.394 59.7908 24.0775C59.4545 23.7609 59.355 23.2693 59.2774 22.8133C59.1336 21.9765 58.998 21.1389 58.8503 20.3036C58.7229 19.5854 58.6218 18.7785 58.2899 18.1197C57.8579 17.2349 56.9612 16.7176 56.0694 16.3753C55.6122 16.206 55.1458 16.0629 54.6725 15.9465C52.4446 15.3633 50.1022 15.1489 47.8102 15.0268C45.0592 14.8762 42.3008 14.9215 39.5563 15.1625C37.5136 15.3469 35.3621 15.5699 33.4209 16.2709C32.7113 16.5275 31.9803 16.8355 31.4408 17.3793C30.7788 18.0475 30.5627 19.0809 31.046 19.9141C31.3896 20.5058 31.9716 20.9238 32.5889 21.2004C33.393 21.5567 34.2327 21.8279 35.0941 22.0093C37.4927 22.5353 39.977 22.7419 42.4275 22.8297C45.1434 22.9385 47.8638 22.8504 50.5668 22.566C51.2352 22.4932 51.9025 22.4057 52.5685 22.3038C53.3529 22.1845 53.8564 21.1668 53.6252 20.4579C53.3486 19.6104 52.6053 19.2816 51.7646 19.4095C51.6408 19.4289 51.5176 19.4467 51.3937 19.4646L51.3044 19.4775C51.0196 19.5132 50.7349 19.5465 50.4501 19.5775C49.8619 19.6404 49.2722 19.6918 48.6811 19.7318C47.3572 19.8233 46.0296 19.8655 44.7029 19.8676C43.3992 19.8676 42.0947 19.8312 40.7938 19.7462C40.2003 19.7075 39.6082 19.6585 39.0176 19.5989C38.7489 19.571 38.481 19.5417 38.213 19.5089L37.958 19.4767L37.9026 19.4689L37.6382 19.431C37.098 19.3502 36.5577 19.2573 36.0233 19.1451C35.9694 19.1333 35.9211 19.1035 35.8865 19.0608C35.852 19.018 35.8331 18.9648 35.8331 18.91C35.8331 18.8552 35.852 18.8021 35.8865 18.7593C35.9211 18.7166 35.9694 18.6868 36.0233 18.6749H36.0334C36.4965 18.577 36.9633 18.4934 37.4314 18.4205C37.5876 18.3962 37.7441 18.3724 37.9011 18.349H37.9054C38.1986 18.3297 38.4932 18.2776 38.7849 18.2433C41.323 17.9813 43.8762 17.8921 46.4266 17.976C47.6647 18.0117 48.9022 18.0839 50.1346 18.2083C50.3997 18.2354 50.6634 18.264 50.927 18.2961C51.0278 18.3083 51.1294 18.3226 51.2309 18.3348L51.4355 18.3641C52.0319 18.4522 52.6252 18.5591 53.2153 18.6849C54.0898 18.8736 55.2125 18.935 55.6018 19.8855C55.7254 20.1871 55.7817 20.5222 55.8501 20.8388L55.9376 21.2425C55.9398 21.2498 55.9414 21.2572 55.9425 21.2647C56.1486 22.2175 56.3548 23.1704 56.5609 24.1232C56.5762 24.1936 56.5768 24.2663 56.562 24.3369C56.5478 24.4074 56.5188 24.4742 56.4773 24.5331C56.4357 24.5921 56.3821 24.6419 56.3203 24.6794C56.2585 24.717 56.1891 24.7415 56.1175 24.7514H56.1115L55.9857 24.7685L55.861 24.785C55.4662 24.8359 55.0709 24.8836 54.6754 24.9279C53.896 25.016 53.1155 25.0923 52.3337 25.1566C50.7803 25.2847 49.2237 25.3688 47.664 25.4088C46.8693 25.4298 46.0748 25.4396 45.2805 25.4381C42.1192 25.4357 38.9605 25.2534 35.8202 24.8922C35.4802 24.8521 35.1402 24.8093 34.8002 24.7656C35.0638 24.7993 34.6086 24.7399 34.5165 24.7271C34.3004 24.6971 34.0843 24.6659 33.8682 24.6334C33.1428 24.5255 32.4218 24.3926 31.6979 24.2762C30.8227 24.1332 29.9858 24.2047 29.1942 24.6334C28.5444 24.9862 28.0185 25.5272 27.6866 26.1842C27.3452 26.8845 27.2436 27.647 27.0909 28.3995C26.9382 29.1521 26.7005 29.9617 26.7906 30.7342C26.9843 32.4014 28.1591 33.7564 29.8489 34.0594C31.4386 34.3452 33.037 34.5768 34.6396 34.774C40.9352 35.539 47.2955 35.6305 53.6108 35.047C54.1251 34.9993 54.6387 34.9474 55.1513 34.8912C55.3115 34.8737 55.4739 34.892 55.6259 34.9448C55.7779 34.9975 55.9163 35.0834 56.0305 35.196C56.1448 35.3087 56.2328 35.4453 56.287 35.5958C56.3411 35.7463 56.3608 35.907 56.3444 36.0661L56.1842 37.6082C55.8621 40.7244 55.5401 43.8405 55.218 46.9562C54.8817 50.2283 54.5433 53.5001 54.2029 56.7714C54.1068 57.693 54.0108 58.6142 53.9147 59.5353C53.8225 60.4418 53.8096 61.3776 53.636 62.2738C53.3623 63.6826 52.4007 64.5484 50.9976 64.8647C49.7121 65.1549 48.3989 65.3073 47.0806 65.3193C45.6191 65.3269 44.1583 65.2629 42.6969 65.2705C41.1367 65.2791 39.2257 65.1365 38.0214 63.9842C36.9633 62.9725 36.8171 61.3879 36.673 60.0181C36.4809 58.2046 36.2905 56.3911 36.1018 54.5776L35.043 44.4951L34.3579 37.9712C34.3465 37.8633 34.3349 37.7568 34.3241 37.6482C34.242 36.87 33.6867 36.1082 32.8115 36.1475C32.0624 36.1804 31.211 36.8121 31.2989 37.6482L31.8067 42.4848L32.8568 52.4896C33.156 55.3316 33.4545 58.1737 33.7522 61.0163C33.8098 61.561 33.8639 62.1072 33.9243 62.6513C34.2535 65.6274 36.5441 67.231 39.3806 67.6823C41.0373 67.9471 42.7343 68.0013 44.4155 68.0284C46.5706 68.0626 48.7474 68.1451 50.8672 67.7577C54.0084 67.186 56.3652 65.105 56.7014 61.8767C56.7977 60.9452 56.8939 60.0127 56.9896 59.0807C57.3089 55.9972 57.6277 52.9136 57.9465 49.8297L58.9876 39.7535L59.4655 35.1356C59.489 34.9066 59.5868 34.6913 59.7432 34.5216C59.9002 34.3518 60.1079 34.2366 60.3354 34.193C61.2338 34.0193 62.0922 33.7228 62.7314 33.0446C63.7485 31.9648 63.9508 30.557 63.591 29.1377ZM29.8028 30.134C29.8165 30.1275 29.7913 30.244 29.7805 30.2983C29.7783 30.2161 29.7826 30.1432 29.8028 30.134ZM29.89 30.8028C29.8972 30.7978 29.9188 30.8264 29.9411 30.8607C29.9072 30.8293 29.8856 30.8057 29.8893 30.8028H29.89ZM29.9757 30.915C30.0067 30.9672 30.0232 31.0001 29.9757 30.915V30.915ZM30.1478 31.0537H30.1522C30.1522 31.0587 30.1601 31.0637 30.163 31.0687C30.1582 31.0632 30.1529 31.0581 30.1471 31.0537H30.1478ZM60.2938 30.8464C59.9712 31.1508 59.4846 31.2924 59.0045 31.3631C53.6166 32.1563 48.1502 32.5579 42.7033 32.3807C38.8051 32.2485 34.9479 31.819 31.0885 31.2781C30.7104 31.2252 30.3006 31.1566 30.0405 30.88C29.5507 30.3583 29.7913 29.3078 29.9188 28.6775C30.0355 28.1001 30.2588 27.3305 30.951 27.2483C32.0314 27.1225 33.2862 27.5748 34.3551 27.7356C35.642 27.9305 36.9338 28.0865 38.2303 28.2037C43.7636 28.704 49.3898 28.6261 54.8987 27.8943C55.9026 27.7604 56.9032 27.6049 57.9 27.4277C58.7885 27.2697 59.7728 26.9732 60.3097 27.8857C60.6777 28.5074 60.7264 29.3393 60.6695 30.0417C60.652 30.3478 60.5175 30.6357 60.2927 30.8464H60.2938Z" fill="#0D0C22"/>
<path fill-rule="evenodd" clip-rule="evenodd" d="M92.9739 45.6987C92.6595 46.2944 92.227 46.8132 91.6763 47.2534C91.1257 47.694 90.4838 48.0527 89.7495 48.3289C89.0157 48.6057 88.277 48.7914 87.5344 48.8861C86.7913 48.9811 86.0701 48.9729 85.3719 48.8601C84.6725 48.748 84.0776 48.5192 83.5888 48.1733L84.14 42.498C84.6463 42.3255 85.2838 42.1482 86.0532 41.9668C86.8219 41.7856 87.6126 41.6557 88.4257 41.5781C89.2388 41.5002 90.007 41.5094 90.7326 41.6041C91.4576 41.6991 92.0301 41.9279 92.4495 42.2909C92.677 42.498 92.8694 42.7226 93.0264 42.9646C93.1838 43.2066 93.2795 43.4571 93.3151 43.7162C93.402 44.4417 93.2888 45.1026 92.9739 45.6987ZM84.9782 33.6093C85.3451 33.3848 85.7869 33.1859 86.302 33.0129C86.8176 32.8407 87.3463 32.7193 87.8882 32.6503C88.4295 32.5816 88.9583 32.5724 89.4744 32.6243C89.9895 32.6763 90.4444 32.8187 90.8376 33.0518C91.2307 33.2852 91.5232 33.6222 91.7157 34.0624C91.9076 34.5033 91.9601 35.0605 91.8726 35.7342C91.8032 36.2698 91.5883 36.7235 91.2307 37.0947C90.8726 37.4665 90.4351 37.7772 89.9201 38.0277C89.4044 38.2786 88.8582 38.4771 88.2819 38.6234C87.7045 38.7707 87.1495 38.8789 86.6169 38.9476C86.0838 39.017 85.6207 39.0604 85.2275 39.0772C84.8344 39.0946 84.5763 39.1031 84.4538 39.1031L84.9782 33.6093ZM95.8051 42.0315C95.5257 41.4272 95.1501 40.8959 94.6782 40.4376C94.2063 39.98 93.6464 39.6476 93.0001 39.4402C93.2795 39.2156 93.5551 38.8615 93.8263 38.3775C94.097 37.8942 94.3283 37.3669 94.5207 36.7968C94.7127 36.2264 94.8444 35.6523 94.9139 35.0734C94.9833 34.4947 94.9571 33.998 94.8357 33.583C94.5377 32.5468 94.0707 31.7347 93.4326 31.1472C92.7945 30.56 92.052 30.1539 91.2045 29.9291C90.3564 29.7052 89.4219 29.6572 88.3994 29.7867C87.3769 29.9162 86.3326 30.171 85.2669 30.5511C85.2669 30.4649 85.2756 30.3742 85.2931 30.2792C85.3101 30.1845 85.3188 30.0849 85.3188 29.981C85.3188 29.7219 85.1881 29.4977 84.9257 29.3073C84.6638 29.1173 84.3625 29.0052 84.0218 28.9703C83.6806 28.9362 83.3487 29.0091 83.025 29.1906C82.7019 29.3721 82.4788 29.7052 82.3569 30.1881C82.2169 31.7432 82.0769 33.3588 81.9375 35.0343C81.7975 36.7103 81.6488 38.4035 81.4919 40.1141C81.3344 41.8244 81.1769 43.5219 81.02 45.2062C80.8625 46.8908 80.705 48.5103 80.5481 50.0651C80.6006 50.5316 80.7313 50.8946 80.9412 51.1537C81.1507 51.413 81.3956 51.5686 81.675 51.6202C81.9544 51.6721 82.2475 51.6241 82.5532 51.4775C82.8588 51.3312 83.1257 51.0757 83.3531 50.7131C84.0519 51.0932 84.8387 51.3394 85.7125 51.4519C86.5863 51.564 87.4726 51.564 88.3737 51.4519C89.2732 51.3394 90.1601 51.128 91.0339 50.8167C91.9076 50.506 92.7032 50.117 93.4195 49.6508C94.1363 49.1843 94.7389 48.6527 95.2288 48.057C95.7177 47.4606 96.0414 46.8171 96.1983 46.1264C96.3558 45.4179 96.3995 44.7097 96.3295 44.0012C96.2595 43.293 96.0846 42.6368 95.8051 42.0315Z" fill="#0D0C23"/>
<path fill-rule="evenodd" clip-rule="evenodd" d="M121.381 55.7142C121.285 56.2843 121.149 56.8848 120.975 57.5158C120.8 58.1456 120.595 58.7206 120.359 59.2392C120.123 59.7573 119.861 60.1755 119.573 60.4956C119.284 60.8151 118.974 60.9491 118.642 60.8976C118.38 60.8623 118.214 60.6985 118.144 60.405C118.074 60.111 118.074 59.7481 118.144 59.3168C118.214 58.8844 118.349 58.3962 118.55 57.8521C118.751 57.308 118.996 56.7677 119.284 56.2328C119.573 55.6968 119.9 55.1831 120.267 54.6905C120.634 54.1986 121.019 53.7879 121.421 53.4598C121.508 53.5634 121.547 53.8225 121.539 54.2374C121.529 54.652 121.477 55.1446 121.381 55.7142ZM130.269 44.4672C130.032 44.2081 129.744 44.0615 129.403 44.0267C129.062 43.9921 128.717 44.1822 128.368 44.5968C128.141 45.0113 127.852 45.4088 127.502 45.7889C127.153 46.1693 126.791 46.5145 126.415 46.8255C126.039 47.1362 125.681 47.4045 125.34 47.6287C124.999 47.8536 124.732 48.0176 124.54 48.1212C124.471 47.5686 124.431 46.9725 124.422 46.333C124.413 45.6938 124.427 45.0462 124.462 44.3896C124.514 43.4566 124.623 42.5153 124.789 41.5648C124.956 40.6147 125.196 39.6816 125.51 38.7656C125.51 38.2823 125.396 37.8891 125.169 37.5866C124.942 37.2845 124.667 37.0942 124.344 37.0165C124.02 36.939 123.689 36.982 123.347 37.1461C123.007 37.3105 122.714 37.6087 122.469 38.04C122.26 38.6105 122.019 39.2496 121.749 39.9578C121.477 40.6663 121.172 41.3876 120.831 42.1217C120.49 42.8565 120.11 43.569 119.69 44.2598C119.271 44.9512 118.812 45.5647 118.314 46.0999C117.816 46.6355 117.274 47.0547 116.689 47.3568C116.103 47.6593 115.47 47.7931 114.789 47.7586C114.474 47.6721 114.246 47.439 114.107 47.0586C113.967 46.6789 113.884 46.2034 113.858 45.6334C113.832 45.0633 113.858 44.437 113.936 43.7544C114.015 43.0722 114.12 42.394 114.251 41.7203C114.382 41.0463 114.526 40.4072 114.683 39.8026C114.84 39.198 114.989 38.688 115.129 38.2735C115.339 37.7727 115.339 37.3532 115.129 37.0165C114.919 36.6795 114.631 36.4553 114.264 36.3426C113.897 36.2305 113.512 36.235 113.11 36.3557C112.709 36.4767 112.42 36.7443 112.245 37.1589C111.948 37.8678 111.677 38.6621 111.432 39.5432C111.188 40.4243 110.991 41.336 110.843 42.2773C110.694 43.2192 110.61 44.1523 110.594 45.0764C110.592 45.1366 110.595 45.1938 110.595 45.2536C110.214 46.258 109.851 47.0172 109.506 47.5252C109.06 48.182 108.557 48.4671 107.998 48.3803C107.753 48.2767 107.592 48.035 107.513 47.6546C107.434 47.2749 107.408 46.8084 107.434 46.2551C107.461 45.7027 107.527 45.0764 107.631 44.3765C107.737 43.6768 107.867 42.9513 108.024 42.1996C108.182 41.4478 108.348 40.6926 108.522 39.9321C108.697 39.172 108.854 38.4549 108.995 37.781C108.977 37.1764 108.798 36.7144 108.457 36.3945C108.117 36.0753 107.64 35.95 107.028 36.0188C106.609 36.1916 106.299 36.4166 106.098 36.6927C105.897 36.9689 105.735 37.3233 105.613 37.755C105.542 37.9799 105.438 38.429 105.298 39.1029C105.158 39.7763 104.979 40.5499 104.76 41.4221C104.542 42.295 104.284 43.2061 103.987 44.1562C103.69 45.1063 103.358 45.9664 102.992 46.7348C102.624 47.5035 102.222 48.1212 101.785 48.5877C101.348 49.0539 100.877 49.2443 100.37 49.1578C100.09 49.1059 99.9109 48.8208 99.8322 48.3027C99.7535 47.7842 99.7409 47.1454 99.7928 46.385C99.8453 45.6248 99.9503 44.791 100.107 43.8843C100.265 42.9772 100.426 42.1178 100.592 41.3054C100.758 40.4936 100.912 39.7763 101.052 39.1546C101.191 38.5325 101.287 38.1179 101.34 37.9108C101.34 37.4098 101.225 37.0084 100.999 36.7055C100.772 36.4037 100.497 36.2133 100.173 36.1354C99.8491 36.0579 99.5172 36.1009 99.1771 36.265C98.8359 36.4294 98.5434 36.7276 98.2985 37.1589C98.211 37.6254 98.0972 38.1656 97.9578 38.7788C97.8178 39.3919 97.6828 40.0226 97.5515 40.6705C97.4203 41.3185 97.2978 41.9534 97.1846 42.5754C97.0709 43.1975 96.9878 43.7416 96.9353 44.2081C96.9003 44.5708 96.8609 45.016 96.8177 45.5426C96.7735 46.07 96.7516 46.6269 96.7516 47.2141C96.7516 47.802 96.7953 48.3849 96.8834 48.9635C96.9703 49.5425 97.1278 50.0738 97.3547 50.5571C97.5816 51.041 97.9009 51.4382 98.3121 51.7492C98.7222 52.0602 99.2422 52.2328 99.8716 52.2677C100.518 52.3019 101.082 52.2549 101.563 52.125C102.043 51.9954 102.48 51.7923 102.873 51.5158C103.267 51.2399 103.625 50.9115 103.948 50.5311C104.271 50.1514 104.59 49.7368 104.905 49.2874C105.202 49.9443 105.587 50.4535 106.058 50.8165C106.53 51.1791 107.028 51.3954 107.553 51.4642C108.077 51.5329 108.61 51.4602 109.152 51.2439C109.694 51.0282 110.183 50.661 110.62 50.1425C110.908 49.8246 111.179 49.4632 111.434 49.0638C111.542 49.2508 111.657 49.4313 111.787 49.598C112.215 50.1514 112.796 50.5311 113.53 50.7386C114.317 50.946 115.085 50.9809 115.837 50.8424C116.588 50.7044 117.305 50.4535 117.986 50.0909C118.668 49.7279 119.301 49.292 119.887 48.782C120.472 48.2724 120.984 47.7414 121.421 47.1882C121.403 47.5856 121.394 47.9617 121.394 48.3155C121.394 48.6699 121.386 49.0539 121.369 49.4688C120.494 50.0738 119.669 50.7994 118.891 51.6456C118.113 52.4919 117.431 53.3947 116.846 54.3536C116.26 55.3122 115.802 56.2843 115.47 57.2689C115.138 58.2541 114.976 59.1741 114.985 60.0296C114.994 60.8846 115.199 61.6316 115.601 62.2706C116.002 62.9102 116.658 63.3675 117.567 63.6442C118.511 63.9382 119.341 63.9463 120.058 63.6702C120.774 63.3936 121.399 62.9357 121.932 62.2967C122.465 61.6576 122.902 60.8846 123.243 59.9775C123.584 59.0705 123.854 58.1244 124.055 57.1398C124.256 56.1552 124.383 55.1869 124.436 54.2374C124.488 53.2869 124.488 52.4399 124.436 51.6973C125.939 51.0755 127.171 50.2894 128.132 49.339C129.093 48.3895 129.888 47.387 130.517 46.333C130.709 46.0739 130.775 45.7629 130.714 45.4002C130.653 45.0373 130.504 44.7263 130.269 44.4672Z" fill="#0D0C23"/>
<path fill-rule="evenodd" clip-rule="evenodd" d="M163.339 42.8094C163.392 42.4122 163.47 41.993 163.575 41.5525C163.68 41.1119 163.811 40.6842 163.968 40.2696C164.125 39.855 164.309 39.4967 164.519 39.1942C164.728 38.892 164.952 38.6761 165.187 38.5462C165.423 38.417 165.663 38.4298 165.908 38.585C166.17 38.7408 166.332 39.0689 166.393 39.5696C166.454 40.0713 166.393 40.6066 166.21 41.1767C166.026 41.7471 165.698 42.2823 165.227 42.7834C164.755 43.2848 164.117 43.6126 163.313 43.7681C163.278 43.5268 163.287 43.2069 163.339 42.8094ZM172.422 43.8716C172.134 43.7858 171.859 43.777 171.597 43.846C171.335 43.9151 171.168 44.0965 171.099 44.3905C170.959 44.9431 170.735 45.5089 170.43 46.0876C170.124 46.6666 169.748 47.2149 169.303 47.7334C168.858 48.2516 168.355 48.7096 167.796 49.1067C167.236 49.5042 166.651 49.7892 166.039 49.9618C165.427 50.1522 164.92 50.1736 164.519 50.0266C164.117 49.8803 163.798 49.6295 163.562 49.2754C163.326 48.9213 163.155 48.4936 163.051 47.9925C162.946 47.4914 162.885 46.9733 162.867 46.4374C163.863 46.5068 164.75 46.3299 165.528 45.9061C166.305 45.4833 166.965 44.9214 167.507 44.2218C168.049 43.5222 168.46 42.7361 168.739 41.8635C169.019 40.9913 169.176 40.123 169.211 39.259C169.229 38.4469 169.107 37.7604 168.844 37.1989C168.582 36.6376 168.228 36.2007 167.782 35.89C167.337 35.579 166.825 35.3975 166.249 35.3459C165.673 35.294 165.087 35.3719 164.492 35.579C163.775 35.821 163.168 36.2138 162.67 36.7583C162.172 37.3024 161.757 37.9334 161.425 38.6501C161.093 39.3671 160.831 40.1401 160.639 40.9693C160.447 41.7987 160.307 42.6151 160.22 43.4186C160.141 44.1396 160.099 44.829 160.084 45.4945C160.046 45.579 160.01 45.6602 159.97 45.7506C159.699 46.3644 159.384 46.9647 159.027 47.5519C158.668 48.1395 158.27 48.6319 157.834 49.0291C157.397 49.4266 156.943 49.5647 156.471 49.4437C156.191 49.375 156.038 49.0548 156.012 48.485C155.986 47.9146 156.016 47.2064 156.103 46.3598C156.191 45.5135 156.291 44.5973 156.405 43.6126C156.518 42.6279 156.575 41.6866 156.575 40.7881C156.575 40.0105 156.427 39.2636 156.13 38.5462C155.832 37.8298 155.426 37.2334 154.911 36.7583C154.395 36.2829 153.796 35.9676 153.115 35.8125C152.433 35.6566 151.7 35.7605 150.913 36.1231C150.126 36.4861 149.501 36.9957 149.039 37.6522C148.575 38.3091 148.151 38.9999 147.767 39.7255C147.627 39.1725 147.422 38.659 147.151 38.1835C146.88 37.7085 146.548 37.2939 146.155 36.9395C145.761 36.5857 145.32 36.3092 144.831 36.1103C144.342 35.9121 143.826 35.8125 143.284 35.8125C142.76 35.8125 142.275 35.9121 141.829 36.1103C141.384 36.3092 140.978 36.5637 140.61 36.8747C140.243 37.186 139.911 37.5355 139.614 37.9245C139.317 38.3131 139.054 38.6978 138.828 39.0775C138.792 38.6284 138.753 38.2355 138.71 37.8981C138.666 37.5615 138.587 37.2765 138.474 37.0434C138.36 36.8099 138.199 36.6331 137.989 36.512C137.779 36.3914 137.482 36.3306 137.098 36.3306C136.905 36.3306 136.713 36.3694 136.521 36.447C136.328 36.5249 136.158 36.6331 136.009 36.7711C135.861 36.9099 135.748 37.0779 135.669 37.2765C135.59 37.4751 135.569 37.7042 135.603 37.9632C135.621 38.1536 135.669 38.3822 135.748 38.6501C135.826 38.918 135.9 39.2682 135.97 39.6995C136.04 40.1316 136.097 40.6543 136.141 41.2675C136.184 41.881 136.197 42.6325 136.18 43.5222C136.162 44.4122 136.097 45.4527 135.983 46.6448C135.869 47.837 135.69 49.2191 135.446 50.791C135.411 51.154 135.551 51.4479 135.866 51.6725C136.18 51.8967 136.538 52.0262 136.94 52.061C137.342 52.0956 137.723 52.0262 138.081 51.8539C138.439 51.6806 138.644 51.3785 138.696 50.9468C138.749 50.1348 138.849 49.2711 138.998 48.3551C139.146 47.4398 139.33 46.5327 139.549 45.6342C139.767 44.736 140.016 43.8809 140.296 43.0684C140.575 42.2564 140.886 41.5397 141.226 40.9176C141.568 40.2956 141.921 39.7991 142.288 39.4276C142.655 39.0561 143.039 38.8703 143.442 38.8703C143.931 38.8703 144.311 39.0903 144.582 39.5309C144.853 39.9717 145.045 40.5379 145.159 41.2283C145.272 41.9197 145.325 42.6759 145.316 43.4962C145.307 44.3168 145.272 45.1072 145.211 45.8673C145.15 46.6277 145.08 47.3057 145.001 47.9018C144.923 48.4978 144.866 48.9085 144.831 49.1327C144.831 49.5302 144.984 49.8452 145.29 50.0786C145.595 50.3116 145.936 50.4501 146.312 50.4932C146.688 50.5366 147.041 50.4672 147.374 50.2857C147.706 50.1042 147.898 49.7981 147.951 49.3658C148.125 48.122 148.366 46.874 148.671 45.6214C148.977 44.3688 149.327 43.246 149.72 42.2524C150.113 41.2589 150.55 40.4468 151.031 39.8163C151.511 39.186 152.023 38.8703 152.565 38.8703C152.844 38.8703 153.058 39.0607 153.206 39.4404C153.355 39.8205 153.43 40.3387 153.43 40.9952C153.43 41.4792 153.39 41.9759 153.312 42.4855C153.233 42.9952 153.141 43.5222 153.036 44.0663C152.931 44.6107 152.84 45.1677 152.761 45.7378C152.683 46.3082 152.643 46.9039 152.643 47.526C152.643 47.958 152.687 48.459 152.775 49.0291C152.861 49.5989 153.027 50.1394 153.272 50.6486C153.517 51.1586 153.853 51.5903 154.282 51.9444C154.71 52.2984 155.256 52.4757 155.92 52.4757C156.916 52.4757 157.798 52.2639 158.568 51.8408C159.337 51.4177 159.997 50.865 160.547 50.1825C160.576 50.1466 160.602 50.1085 160.63 50.073C160.672 50.1739 160.709 50.2808 160.757 50.3767C161.132 51.1369 161.643 51.7241 162.29 52.139C162.937 52.5536 163.697 52.7824 164.571 52.8258C165.445 52.8685 166.397 52.7088 167.429 52.3461C168.197 52.0696 168.866 51.724 169.434 51.3095C170.002 50.8949 170.513 50.3896 170.967 49.7935C171.422 49.1974 171.837 48.5106 172.213 47.7334C172.589 46.9556 172.969 46.0662 173.353 45.0638C173.423 44.788 173.357 44.5417 173.157 44.3254C172.955 44.1097 172.711 43.9584 172.422 43.8716Z" fill="#0D0C23"/>
<path fill-rule="evenodd" clip-rule="evenodd" d="M186.67 40.9809C186.582 41.4908 186.465 42.0527 186.316 42.6655C186.167 43.279 185.98 43.9139 185.752 44.5705C185.526 45.227 185.246 45.8188 184.914 46.3455C184.582 46.8728 184.201 47.2913 183.774 47.6024C183.345 47.9134 182.852 48.0429 182.292 47.991C182.012 47.9568 181.798 47.7668 181.65 47.4209C181.501 47.0757 181.423 46.6348 181.414 46.0992C181.405 45.564 181.453 44.9764 181.558 44.337C181.663 43.6982 181.824 43.0716 182.044 42.4581C182.262 41.8452 182.528 41.2791 182.842 40.7606C183.157 40.2425 183.52 39.8407 183.931 39.5557C184.341 39.2706 184.792 39.1372 185.281 39.1539C185.77 39.1713 186.294 39.4129 186.854 39.8795C186.818 40.1044 186.757 40.4716 186.67 40.9809ZM195.989 42.9634C195.718 42.8253 195.439 42.7954 195.151 42.873C194.863 42.9505 194.657 43.2142 194.535 43.6634C194.465 44.1473 194.308 44.7171 194.063 45.3736C193.818 46.0302 193.516 46.6526 193.159 47.2394C192.8 47.8269 192.389 48.3152 191.926 48.7037C191.463 49.0927 190.969 49.2699 190.446 49.2347C190.008 49.2005 189.702 48.9802 189.528 48.5743C189.353 48.1682 189.261 47.6589 189.252 47.0451C189.243 46.4323 189.305 45.7412 189.436 44.9722C189.567 44.2035 189.724 43.4391 189.908 42.6783C190.091 41.9185 190.279 41.1883 190.472 40.4887C190.664 39.7891 190.821 39.1973 190.944 38.7137C191.083 38.2817 191.039 37.9148 190.812 37.612C190.585 37.3101 190.301 37.0938 189.961 36.9643C189.619 36.8347 189.274 36.8002 188.924 36.8607C188.575 36.9212 188.348 37.107 188.243 37.4176C187.212 36.5365 186.22 36.0614 185.268 35.9924C184.315 35.9234 183.437 36.1308 182.633 36.6144C181.829 37.0981 181.117 37.7977 180.497 38.7137C179.876 39.6296 179.374 40.6271 178.989 41.7068C178.604 42.7865 178.364 43.8882 178.268 45.011C178.172 46.134 178.246 47.1579 178.491 48.0821C178.736 49.0062 179.168 49.7624 179.789 50.3493C180.409 50.9368 181.252 51.2307 182.319 51.2307C182.79 51.2307 183.245 51.1357 183.682 50.9457C184.118 50.7553 184.521 50.5308 184.887 50.2717C185.254 50.0126 185.577 49.7404 185.858 49.4554C186.137 49.1703 186.356 48.9329 186.513 48.7426C186.635 49.3646 186.836 49.8919 187.116 50.3237C187.395 50.7553 187.714 51.11 188.072 51.3859C188.431 51.6621 188.807 51.8652 189.2 51.9951C189.593 52.1246 189.974 52.1894 190.34 52.1894C191.162 52.1894 191.93 51.9129 192.647 51.3599C193.364 50.8076 194.006 50.129 194.574 49.3258C195.142 48.5223 195.61 47.676 195.976 46.786C196.344 45.8964 196.588 45.106 196.711 44.4146C196.833 44.1555 196.811 43.8836 196.645 43.5986C196.479 43.3135 196.261 43.1021 195.989 42.9634Z" fill="#0D0C23"/>
<path fill-rule="evenodd" clip-rule="evenodd" d="M243.178 57.2706C243.03 57.8575 242.798 58.355 242.483 58.7608C242.169 59.1666 241.775 59.3781 241.303 59.396C241.007 59.4128 240.779 59.2572 240.622 58.9295C240.465 58.6007 240.355 58.1776 240.294 57.6595C240.233 57.1409 240.207 56.5621 240.215 55.923C240.224 55.284 240.25 54.6531 240.294 54.0312C240.337 53.4095 240.39 52.8302 240.452 52.295C240.512 51.7591 240.56 51.3451 240.595 51.0512C241.19 51.1202 241.684 51.3747 242.077 51.8156C242.47 52.2561 242.772 52.7786 242.981 53.3835C243.191 53.9881 243.313 54.6406 243.348 55.3399C243.383 56.0397 243.326 56.6831 243.178 57.2706ZM233.688 57.2706C233.54 57.8575 233.308 58.355 232.993 58.7608C232.679 59.1666 232.285 59.3781 231.813 59.396C231.517 59.4128 231.29 59.2572 231.132 58.9295C230.975 58.6007 230.865 58.1776 230.805 57.6595C230.743 57.1409 230.717 56.5621 230.726 55.923C230.734 55.284 230.76 54.6531 230.805 54.0312C230.848 53.4095 230.9 52.8302 230.962 52.295C231.023 51.7591 231.07 51.3451 231.106 51.0512C231.7 51.1202 232.194 51.3747 232.587 51.8156C232.98 52.2561 233.282 52.7786 233.492 53.3835C233.701 53.9881 233.823 54.6406 233.858 55.3399C233.893 56.0397 233.836 56.6831 233.688 57.2706ZM223.95 42.5511C223.931 42.9653 223.892 43.3326 223.831 43.6522C223.77 43.9724 223.687 44.1749 223.582 44.2614C223.39 44.1575 223.153 43.8902 222.874 43.4579C222.595 43.0262 222.376 42.5376 222.218 41.9935C222.061 41.4494 222.013 40.9142 222.075 40.3868C222.135 39.8601 222.411 39.4501 222.9 39.1559C223.092 39.0523 223.258 39.0911 223.398 39.2726C223.538 39.4541 223.652 39.7174 223.74 40.0629C223.826 40.4088 223.887 40.806 223.923 41.2551C223.958 41.7045 223.966 42.1362 223.95 42.5511ZM221.629 47.7211C221.358 48.0058 221.056 48.252 220.725 48.4595C220.392 48.667 220.051 48.8224 219.702 48.926C219.352 49.0299 219.038 49.0555 218.758 49.0036C217.972 48.8484 217.369 48.5111 216.95 47.993C216.53 47.4748 216.263 46.8659 216.15 46.1663C216.036 45.4663 216.049 44.719 216.189 43.9244C216.329 43.1298 216.565 42.3913 216.897 41.7088C217.229 41.0262 217.631 40.4387 218.103 39.9466C218.575 39.4541 219.09 39.1477 219.65 39.0263C219.44 39.9074 219.37 40.8191 219.44 41.7604C219.51 42.702 219.737 43.5874 220.121 44.4165C220.366 44.9183 220.659 45.3756 221 45.7902C221.341 46.2051 221.756 46.5592 222.245 46.8528C222.105 47.1467 221.9 47.436 221.629 47.7211ZM250.636 42.8102C250.689 42.413 250.767 41.9935 250.872 41.5529C250.977 41.1127 251.108 40.685 251.265 40.2704C251.422 39.8555 251.606 39.4971 251.816 39.195C252.026 38.8929 252.248 38.6765 252.484 38.547C252.72 38.4174 252.96 38.4303 253.205 38.5858C253.467 38.7416 253.629 39.0697 253.69 39.5704C253.751 40.0718 253.69 40.6071 253.507 41.1775C253.323 41.7476 252.995 42.2832 252.524 42.7839C252.052 43.2856 251.414 43.6134 250.61 43.7689C250.575 43.5272 250.584 43.2077 250.636 42.8102ZM261.201 42.8102C261.254 42.413 261.332 41.9935 261.437 41.5529C261.542 41.1127 261.673 40.685 261.831 40.2704C261.987 39.8555 262.171 39.4971 262.381 39.195C262.591 38.8929 262.814 38.6765 263.049 38.547C263.286 38.4174 263.526 38.4303 263.77 38.5858C264.032 38.7416 264.194 39.0697 264.255 39.5704C264.316 40.0718 264.255 40.6071 264.072 41.1775C263.888 41.7476 263.561 42.2832 263.089 42.7839C262.617 43.2856 261.979 43.6134 261.175 43.7689C261.14 43.5272 261.149 43.2077 261.201 42.8102ZM271.019 44.3262C270.818 44.1105 270.573 43.9592 270.285 43.8724C269.996 43.7863 269.721 43.7778 269.459 43.8468C269.197 43.9158 269.03 44.0973 268.961 44.3909C268.821 44.9439 268.598 45.5097 268.292 46.088C267.986 46.6674 267.611 47.2158 267.165 47.7339C266.719 48.252 266.217 48.7103 265.658 49.1075C265.098 49.505 264.513 49.7901 263.902 49.9623C263.289 50.153 262.782 50.1743 262.381 50.0274C261.979 49.8808 261.66 49.6302 261.424 49.2762C261.188 48.9218 261.018 48.4943 260.912 47.993C260.808 47.4923 260.746 46.9741 260.729 46.4382C261.726 46.5075 262.612 46.3307 263.39 45.9069C264.167 45.4838 264.827 44.9219 265.37 44.2223C265.911 43.523 266.322 42.7368 266.601 41.8643C266.881 40.9917 267.038 40.1238 267.074 39.2597C267.091 38.4477 266.968 37.7609 266.706 37.1993C266.444 36.6381 266.091 36.2015 265.645 35.8908C265.199 35.5795 264.688 35.3983 264.111 35.3464C263.534 35.2944 262.949 35.3727 262.354 35.5795C261.637 35.8217 261.031 36.2147 260.533 36.7588C260.035 37.3032 259.619 37.9341 259.287 38.6505C258.955 39.3679 258.693 40.1405 258.501 40.97C258.308 41.7992 258.169 42.6159 258.082 43.4191C257.996 44.1986 257.95 44.9446 257.94 45.6587C257.874 45.801 257.803 45.9441 257.727 46.088C257.421 46.6674 257.046 47.2158 256.6 47.7339C256.155 48.252 255.652 48.7103 255.093 49.1075C254.534 49.505 253.948 49.7901 253.337 49.9623C252.724 50.153 252.218 50.1743 251.816 50.0274C251.414 49.8808 251.095 49.6302 250.859 49.2762C250.624 48.9218 250.453 48.4943 250.348 47.993C250.243 47.4923 250.182 46.9741 250.164 46.4382C251.16 46.5075 252.047 46.3307 252.825 45.9069C253.602 45.4838 254.262 44.9219 254.804 44.2223C255.346 43.523 255.757 42.7368 256.036 41.8643C256.316 40.9917 256.474 40.1238 256.508 39.2597C256.526 38.4477 256.404 37.7609 256.142 37.1993C255.879 36.6381 255.525 36.2015 255.079 35.8908C254.634 35.5795 254.123 35.3983 253.546 35.3464C252.969 35.2944 252.384 35.3727 251.79 35.5795C251.072 35.8217 250.465 36.2147 249.968 36.7588C249.47 37.3032 249.054 37.9341 248.722 38.6505C248.39 39.3679 248.129 40.1405 247.936 40.97C247.744 41.7992 247.604 42.6159 247.517 43.4191C247.467 43.8721 247.434 44.3113 247.409 44.7427C247.241 44.8848 247.076 45.0278 246.9 45.1681C246.298 45.6521 245.664 46.088 245 46.477C244.335 46.8659 243.645 47.1855 242.929 47.436C242.212 47.6865 241.478 47.8378 240.727 47.8894L242.352 30.6817C242.457 30.3187 242.405 29.9995 242.195 29.723C241.985 29.4465 241.714 29.2565 241.382 29.1529C241.05 29.0491 240.696 29.0579 240.32 29.1786C239.944 29.2999 239.635 29.5764 239.39 30.0077C239.267 30.6646 239.14 31.5628 239.01 32.703C238.878 33.8432 238.747 35.0873 238.617 36.4349C238.485 37.7826 238.354 39.1733 238.223 40.607C238.092 42.0415 237.978 43.3803 237.882 44.624C237.878 44.6793 237.875 44.7292 237.87 44.7838C237.717 44.912 237.569 45.0412 237.41 45.1681C236.808 45.6521 236.174 46.088 235.51 46.477C234.845 46.8659 234.155 47.1855 233.439 47.436C232.722 47.6865 231.988 47.8378 231.237 47.8894L232.862 30.6817C232.967 30.3187 232.915 29.9995 232.705 29.723C232.495 29.4465 232.224 29.2565 231.892 29.1529C231.56 29.0491 231.206 29.0579 230.83 29.1786C230.455 29.2999 230.145 29.5764 229.9 30.0077C229.777 30.6646 229.651 31.5628 229.52 32.703C229.388 33.8432 229.258 35.0873 229.127 36.4349C228.995 37.7826 228.865 39.1733 228.733 40.607C228.603 42.0415 228.488 43.3803 228.393 44.624C228.391 44.649 228.389 44.6717 228.387 44.6967C228.112 44.8226 227.813 44.9331 227.488 45.0258C227.156 45.1211 226.78 45.1773 226.361 45.1945C226.431 44.8831 226.487 44.5376 226.531 44.1575C226.575 43.7778 226.61 43.3803 226.636 42.9653C226.663 42.5511 226.671 42.1362 226.663 41.7216C226.653 41.3067 226.632 40.927 226.597 40.5811C226.509 39.8387 226.348 39.1345 226.112 38.4691C225.876 37.8043 225.557 37.2473 225.155 36.7976C224.753 36.3484 224.251 36.046 223.647 35.8908C223.045 35.7353 222.341 35.7869 221.538 36.046C220.348 35.8908 219.278 35.999 218.326 36.3701C217.373 36.742 216.547 37.2815 215.848 37.9897C215.149 38.6985 214.577 39.5316 214.131 40.4907C213.686 41.4494 213.388 42.4344 213.24 43.4447C213.177 43.8731 213.147 44.2995 213.137 44.7249C212.867 45.2727 212.57 45.7514 212.244 46.1531C211.781 46.7232 211.3 47.1898 210.802 47.5524C210.304 47.9153 209.81 48.1918 209.321 48.3819C208.831 48.5722 208.394 48.7018 208.01 48.7705C207.556 48.857 207.119 48.8658 206.699 48.7965C206.28 48.7278 205.895 48.5288 205.546 48.2004C205.266 47.9587 205.052 47.5698 204.904 47.0342C204.755 46.4987 204.668 45.8901 204.642 45.2073C204.616 44.5247 204.642 43.8119 204.72 43.0692C204.799 42.3266 204.934 41.6223 205.126 40.9572C205.319 40.2921 205.563 39.6961 205.861 39.1687C206.157 38.6423 206.507 38.2662 206.909 38.0416C207.136 38.0765 207.276 38.21 207.329 38.4431C207.381 38.6765 207.394 38.953 207.368 39.2726C207.342 39.5924 207.303 39.9206 207.25 40.2573C207.198 40.5942 207.171 40.8754 207.171 41.0996C207.259 41.5661 207.429 41.9291 207.683 42.1881C207.936 42.4472 208.22 42.5988 208.534 42.6415C208.849 42.6849 209.159 42.6116 209.466 42.4212C209.771 42.2315 210.02 41.9291 210.213 41.5141C210.229 41.5316 210.256 41.5401 210.291 41.5401L210.658 38.2491C210.763 37.7996 210.693 37.4025 210.448 37.057C210.203 36.7114 209.88 36.5125 209.478 36.4609C208.971 35.7353 208.285 35.351 207.42 35.3076C206.555 35.2645 205.668 35.5452 204.759 36.1499C204.2 36.5477 203.706 37.0958 203.278 37.7954C202.849 38.4954 202.501 39.2726 202.23 40.1277C201.958 40.9828 201.766 41.886 201.653 42.8362C201.539 43.7863 201.517 44.7108 201.587 45.6087C201.657 46.5075 201.819 47.3541 202.072 48.1484C202.326 48.9435 202.679 49.6085 203.134 50.1438C203.519 50.6103 203.955 50.9519 204.444 51.1679C204.934 51.3839 205.445 51.5174 205.978 51.5693C206.511 51.621 207.04 51.5993 207.564 51.5046C208.089 51.4099 208.587 51.2761 209.059 51.1028C209.67 50.8786 210.3 50.5932 210.946 50.2477C211.593 49.9025 212.213 49.4876 212.808 49.0036C213.12 48.7491 213.421 48.4717 213.712 48.1741C213.844 48.4989 213.992 48.8133 214.171 49.1075C214.643 49.8847 215.28 50.5156 216.084 50.9992C216.888 51.4829 217.876 51.7157 219.046 51.6989C220.305 51.6815 221.467 51.3665 222.533 50.753C223.6 50.1402 224.473 49.2367 225.155 48.0449C226.176 48.0449 227.18 47.8786 228.168 47.5481C228.16 47.6527 228.151 47.7628 228.143 47.8637C228.074 48.7794 228.038 49.4011 228.038 49.7295C228.021 50.2996 227.982 51.0035 227.921 51.8412C227.86 52.6793 227.82 53.5604 227.803 54.4844C227.786 55.4088 227.82 56.3418 227.908 57.2836C227.995 58.2248 228.178 59.0803 228.458 59.8495C228.737 60.6177 229.135 61.2703 229.651 61.8063C230.166 62.3412 230.843 62.6612 231.683 62.7649C232.574 62.8853 233.343 62.7301 233.99 62.2983C234.636 61.866 235.16 61.2747 235.563 60.5233C235.965 59.7714 236.248 58.9035 236.415 57.9188C236.58 56.9337 236.628 55.9447 236.559 54.9509C236.488 53.9576 236.305 53.0205 236.008 52.1398C235.711 51.2583 235.3 50.5327 234.776 49.9623C235.091 49.8765 235.466 49.7124 235.903 49.4701C236.34 49.2285 236.79 48.9563 237.253 48.6538C237.367 48.5795 237.479 48.5012 237.593 48.4249C237.55 49.0371 237.528 49.4737 237.528 49.7295C237.512 50.2996 237.472 51.0035 237.41 51.8412C237.35 52.6793 237.31 53.5604 237.293 54.4844C237.275 55.4088 237.31 56.3418 237.398 57.2836C237.485 58.2248 237.668 59.0803 237.948 59.8495C238.227 60.6177 238.625 61.2703 239.14 61.8063C239.656 62.3412 240.334 62.6612 241.173 62.7649C242.064 62.8853 242.832 62.7301 243.479 62.2983C244.126 61.866 244.65 61.2747 245.052 60.5233C245.454 59.7714 245.738 58.9035 245.904 57.9188C246.07 56.9337 246.118 55.9447 246.049 54.9509C245.979 53.9576 245.795 53.0205 245.498 52.1398C245.2 51.2583 244.79 50.5327 244.265 49.9623C244.58 49.8765 244.956 49.7124 245.393 49.4701C245.83 49.2285 246.28 48.9563 246.744 48.6538C246.984 48.4967 247.223 48.3346 247.462 48.1679C247.552 49.0128 247.745 49.7539 248.054 50.3772C248.43 51.1377 248.94 51.7249 249.587 52.1398C250.234 52.554 250.994 52.7832 251.869 52.8262C252.742 52.869 253.694 52.7095 254.726 52.3466C255.495 52.0704 256.163 51.7249 256.731 51.3103C257.299 50.8954 257.81 50.39 258.265 49.7943C258.291 49.7598 258.316 49.7223 258.341 49.6875C258.422 49.9294 258.512 50.1619 258.619 50.3772C258.995 51.1377 259.506 51.7249 260.152 52.1398C260.799 52.554 261.559 52.7832 262.433 52.8262C263.307 52.869 264.259 52.7095 265.291 52.3466C266.06 52.0704 266.728 51.7249 267.296 51.3103C267.864 50.8954 268.375 50.39 268.83 49.7943C269.284 49.1979 269.699 48.5111 270.075 47.7339C270.451 46.9563 270.831 46.067 271.216 45.0646C271.285 44.7884 271.219 44.5422 271.019 44.3262Z" fill="#0D0C23"/>
</g>
<defs>
<clipPath id="clip0_68_84">
<rect width="298" height="83" fill="white"/>
</clipPath>
</defs>
</svg>
