<svg width="588" height="588" viewBox="0 0 588 588" fill="none" xmlns="http://www.w3.org/2000/svg">
<g clip-path="url(#clip0_13_370)">
<path d="M285.058 227.604L214.262 431.726C209.374 445.818 193.942 453.263 179.792 448.355L60.2308 406.887C46.0806 401.979 38.573 386.577 43.4604 372.486L114.257 168.364L285.058 227.604ZM514.553 362.814L557.838 238.015C563.291 222.293 554.966 205.129 539.244 199.676L377.932 143.727C362.21 138.273 345.045 146.598 339.592 162.32L296.307 287.118C290.854 302.841 299.179 320.005 314.901 325.458L476.213 381.407C491.935 386.861 509.1 378.536 514.553 362.814Z" fill="#636363"/>
<path d="M162.08 398.276L105.146 378.53C94.6644 374.894 89.1149 363.451 92.7504 352.969L145.165 201.846L240.054 234.757L187.639 385.881C184.005 396.362 172.562 401.912 162.08 398.276ZM491.109 332.331L520.554 247.435C524.189 236.953 518.64 225.51 508.158 221.875L388.597 180.407C378.115 176.771 366.672 182.321 363.037 192.802L333.592 277.698C329.956 288.18 335.506 299.623 345.987 303.258L465.548 344.726C476.03 348.362 487.474 342.812 491.109 332.331Z" fill="#7C7C7C"/>
<path d="M526.015 243.948L511.266 286.474C509.455 291.693 503.74 294.45 498.499 292.633C493.259 290.815 490.478 285.111 492.288 279.892L507.038 237.366C507.941 234.761 506.548 231.902 503.933 230.995L461.232 216.185C455.992 214.368 453.211 208.663 455.021 203.444C456.831 198.225 462.547 195.467 467.788 197.285L510.488 212.095C523.567 216.633 530.533 230.922 526.015 243.948ZM420.342 180.831L418.444 180.172C413.203 178.355 407.488 181.113 405.678 186.332C403.867 191.551 406.648 197.255 411.888 199.073L413.786 199.731C419.027 201.549 424.742 198.791 426.552 193.572C428.363 188.352 425.582 182.648 420.342 180.831Z" fill="#B5B5B5"/>
<path d="M167.341 352.46C165.531 357.679 159.815 360.437 154.575 358.619L135.597 352.037C130.356 350.219 127.576 344.515 129.386 339.296C131.196 334.076 136.912 331.319 142.152 333.136L161.13 339.719C166.37 341.536 169.151 347.241 167.341 352.46ZM330.716 218.56L311.304 211.828C324.884 157.183 294.583 100.159 240.136 81.2747C182.49 61.2811 119.616 91.6129 99.7041 149.023C79.7921 206.434 110.382 269.183 168.029 289.177C222.476 308.061 281.578 282.046 304.75 230.728L324.162 237.46C329.402 239.278 335.118 236.52 336.928 231.301C338.738 226.082 335.957 220.378 330.716 218.56Z" fill="#3A3F3F"/>
<path d="M279.994 211.554C265.512 253.307 219.786 275.368 177.861 260.827C135.937 246.286 113.69 200.651 128.171 158.897C142.653 117.143 188.379 95.0839 230.304 109.625C272.228 124.166 294.475 169.801 279.994 211.554Z" fill="#A5DDD3"/>
<path d="M261.016 204.972C250.155 236.287 215.86 252.832 184.416 241.926C152.972 231.02 136.287 196.794 147.148 165.479C158.009 134.164 192.304 117.619 223.747 128.525C255.191 139.431 271.877 173.657 261.016 204.972Z" fill="#7EC1B4"/>
<path d="M198.215 140.843C193.69 153.891 179.4 160.786 166.298 156.242C153.197 151.698 146.245 137.437 150.77 124.388C155.296 111.339 169.585 104.446 182.687 108.99C195.789 113.534 202.74 127.796 198.215 140.843Z" fill="#B5F7CC"/>
<path d="M251.527 201.681C242.491 227.735 213.855 241.549 187.695 232.476C182.454 230.658 179.673 224.954 181.484 219.735C183.294 214.516 189.009 211.758 194.25 213.575C209.947 219.02 227.127 210.731 232.549 195.099C237.971 179.467 229.612 162.32 213.915 156.876C208.675 155.058 205.894 149.354 207.704 144.135C209.515 138.916 215.23 136.158 220.471 137.975C246.631 147.048 260.564 175.627 251.527 201.681Z" fill="white"/>
</g>
<defs>
<clipPath id="clip0_13_370">
<rect width="462" height="462" fill="white" transform="translate(151.391) rotate(19.1283)"/>
</clipPath>
</defs>
</svg>
