<svg width="343" height="343" viewBox="0 0 343 343" fill="none" xmlns="http://www.w3.org/2000/svg">
<g clip-path="url(#clip0_13_340)">
<path fill-rule="evenodd" clip-rule="evenodd" d="M137.851 34.714L143.528 16.6178C145.393 10.6253 149.563 5.61967 155.119 2.70263C160.676 -0.214411 167.165 -0.803703 173.156 1.06448L308.641 43.289C321.102 47.1944 328.057 60.4428 324.194 72.9171L257.309 287.469C254.173 297.696 244.517 304.506 233.831 304.028L137.851 34.714Z" fill="#3B97D3"/>
<path fill-rule="evenodd" clip-rule="evenodd" d="M206.983 318.872L208.52 319.108C221.441 320.854 233.35 311.849 235.191 298.942L265.884 76.2879C267.629 63.3675 258.625 51.4584 245.718 49.6167L105.088 30.2195C98.8685 29.361 92.5629 31.0102 87.5602 34.8038C82.5575 38.5974 79.2681 44.2242 78.4167 50.4446L75.5781 70.9655L206.983 318.872Z" fill="#84B5CB"/>
<path d="M183.328 70.9655H41.3965C28.3321 70.9655 17.7413 81.5563 17.7413 94.6207L17.7413 319.345C17.7413 332.409 28.3321 343 41.3965 343H183.328C196.392 343 206.983 332.409 206.983 319.345V94.6207C206.983 81.5563 196.392 70.9655 183.328 70.9655Z" fill="#ECF0F1"/>
<path fill-rule="evenodd" clip-rule="evenodd" d="M112.362 175.64C120.138 165.557 132.155 159.657 144.888 159.672C164.143 159.672 177.414 176.065 177.414 195.155C177.414 217.249 159.323 243.4 112.362 266.121C65.4006 243.4 47.3103 217.249 47.3103 195.155C47.3103 176.065 60.5809 159.672 79.8362 159.672C92.5689 159.657 104.587 165.557 112.362 175.64Z" fill="#E64C3C"/>
<path fill-rule="evenodd" clip-rule="evenodd" d="M59.1378 100.534H41.3965C38.1304 100.534 35.4827 97.8868 35.4827 94.6207C35.4827 91.3546 38.1304 88.7069 41.3965 88.7069H59.1378C62.4039 88.7069 65.0516 91.3546 65.0516 94.6207C65.0516 97.8868 62.4039 100.534 59.1378 100.534Z" fill="#C03A2B"/>
<path fill-rule="evenodd" clip-rule="evenodd" d="M183.328 325.259H165.586C162.32 325.259 159.672 322.611 159.672 319.345C159.672 316.079 162.32 313.431 165.586 313.431H183.328C186.594 313.431 189.241 316.079 189.241 319.345C189.241 322.611 186.594 325.259 183.328 325.259Z" fill="#C03A2B"/>
</g>
<defs>
<clipPath id="clip0_13_340">
<rect width="343" height="343" fill="white"/>
</clipPath>
</defs>
</svg>
