<svg width="332" height="332" viewBox="0 0 332 332" fill="none" xmlns="http://www.w3.org/2000/svg">
<path d="M235.167 27.6667H96.8333C58.6336 27.6667 27.6666 58.6336 27.6666 96.8333V235.167C27.6666 273.366 58.6336 304.333 96.8333 304.333H235.167C273.366 304.333 304.333 273.366 304.333 235.167V96.8333C304.333 58.6336 273.366 27.6667 235.167 27.6667Z" fill="url(#paint0_linear_13_332)"/>
<g opacity="0.9">
<path d="M124.5 204.042C123.137 204.042 121.788 203.774 120.529 203.253C119.269 202.732 118.125 201.969 117.161 201.005L89.4947 173.339C88.5306 172.375 87.7658 171.231 87.244 169.972C86.7222 168.713 86.4536 167.363 86.4536 166C86.4536 164.637 86.7222 163.287 87.244 162.028C87.7658 160.769 88.5306 159.625 89.4947 158.661L117.161 130.995C119.108 129.048 121.747 127.955 124.5 127.955C127.252 127.955 129.892 129.048 131.839 130.995C133.785 132.941 134.878 135.581 134.878 138.333C134.878 141.086 133.785 143.726 131.839 145.672L111.504 166L131.839 186.328C133.29 187.779 134.279 189.628 134.68 191.641C135.081 193.655 134.875 195.741 134.09 197.638C133.304 199.534 131.974 201.155 130.266 202.295C128.559 203.435 126.553 204.043 124.5 204.042Z" fill="white"/>
</g>
<g opacity="0.9">
<path d="M207.5 204.042C205.447 204.043 203.44 203.435 201.733 202.295C200.026 201.155 198.696 199.534 197.91 197.638C197.125 195.741 196.919 193.655 197.32 191.641C197.721 189.628 198.709 187.779 200.161 186.328L220.496 166L200.161 145.672C199.198 144.708 198.433 143.564 197.912 142.305C197.39 141.046 197.122 139.696 197.122 138.333C197.122 136.97 197.39 135.621 197.912 134.362C198.433 133.103 199.198 131.958 200.161 130.995C202.108 129.048 204.747 127.955 207.5 127.955C208.863 127.955 210.212 128.223 211.472 128.745C212.731 129.267 213.875 130.031 214.839 130.995L242.505 158.661C243.469 159.625 244.234 160.769 244.756 162.028C245.278 163.287 245.546 164.637 245.546 166C245.546 167.363 245.278 168.713 244.756 169.972C244.234 171.231 243.469 172.375 242.505 173.339L214.839 201.005C213.875 201.969 212.73 202.732 211.471 203.253C210.212 203.774 208.863 204.042 207.5 204.042Z" fill="white"/>
</g>
<g opacity="0.5">
<path d="M152.167 224.792C151.2 224.79 150.239 224.655 149.31 224.391C146.665 223.634 144.429 221.859 143.093 219.454C141.757 217.049 141.431 214.212 142.186 211.567L169.853 114.734C170.205 113.4 170.82 112.149 171.662 111.056C172.504 109.963 173.555 109.048 174.755 108.366C175.954 107.684 177.278 107.248 178.648 107.084C180.018 106.919 181.407 107.03 182.733 107.409C184.06 107.788 185.298 108.428 186.374 109.291C187.451 110.155 188.344 111.224 189.002 112.437C189.66 113.65 190.07 114.981 190.207 116.354C190.344 117.727 190.206 119.114 189.8 120.433L162.134 217.266C161.515 219.433 160.207 221.339 158.409 222.697C156.611 224.054 154.42 224.79 152.167 224.792Z" fill="white"/>
</g>
<defs>
<linearGradient id="paint0_linear_13_332" x1="59.5455" y1="59.5456" x2="280.948" y2="280.948" gradientUnits="userSpaceOnUse">
<stop stop-color="#9B8DFF"/>
<stop offset="0.252" stop-color="#7D79FD"/>
<stop offset="0.555" stop-color="#5F65FB"/>
<stop offset="0.815" stop-color="#4D58F9"/>
<stop offset="1" stop-color="#4654F9"/>
</linearGradient>
</defs>
</svg>
