<svg width="1101" height="794" viewBox="0 0 1101 794" fill="none" xmlns="http://www.w3.org/2000/svg">
<path d="M468.167 38.6667H329.833C291.634 38.6667 260.667 69.6336 260.667 107.833V246.167C260.667 284.366 291.634 315.333 329.833 315.333H468.167C506.366 315.333 537.333 284.366 537.333 246.167V107.833C537.333 69.6336 506.366 38.6667 468.167 38.6667Z" fill="url(#paint0_linear_409_2)"/>
<g opacity="0.9">
<path d="M357.5 215.042C356.137 215.042 354.788 214.774 353.529 214.253C352.269 213.732 351.125 212.969 350.161 212.005L322.495 184.339C321.531 183.375 320.766 182.231 320.244 180.972C319.722 179.713 319.454 178.363 319.454 177C319.454 175.637 319.722 174.287 320.244 173.028C320.766 171.769 321.531 170.625 322.495 169.661L350.161 141.995C352.108 140.048 354.747 138.955 357.5 138.955C360.252 138.955 362.892 140.048 364.839 141.995C366.785 143.941 367.878 146.581 367.878 149.333C367.878 152.086 366.785 154.726 364.839 156.672L344.504 177L364.839 197.328C366.29 198.779 367.279 200.628 367.68 202.641C368.081 204.655 367.875 206.741 367.09 208.638C366.304 210.534 364.974 212.155 363.266 213.295C361.559 214.435 359.553 215.043 357.5 215.042Z" fill="white"/>
</g>
<g opacity="0.9">
<path d="M440.5 215.042C438.447 215.043 436.44 214.435 434.733 213.295C433.026 212.155 431.696 210.534 430.91 208.638C430.125 206.741 429.919 204.655 430.32 202.641C430.721 200.628 431.709 198.779 433.161 197.328L453.496 177L433.161 156.672C432.198 155.708 431.433 154.564 430.912 153.305C430.39 152.046 430.122 150.696 430.122 149.333C430.122 147.97 430.39 146.621 430.912 145.362C431.433 144.103 432.198 142.958 433.161 141.995C435.108 140.048 437.747 138.955 440.5 138.955C441.863 138.955 443.212 139.223 444.472 139.745C445.731 140.267 446.875 141.031 447.839 141.995L475.505 169.661C476.469 170.625 477.234 171.769 477.756 173.028C478.278 174.287 478.546 175.637 478.546 177C478.546 178.363 478.278 179.713 477.756 180.972C477.234 182.231 476.469 183.375 475.505 184.339L447.839 212.005C446.875 212.969 445.73 213.732 444.471 214.253C443.212 214.774 441.863 215.042 440.5 215.042Z" fill="white"/>
</g>
<g opacity="0.5">
<path d="M385.167 235.792C384.2 235.79 383.239 235.655 382.31 235.391C379.665 234.634 377.429 232.859 376.093 230.454C374.757 228.049 374.431 225.212 375.186 222.567L402.853 125.734C403.205 124.4 403.82 123.149 404.662 122.056C405.504 120.963 406.555 120.048 407.755 119.366C408.954 118.684 410.278 118.248 411.648 118.084C413.018 117.919 414.407 118.03 415.733 118.409C417.06 118.788 418.298 119.428 419.374 120.291C420.451 121.155 421.344 122.224 422.002 123.437C422.66 124.65 423.07 125.981 423.207 127.354C423.344 128.727 423.206 130.114 422.8 131.433L395.134 228.266C394.515 230.433 393.207 232.339 391.409 233.697C389.611 235.054 387.42 235.79 385.167 235.792Z" fill="white"/>
</g>
<g clip-path="url(#clip0_409_2)">
<path fill-rule="evenodd" clip-rule="evenodd" d="M683.851 34.714L689.528 16.6178C691.393 10.6253 695.563 5.61967 701.119 2.70263C706.676 -0.214411 713.165 -0.803703 719.156 1.06448L854.641 43.289C867.102 47.1944 874.057 60.4428 870.194 72.9171L803.309 287.469C800.173 297.696 790.517 304.506 779.831 304.028L683.851 34.714Z" fill="#3B97D3"/>
<path fill-rule="evenodd" clip-rule="evenodd" d="M752.983 318.872L754.52 319.108C767.441 320.854 779.35 311.849 781.191 298.942L811.884 76.2879C813.629 63.3675 804.625 51.4584 791.718 49.6167L651.088 30.2195C644.869 29.361 638.563 31.0102 633.56 34.8038C628.558 38.5974 625.268 44.2242 624.417 50.4446L621.578 70.9655L752.983 318.872Z" fill="#84B5CB"/>
<path d="M729.328 70.9655H587.397C574.332 70.9655 563.741 81.5563 563.741 94.6207V319.345C563.741 332.409 574.332 343 587.397 343H729.328C742.392 343 752.983 332.409 752.983 319.345V94.6207C752.983 81.5563 742.392 70.9655 729.328 70.9655Z" fill="#ECF0F1"/>
<path fill-rule="evenodd" clip-rule="evenodd" d="M658.362 175.64C666.138 165.557 678.155 159.657 690.888 159.672C710.143 159.672 723.414 176.065 723.414 195.155C723.414 217.249 705.323 243.4 658.362 266.121C611.401 243.4 593.31 217.249 593.31 195.155C593.31 176.065 606.581 159.672 625.836 159.672C638.569 159.657 650.587 165.557 658.362 175.64Z" fill="#E64C3C"/>
<path fill-rule="evenodd" clip-rule="evenodd" d="M605.138 100.534H587.396C584.13 100.534 581.483 97.8868 581.483 94.6207C581.483 91.3546 584.13 88.7069 587.396 88.7069H605.138C608.404 88.7069 611.052 91.3546 611.052 94.6207C611.052 97.8868 608.404 100.534 605.138 100.534Z" fill="#C03A2B"/>
<path fill-rule="evenodd" clip-rule="evenodd" d="M729.328 325.259H711.586C708.32 325.259 705.672 322.611 705.672 319.345C705.672 316.079 708.32 313.431 711.586 313.431H729.328C732.594 313.431 735.241 316.079 735.241 319.345C735.241 322.611 732.594 325.259 729.328 325.259Z" fill="#C03A2B"/>
</g>
<g clip-path="url(#clip1_409_2)">
<path fill-rule="evenodd" clip-rule="evenodd" d="M1052.82 248.444C1051.87 243.25 1046.89 239.814 1041.7 240.765C1000.76 248.26 838.234 278.019 797.296 285.515C792.103 286.466 788.666 291.442 789.617 296.636L813.714 428.237C814.664 433.431 819.641 436.867 824.835 435.916L1069.24 391.166C1074.43 390.215 1077.87 385.238 1076.92 380.045C1071.97 353.038 1057.76 275.45 1052.82 248.444Z" fill="#4BBA6C"/>
<path fill-rule="evenodd" clip-rule="evenodd" d="M1040.55 287.545C1039.82 283.564 1036.65 280.471 1032.65 279.834C1029.86 279.681 1027.22 278.624 1024.88 277.011C1022.55 275.399 1020.62 273.308 1019.22 270.898C1017.27 267.499 1013.39 265.694 1009.54 266.4C966.063 274.044 879.817 289.836 836.398 297.786C832.417 298.515 829.324 301.68 828.687 305.682C828.534 308.479 827.477 311.116 825.864 313.452C824.252 315.787 822.16 317.71 819.75 319.113C816.352 321.061 814.547 324.943 815.252 328.797C818.267 346.986 822.664 371.003 825.984 389.136C826.713 393.117 829.879 396.209 833.881 396.846C836.678 397 839.315 398.057 841.651 399.669C843.986 401.282 845.909 403.373 847.312 405.783C849.26 409.181 853.142 410.987 856.996 410.281C900.471 402.637 986.717 386.845 1030.14 378.895C1034.12 378.166 1037.21 375.001 1037.85 370.998C1038 368.201 1039.06 365.565 1040.67 363.229C1042.28 360.894 1044.37 358.971 1046.78 357.568C1050.18 355.619 1051.99 351.738 1051.28 347.884C1048.27 329.695 1043.87 305.678 1040.55 287.545Z" fill="#317A47"/>
<path d="M859.787 361.51C864.979 360.559 868.417 355.58 867.466 350.388C866.516 345.197 861.536 341.759 856.345 342.71C851.153 343.66 847.715 348.639 848.666 353.831C849.617 359.022 854.596 362.46 859.787 361.51Z" fill="#4BBA6C"/>
<path d="M1010.19 333.971C1015.38 333.021 1018.82 328.042 1017.87 322.85C1016.92 317.658 1011.94 314.221 1006.75 315.171C1001.55 316.122 998.117 321.101 999.067 326.292C1000.02 331.484 1005 334.922 1010.19 333.971Z" fill="#4BBA6C"/>
<path d="M881.897 270.024C913.046 264.321 933.674 234.446 927.971 203.297C922.267 172.148 892.392 151.52 861.243 157.223C830.094 162.927 809.466 192.802 815.17 223.951C820.873 255.1 850.748 275.728 881.897 270.024Z" fill="#FEB62C"/>
<path d="M940.151 375.941C960.917 372.138 974.669 352.222 970.867 331.456C967.065 310.69 947.148 296.938 926.382 300.74C905.616 304.542 891.864 324.459 895.666 345.225C899.469 365.991 919.385 379.743 940.151 375.941Z" fill="#4BBA6C"/>
<path d="M985.298 251.092C1000.87 248.24 1011.19 233.302 1008.33 217.728C1005.48 202.153 990.546 191.839 974.971 194.691C959.397 197.543 949.083 212.48 951.934 228.055C954.786 243.629 969.724 253.943 985.298 251.092Z" fill="#FEB62C"/>
<path d="M957.429 178.473C967.812 176.572 974.688 166.613 972.787 156.23C970.885 145.847 960.927 138.971 950.544 140.872C940.161 142.773 933.285 152.732 935.186 163.115C937.087 173.498 947.046 180.374 957.429 178.473Z" fill="#FEB62C"/>
<path fill-rule="evenodd" clip-rule="evenodd" d="M863.031 220.045L881.831 216.603C887.024 215.652 892.001 219.088 892.952 224.282C893.903 229.475 890.467 234.452 885.273 235.403L866.473 238.845C861.279 239.796 856.303 236.36 855.352 231.166C854.877 228.572 852.386 226.852 849.791 227.327C847.197 227.802 845.477 230.293 845.952 232.887C847.853 243.27 857.812 250.146 868.194 248.245L872.894 247.385L873.755 252.085C874.23 254.679 876.721 256.399 879.315 255.924C881.91 255.449 883.63 252.958 883.155 250.364L882.294 245.663L886.994 244.803C897.377 242.902 904.253 232.943 902.352 222.56C900.451 212.178 890.492 205.302 880.11 207.203L861.31 210.645C856.116 211.596 851.139 208.159 850.188 202.966C849.237 197.772 852.674 192.796 857.867 191.845L876.667 188.402C881.861 187.451 886.838 190.888 887.789 196.081C888.264 198.676 890.755 200.396 893.349 199.921C895.944 199.446 897.664 196.955 897.189 194.36C895.288 183.978 885.329 177.101 874.946 179.002L870.246 179.863L869.386 175.163C868.911 172.568 866.419 170.848 863.825 171.323C861.231 171.798 859.511 174.29 859.986 176.884L860.846 181.584L856.146 182.445C845.764 184.346 838.887 194.305 840.788 204.687C842.689 215.069 852.648 221.946 863.031 220.045Z" fill="#F8F4F0"/>
</g>
<g clip-path="url(#clip2_409_2)">
<path d="M657.058 433.604L586.262 637.726C581.374 651.818 565.942 659.263 551.792 654.355L432.231 612.887C418.081 607.979 410.573 592.577 415.46 578.486L486.257 374.364L657.058 433.604ZM886.553 568.814L929.838 444.015C935.291 428.293 926.966 411.129 911.244 405.676L749.932 349.727C734.21 344.273 717.045 352.598 711.592 368.32L668.307 493.118C662.854 508.841 671.179 526.005 686.901 531.458L848.213 587.407C863.935 592.861 881.1 584.536 886.553 568.814Z" fill="#636363"/>
<path d="M534.08 604.276L477.146 584.53C466.664 580.894 461.115 569.451 464.75 558.969L517.165 407.846L612.054 440.757L559.639 591.881C556.005 602.362 544.562 607.912 534.08 604.276ZM863.109 538.331L892.554 453.435C896.189 442.953 890.64 431.51 880.158 427.875L760.597 386.407C750.115 382.771 738.672 388.321 735.037 398.802L705.592 483.698C701.956 494.18 707.506 505.623 717.987 509.258L837.548 550.726C848.03 554.362 859.474 548.812 863.109 538.331Z" fill="#7C7C7C"/>
<path d="M898.015 449.948L883.266 492.474C881.455 497.693 875.74 500.45 870.499 498.633C865.259 496.815 862.478 491.111 864.288 485.892L879.038 443.366C879.941 440.761 878.548 437.902 875.933 436.995L833.232 422.185C827.992 420.368 825.211 414.663 827.021 409.444C828.831 404.225 834.547 401.467 839.788 403.285L882.488 418.095C895.567 422.633 902.533 436.922 898.015 449.948ZM792.342 386.831L790.444 386.172C785.203 384.355 779.488 387.113 777.678 392.332C775.867 397.551 778.648 403.255 783.888 405.073L785.786 405.731C791.027 407.549 796.742 404.791 798.552 399.572C800.363 394.352 797.582 388.648 792.342 386.831Z" fill="#B5B5B5"/>
<path d="M539.341 558.46C537.531 563.679 531.815 566.437 526.575 564.619L507.597 558.037C502.356 556.219 499.576 550.515 501.386 545.296C503.196 540.076 508.912 537.319 514.152 539.136L533.13 545.719C538.37 547.536 541.151 553.241 539.341 558.46ZM702.716 424.56L683.304 417.828C696.884 363.183 666.583 306.159 612.136 287.275C554.49 267.281 491.616 297.613 471.704 355.023C451.792 412.434 482.382 475.183 540.029 495.177C594.476 514.061 653.578 488.046 676.75 436.728L696.162 443.46C701.402 445.278 707.118 442.52 708.928 437.301C710.738 432.082 707.957 426.378 702.716 424.56Z" fill="#3A3F3F"/>
<path d="M651.994 417.554C637.512 459.307 591.786 481.368 549.861 466.827C507.937 452.286 485.69 406.651 500.171 364.897C514.653 323.143 560.379 301.084 602.304 315.625C644.228 330.166 666.475 375.801 651.994 417.554Z" fill="#A5DDD3"/>
<path d="M633.016 410.972C622.155 442.287 587.86 458.832 556.416 447.926C524.972 437.02 508.287 402.794 519.148 371.479C530.009 340.164 564.304 323.619 595.747 334.525C627.191 345.431 643.877 379.657 633.016 410.972Z" fill="#7EC1B4"/>
<path d="M570.215 346.843C565.69 359.891 551.4 366.786 538.298 362.242C525.197 357.698 518.245 343.437 522.77 330.388C527.296 317.339 541.585 310.446 554.687 314.99C567.789 319.534 574.74 333.796 570.215 346.843Z" fill="#B5F7CC"/>
<path d="M623.527 407.681C614.491 433.735 585.855 447.549 559.695 438.476C554.454 436.658 551.673 430.954 553.484 425.735C555.294 420.516 561.009 417.758 566.25 419.575C581.947 425.02 599.127 416.731 604.549 401.099C609.971 385.467 601.612 368.32 585.915 362.876C580.675 361.058 577.894 355.354 579.704 350.135C581.515 344.916 587.23 342.158 592.471 343.975C618.631 353.048 632.564 381.627 623.527 407.681Z" fill="white"/>
</g>
<g clip-path="url(#clip3_409_2)">
<path d="M102.019 179.059C103.695 179.508 105.543 179.316 107.165 178.377L189.658 130.626C192.903 128.747 194.016 124.592 192.146 121.343C190.274 118.094 186.128 116.983 182.883 118.861L100.39 166.613C97.1458 168.49 96.032 172.647 97.903 175.895C98.839 177.52 100.344 178.61 102.019 179.059Z" fill="#563E2F"/>
<path d="M116.692 195.411C118.368 195.86 120.216 195.668 121.838 194.729L196.446 151.541C199.691 149.663 200.804 145.507 198.933 142.259C197.062 139.01 192.916 137.899 189.672 139.777L115.063 182.965C111.819 184.844 110.705 188.999 112.576 192.248C113.511 193.872 115.017 194.962 116.692 195.411Z" fill="#563E2F"/>
<path d="M132.38 211.079C134.056 211.528 135.904 211.336 137.526 210.397L202.135 172.997C205.38 171.118 206.493 166.962 204.623 163.714C202.75 160.464 198.604 159.354 195.36 161.232L130.751 198.632C127.506 200.51 126.392 204.666 128.263 207.915C129.199 209.54 130.705 210.63 132.38 211.079Z" fill="#563E2F"/>
<path d="M152.952 207.313L110.471 160.766C103.434 153.055 103.12 141.292 109.821 133.27C109.918 133.155 110.015 133.039 110.115 132.922C120.052 121.274 107.71 112.463 120.081 105.302C132.313 98.2216 133.893 113.262 148.921 110.458C149.071 110.43 149.221 110.403 149.37 110.377C159.649 108.57 169.652 114.723 172.793 124.689L191.758 184.85L152.952 207.313Z" fill="#99573D"/>
<path d="M109.82 133.269C109.917 133.154 110.015 133.038 110.114 132.921C120.051 121.273 107.709 112.463 120.081 105.301C123.992 103.037 126.811 103.039 129.332 103.991C128.291 111.677 135.159 122.019 127.78 130.67C127.68 130.786 127.78 130.67 127.683 130.786C120.982 138.808 121.296 150.57 128.334 158.281L167.051 199.151L152.952 207.312L110.471 160.765C103.433 153.054 103.119 141.291 109.82 133.269Z" fill="#894C37"/>
<path d="M397.862 587.698C353.227 613.536 282.576 635.841 237.929 575.141C208.024 534.484 225.751 505.614 222.117 477.738C218.483 449.863 200.634 447.359 181.853 416.292C158.352 377.418 171.343 327.291 228.769 294.049C286.194 260.808 335.988 274.591 357.814 314.434C375.257 346.275 368.496 363.025 390.756 380.119C413.016 397.212 446.816 396.255 466.981 442.55C497.089 511.667 442.497 561.861 397.862 587.698Z" fill="#FCC472"/>
<path d="M222.117 477.738C218.482 449.863 200.634 447.359 181.853 416.292C158.351 377.418 171.343 327.291 228.768 294.049C231.165 292.662 233.547 291.364 235.915 290.139C184.428 323.297 173.431 370.88 195.951 408.132C214.732 439.198 232.58 441.703 236.215 469.578C239.849 497.453 222.122 526.323 252.027 566.981C294.369 624.547 360.095 607.457 404.842 583.5C402.497 584.963 400.165 586.365 397.861 587.699C353.226 613.537 282.575 635.842 237.928 575.142C208.024 534.483 225.751 505.613 222.117 477.738Z" fill="#F4B158"/>
<path d="M261.046 443.313C248.216 421.032 255.854 392.529 278.105 379.649C300.356 366.768 328.794 374.388 341.624 396.669C354.454 418.949 346.816 447.452 324.565 460.333C302.314 473.213 273.876 465.593 261.046 443.313Z" fill="#563E2F"/>
<path d="M278.054 379.638C280.46 378.245 282.941 377.107 285.464 376.186C268.496 390.461 263.646 415.277 275.091 435.151C286.535 455.026 310.394 463.222 331.209 455.626C329.153 457.357 326.928 458.942 324.522 460.335C302.268 473.217 273.825 465.595 260.993 443.312C248.16 421.028 255.799 392.52 278.054 379.638Z" fill="#4C362A"/>
<path d="M310.217 532.763L394.233 484.128C398.656 481.568 400.174 475.903 397.624 471.474L392.191 462.04C389.641 457.611 383.988 456.096 379.565 458.656L295.549 507.291C291.126 509.851 289.608 515.516 292.158 519.945L297.591 529.379C300.141 533.808 305.794 535.322 310.217 532.763Z" fill="#563E2F"/>
<path d="M295.549 507.291L309.648 499.13C305.225 501.69 303.707 507.355 306.257 511.783L311.69 521.218C314.24 525.647 319.892 527.161 324.315 524.601L310.217 532.762C305.794 535.322 300.141 533.808 297.592 529.379L292.159 519.945C289.609 515.517 291.127 509.852 295.549 507.291Z" fill="#4C362A"/>
<path d="M152.953 207.311L168.439 234.216L175.215 245.984L190.837 273.114L197.616 284.873L220.014 323.771L235.637 350.9L242.404 362.666L261.523 395.853C265.447 389.345 271.019 383.709 278.053 379.637C285.087 375.565 292.741 373.545 300.325 373.392L281.207 340.204L274.439 328.439L258.817 301.309L236.418 262.412L229.64 250.652L207.241 211.755L191.756 184.849L152.953 207.311Z" fill="#725539"/>
<path d="M261.519 395.853L152.951 207.313L167.05 199.151L272.951 383.059C268.28 386.652 264.443 391.01 261.519 395.853Z" fill="#6B4C32"/>
<path d="M214.054 223.561L207.278 211.795L168.482 234.253L175.257 246.019L214.054 223.561Z" fill="#563E2F"/>
<path d="M236.549 262.314L229.777 250.553L190.98 273.011L197.753 284.772L236.549 262.314Z" fill="#563E2F"/>
<path d="M258.857 301.333L252.082 289.567L213.285 312.025L220.061 323.791L258.857 301.333Z" fill="#563E2F"/>
<path d="M281.197 340.363L274.425 328.602L235.629 351.06L242.401 362.821L281.197 340.363Z" fill="#563E2F"/>
</g>
<defs>
<linearGradient id="paint0_linear_409_2" x1="292.546" y1="70.5456" x2="513.948" y2="291.948" gradientUnits="userSpaceOnUse">
<stop stop-color="#9B8DFF"/>
<stop offset="0.252" stop-color="#7D79FD"/>
<stop offset="0.555" stop-color="#5F65FB"/>
<stop offset="0.815" stop-color="#4D58F9"/>
<stop offset="1" stop-color="#4654F9"/>
</linearGradient>
<clipPath id="clip0_409_2">
<rect width="343" height="343" fill="white" transform="translate(546)"/>
</clipPath>
<clipPath id="clip1_409_2">
<rect width="305.804" height="305.804" fill="white" transform="translate(745 159.077) rotate(-10.3759)"/>
</clipPath>
<clipPath id="clip2_409_2">
<rect width="462" height="462" fill="white" transform="translate(523.391 206) rotate(19.1283)"/>
</clipPath>
<clipPath id="clip3_409_2">
<rect width="448.913" height="449.935" fill="white" transform="matrix(-0.965926 -0.258819 -0.258819 0.965926 550.068 215.187)"/>
</clipPath>
</defs>
</svg>
