<svg width="125" height="125" viewBox="0 0 125 125" fill="none" xmlns="http://www.w3.org/2000/svg">
<g clip-path="url(#clip0_50_24)">
<path d="M93.4862 102.248L106.096 102.486L117.334 96.7626L100.877 25.2192L77.0291 30.705L83.2703 66.9338L93.4862 102.248Z" fill="#C0DBF2"/>
<path d="M94.2006 64.4197L100.163 63.0482L101.534 69.0102L95.572 70.3816L94.2006 64.4197Z" fill="#1384EA"/>
<path d="M91.4576 52.4956L97.4196 51.1242L98.791 57.0861L92.8291 58.4576L91.4576 52.4956Z" fill="#1384EA"/>
<path d="M88.7148 40.5718L94.6768 39.2003L96.0482 45.1623L90.0863 46.5337L88.7148 40.5718Z" fill="#1384EA"/>
<path d="M96.9434 76.3435L102.905 74.9721L104.277 80.934L98.3148 82.3055L96.9434 76.3435Z" fill="#1384EA"/>
<path d="M99.6863 88.2673L105.648 86.8959L107.02 92.8578L101.058 94.2293L99.6863 88.2673Z" fill="#1384EA"/>
<path d="M51.7526 111.848L40.2859 116.579L27.9048 117.334L14.1906 57.7146L38.0383 52.2289L47.4921 84.2302L51.7526 111.848Z" fill="#D7E9FC"/>
<path d="M29.8097 16.4573L51.7526 111.848L58.7931 112.74L63.6765 109.106L67.1337 83.2006L61.5781 49.9528L50.6765 11.6573L29.8097 16.4573Z" fill="#F0F7FF"/>
<path d="M71.5433 6.85722L50.6765 11.6572L67.1337 83.2006L81.5623 104.991L88.8016 105.837L93.4862 102.248L71.5433 6.85722Z" fill="#D7E9FC"/>
<path d="M28.6191 79.5054L34.5811 78.1339L35.9525 84.0959L29.9906 85.4673L28.6191 79.5054Z" fill="#45AFFF"/>
<path d="M25.8763 67.5815L31.8383 66.2101L33.2097 72.1721L27.2478 73.5435L25.8763 67.5815Z" fill="#45AFFF"/>
<path d="M31.3621 91.4292L37.324 90.0578L38.6954 96.0197L32.7335 97.3911L31.3621 91.4292Z" fill="#45AFFF"/>
<path d="M34.1049 103.353L40.0668 101.982L41.4382 107.944L35.4763 109.315L34.1049 103.353Z" fill="#45AFFF"/>
<path d="M49.9622 49.4861L55.9241 48.1147L57.2955 54.0766L51.3336 55.448L49.9622 49.4861Z" fill="#8DD4FF"/>
<path d="M47.2194 37.5623L53.1813 36.1908L54.5527 42.1528L48.5908 43.5242L47.2194 37.5623Z" fill="#8DD4FF"/>
<path d="M52.7051 61.4099L58.667 60.0385L60.0385 66.0004L54.0765 67.3719L52.7051 61.4099Z" fill="#8DD4FF"/>
<path d="M55.4479 73.334L61.4098 71.9626L62.7813 77.9245L56.8193 79.2959L55.4479 73.334Z" fill="#8DD4FF"/>
<path d="M61.8861 46.7432L67.8481 45.3717L69.2195 51.3337L63.2575 52.7051L61.8861 46.7432Z" fill="#45AFFF"/>
<path d="M59.1432 34.8193L65.1051 33.4479L66.4766 39.4099L60.5146 40.7813L59.1432 34.8193Z" fill="#45AFFF"/>
<path d="M44.4764 25.6384L50.4384 24.267L51.8098 30.2289L45.8479 31.6004L44.4764 25.6384Z" fill="#8DD4FF"/>
<path d="M56.4004 22.8955L62.3623 21.5241L63.7338 27.486L57.7718 28.8575L56.4004 22.8955Z" fill="#45AFFF"/>
<path d="M64.6289 58.6672L70.5909 57.2958L71.9623 63.2578L66.0003 64.6292L64.6289 58.6672Z" fill="#45AFFF"/>
<path d="M67.3718 70.5911L73.3338 69.2196L74.7052 75.1816L68.7433 76.553L67.3718 70.5911Z" fill="#45AFFF"/>
<path d="M58.1908 85.2578L63.6765 109.106L68.6051 110.064L72.6194 107.048L71.8639 94.6674L67.1337 83.2007L58.1908 85.2578Z" fill="#36629D"/>
<path d="M76.0766 81.1435L67.1337 83.2007L72.6194 107.048L77.548 108.007L81.5623 104.991L76.0766 81.1435Z" fill="#003E6F"/>
<path d="M21.9429 118.706L23.3143 124.668L73.9908 113.01L75.2924 109.572L72.6194 107.048L21.9429 118.706Z" fill="#1FC73D"/>
<path d="M72.6194 107.048L123.296 95.3912L124.667 101.353L73.9908 113.01L72.6194 107.048Z" fill="#1AA432"/>
</g>
<defs>
<clipPath id="clip0_50_24">
<rect width="104" height="104" fill="white" transform="translate(0 23.3145) rotate(-12.9544)"/>
</clipPath>
</defs>
</svg>
