<svg width="148" height="148" viewBox="0 0 148 148" fill="none" xmlns="http://www.w3.org/2000/svg">
<g clip-path="url(#clip0_13_16)">
<path d="M89.3279 93.0864L85.3801 99.9207L101.596 95.8729C101.687 95.8504 101.777 95.8374 101.867 95.8288L105.625 89.3236L89.7257 93.039C89.5925 93.0704 89.4593 93.0849 89.3279 93.0864Z" fill="#5CEDE5"/>
<path d="M77.1681 114.63C77.0764 114.63 76.9861 114.621 76.897 114.608L72.037 123.022L82.6296 129.135L93.2146 110.81L77.5968 114.58C77.4532 114.614 77.3096 114.63 77.1681 114.63Z" fill="#5CEDE5"/>
<path d="M114.311 74.2854L118.881 66.3742L108.288 60.2612L97.9961 78.0789L114.067 74.3232C114.149 74.3043 114.23 74.293 114.311 74.2854Z" fill="#5CEDE5"/>
<path d="M84.2966 103.859C83.9299 103.859 83.5815 103.743 83.287 103.545L79.2969 110.453L95.0861 106.642C95.2753 106.596 95.4641 106.583 95.6482 106.596L99.3701 100.152L84.7388 103.805C84.5905 103.841 84.4423 103.859 84.2966 103.859Z" fill="#5CEDE5"/>
<path d="M95.5498 82.3147L91.7747 88.8506L107.845 85.095C107.927 85.076 108.008 85.0648 108.089 85.0571L111.847 78.5519L95.9477 82.2673C95.8145 82.2987 95.6813 82.3135 95.5498 82.3147Z" fill="#5CEDE5"/>
<path d="M114.067 74.3233L97.9962 78.0789L95.5498 82.3144C95.6812 82.3132 95.8144 82.2984 95.9476 82.2673L111.847 78.5519L114.311 74.2854C114.23 74.2931 114.149 74.3043 114.067 74.3233Z" fill="#4DC7C0"/>
<path d="M91.7746 88.8506L89.3281 93.0861C89.4595 93.0849 89.5928 93.0701 89.7257 93.039L105.625 89.3236L108.089 85.0571C108.008 85.0648 107.927 85.076 107.845 85.095L91.7746 88.8506Z" fill="#4DC7C0"/>
<path d="M85.3804 99.9207L83.2871 103.545C83.5816 103.742 83.9303 103.859 84.2968 103.859C84.4424 103.859 84.5907 103.841 84.7387 103.804L99.37 100.152L101.867 95.8288C101.777 95.8374 101.687 95.8504 101.596 95.8729L85.3804 99.9207Z" fill="#4DC7C0"/>
<path d="M95.0862 106.641L79.2969 110.453L76.897 114.608C76.9861 114.621 77.0764 114.63 77.1681 114.63C77.3093 114.63 77.4532 114.614 77.5964 114.579L93.2143 110.809L95.648 106.596C95.4642 106.582 95.275 106.596 95.0862 106.641Z" fill="#4DC7C0"/>
<path d="M118.872 66.3872L108.274 60.286L102.674 69.9806L113.273 76.0815L118.872 66.3872Z" fill="#F2F2F2"/>
<path d="M108.302 73.1989L113.9 63.5035L118.856 66.3651L113.258 76.0605L108.302 73.1989Z" fill="#CACACA"/>
<path d="M127.176 46.9447L123.409 48.5224L124.447 44.5741L121.782 41.4806L125.86 41.2479L127.98 37.7584L129.461 41.5626L133.436 42.4994L130.274 45.0835L130.611 49.152L127.176 46.9447Z" fill="#FFE188"/>
<path d="M101.476 50.2801L97.7092 51.8577L98.7478 47.9094L96.0833 44.8159L100.161 44.5832L102.281 41.0937L103.762 44.8979L107.737 45.8347L104.575 48.4188L104.912 52.4873L101.476 50.2801Z" fill="#FFF3CF"/>
<path d="M112.522 32.5464L108.755 34.1241L109.794 30.1757L107.129 27.0825L111.206 26.8496L113.326 23.36L114.807 27.1645L118.782 28.1011L115.62 30.6852L115.957 34.7537L112.522 32.5464Z" fill="#FFC107"/>
<path d="M77.092 70.4486H16.6023L16.8068 70.6579C27.3595 83.8109 32.6141 100.435 30.834 117.249V116.938H62.5782V117.246C60.2049 100.244 65.2398 83.039 76.9064 70.4131L77.092 70.4486Z" fill="#FFE188"/>
<path d="M23.8451 70.6581L23.5589 70.4488H16.6023L16.8068 70.6581C27.3595 83.8112 32.6141 100.435 30.834 117.249V116.939H37.9543V117.249C39.4375 100.435 34.3978 83.8112 23.8451 70.6581Z" fill="#FFC107"/>
<path d="M77.092 70.4486H70.1354L70.1644 70.4489C58.4979 83.0748 53.3812 100.246 56.0511 117.249V116.938H62.8745V117.246C60.2043 100.244 65.3879 83.039 77.0544 70.4131L77.092 70.4486Z" fill="#FFC107"/>
<path d="M35.2841 58.9002H58.4247V111.608H35.2841V58.9002Z" fill="#FFC5B7"/>
<path d="M59.9193 86.1428H59.9465C54.0401 93.5458 42.4902 93.5458 36.5838 86.1428H36.5149C21.2658 86.1428 8.88 98.4431 8.88 113.744V147.438H87.4988V113.744C87.4988 98.4431 75.1686 86.1428 59.9193 86.1428Z" fill="#F06292"/>
<path d="M46.4148 148L58.4203 86.7191C52.5157 94.2219 41.1659 94.2186 35.266 86.7094L46.4148 148Z" fill="white"/>
<path d="M72.6695 107.336L65.3873 87.7842C63.0179 87.1196 61.1163 86.5782 58.5355 86.5782C58.4982 86.6268 58.4583 86.6715 58.4204 86.7191L46.4149 148L70.158 129.931L64.0065 116.367L72.6695 107.336Z" fill="#F2F2F2"/>
<path d="M35.1592 86.5782C32.5813 86.5782 30.697 87.1211 28.3296 87.7842L21.0249 107.374L29.6879 116.405L23.5365 129.969L46.4149 148L35.2661 86.7094C35.2308 86.6647 35.1935 86.6232 35.1592 86.5782Z" fill="#F2F2F2"/>
<path d="M70.0993 51.9486C73.9927 51.9486 77.1489 48.7743 77.1489 44.8585C77.1489 40.9428 73.9927 37.7684 70.0993 37.7684C66.206 37.7684 63.0498 40.9428 63.0498 44.8585C63.0498 48.7743 66.206 51.9486 70.0993 51.9486Z" fill="#FFC5B7"/>
<path d="M23.5951 51.9486C27.4884 51.9486 30.6446 48.7743 30.6446 44.8585C30.6446 40.9428 27.4884 37.7684 23.5951 37.7684C19.7017 37.7684 16.5455 40.9428 16.5455 44.8585C16.5455 48.7743 19.7017 51.9486 23.5951 51.9486Z" fill="#FFC5B7"/>
<path d="M46.7822 76.371H46.7494C34.2209 76.371 24.0104 66.0752 24.0104 53.505V28.1774C24.0104 24.7178 26.9576 21.886 30.4055 21.886H63.2887C66.7365 21.886 69.4014 24.7178 69.4014 28.1774V53.505C69.4017 66.0752 59.3107 76.371 46.7822 76.371Z" fill="#FED9C9"/>
<path d="M54.7465 61.8681L54.7219 61.8788C53.5864 62.3781 52.3006 62.4098 51.1421 61.967L50.9612 61.898C49.6067 61.3803 48.09 61.5147 46.8471 62.263C45.6042 61.5147 44.0878 61.38 42.733 61.898L42.5521 61.967C41.3936 62.4098 40.1078 62.3781 38.9723 61.8788L38.9478 61.8681C38.9478 65.1233 42.2227 67.3504 45.236 66.1448L46.8468 65.5004L48.4576 66.1448C51.4715 67.3507 54.7465 65.1233 54.7465 61.8681Z" fill="#804F67"/>
<path d="M35.113 50.3724C36.4574 50.3724 37.5473 48.956 37.5473 47.2088C37.5473 45.4615 36.4574 44.0451 35.113 44.0451C33.7686 44.0451 32.6787 45.4615 32.6787 47.2088C32.6787 48.956 33.7686 50.3724 35.113 50.3724Z" fill="#804F67"/>
<path d="M58.5814 50.3724C59.9258 50.3724 61.0157 48.956 61.0157 47.2088C61.0157 45.4615 59.9258 44.0451 58.5814 44.0451C57.237 44.0451 56.1471 45.4615 56.1471 47.2088C56.1471 48.956 57.237 50.3724 58.5814 50.3724Z" fill="#804F67"/>
<path d="M49.2277 88.1027L56.6291 84.8754C59.0128 83.8346 61.6878 85.5875 61.6878 88.1956V96.4954C61.6878 99.1038 59.0125 100.856 56.6291 99.8157L49.2277 96.5884V88.1027Z" fill="#F06292"/>
<path d="M56.64 84.8754L53.8843 86.0972C55.6632 86.2476 57.2377 87.73 57.2377 89.7067V98.0065C57.2377 98.6817 57.013 99.2977 56.7066 99.8245C59.0841 100.843 61.6877 99.0949 61.6877 96.4954V88.1956C61.6877 85.5875 59.0237 83.8346 56.64 84.8754Z" fill="#E91E63"/>
<path d="M44.4808 88.1027L36.931 84.8754C34.5473 83.8346 31.7238 85.5875 31.7238 88.1956V96.4954C31.7238 99.1038 34.5473 100.856 36.931 99.8157L44.4808 96.5884V88.1027Z" fill="#F06292"/>
<path d="M36.7643 84.8754L39.6722 86.0972C37.8933 86.2476 36.4707 87.73 36.4707 89.7067V98.0065C36.4707 98.6817 36.5471 99.2977 36.8531 99.8245C34.4757 100.843 31.7238 99.0949 31.7238 96.4954V88.1956C31.7238 85.5875 34.3807 83.8346 36.7643 84.8754Z" fill="#E91E63"/>
<path d="M42.1074 87.0311H51.601V97.395H42.1074V87.0311Z" fill="#F2F2F2"/>
<path d="M72.3173 32.2503H21.5029L25.8077 7.78206C27.6547 1.01579 35.2841 -2.04218 41.5143 1.63473V1.63384C44.4811 3.71442 49.0345 3.71413 52.4042 1.63354L52.4343 1.58382C58.365 -2.078 66.1149 0.940016 67.998 7.66662L72.3173 32.2503Z" fill="#F06292"/>
<path d="M67.9729 7.66641C66.2685 1.57858 59.7382 -1.48118 54.1168 0.704488C57.0679 1.83846 59.5135 4.26922 60.4625 7.65871L64.8069 32.2501H72.3173L67.9729 7.66641Z" fill="#E91E63"/>
<path d="M71.2816 25.9127C70.0378 28.3743 59.6011 30.2956 46.9101 30.2956C34.2191 30.2956 23.7827 28.374 22.5386 25.9127C19.0337 27.478 16.9706 29.3946 16.9706 31.4651C16.9706 36.744 30.3749 41.0232 46.9098 41.0232C63.4447 41.0232 76.849 36.744 76.849 31.4651C76.8493 29.3946 74.7862 27.478 71.2816 25.9127Z" fill="#F2F2F2"/>
<path d="M76.8493 31.4654C76.8493 29.3949 74.7862 27.478 71.2813 25.913C70.9045 26.6584 69.6805 27.3537 67.8107 27.9616C68.7656 28.7348 69.4162 34.156 69.7119 37.6589C74.1622 35.9906 76.8493 33.8284 76.8493 31.4654Z" fill="#CACACA"/>
<path d="M38.5398 17.5925C38.5398 18.669 39.416 19.5174 40.4969 19.5174H70.0703L69.3821 15.6679H40.4969C39.416 15.6676 38.5398 16.5156 38.5398 17.5925Z" fill="#F493B4"/>
<path d="M32.0074 19.5171C33.0881 19.5171 33.9646 18.669 33.9646 17.5922C33.9646 16.5153 33.0884 15.6673 32.0074 15.6673H24.357L23.6892 19.5339C23.7404 19.5378 23.7916 19.5168 23.8437 19.5168L32.0074 19.5171Z" fill="#F493B4"/>
<path d="M122.202 126.71H120.133V124.554C120.133 123.573 119.336 122.778 118.353 122.778C117.37 122.778 116.573 123.574 116.573 124.554V126.71H114.648C113.665 126.71 112.868 127.506 112.868 128.487C112.868 129.468 113.665 130.263 114.648 130.263H116.573V132.079C116.573 133.06 117.37 133.855 118.353 133.855C119.336 133.855 120.133 133.06 120.133 132.079V130.263H122.202C123.185 130.263 123.982 129.468 123.982 128.487C123.982 127.506 123.185 126.71 122.202 126.71Z" fill="#FFC107"/>
<path d="M91.9897 9.74521H89.8721V7.47578C89.8721 6.49454 89.075 5.69919 88.092 5.69919C87.109 5.69919 86.3119 6.49484 86.3119 7.47578V9.74521H84.4364C83.4534 9.74521 82.6562 10.5409 82.6562 11.5218C82.6562 12.5027 83.4534 13.2984 84.4364 13.2984H86.3119V15.3008C86.3119 16.2821 87.109 17.0774 88.092 17.0774C89.075 17.0774 89.8721 16.2818 89.8721 15.3008V13.2984H91.9897C92.9727 13.2984 93.7699 12.5027 93.7699 11.5218C93.7699 10.5409 92.9727 9.74521 91.9897 9.74521Z" fill="#E91E63"/>
<path d="M136.366 82.9946C137.887 82.9946 139.12 81.7617 139.12 80.2409C139.12 78.7201 137.887 77.4872 136.366 77.4872C134.845 77.4872 133.612 78.7201 133.612 80.2409C133.612 81.7617 134.845 82.9946 136.366 82.9946Z" fill="#F06292"/>
</g>
<defs>
<clipPath id="clip0_13_16">
<rect width="148" height="148" fill="white"/>
</clipPath>
</defs>
</svg>
