<svg width="137" height="138" viewBox="0 0 137 138" fill="none" xmlns="http://www.w3.org/2000/svg">
<path d="M87.7656 133.688V118.594H107.031L105.143 99.5864C104.976 97.8919 104.572 96.2297 103.944 94.6486C102.91 92.0402 101.289 89.709 99.2091 87.8383C97.1291 85.9676 94.6467 84.6083 91.957 83.8673L77.0625 79.7812L74.2433 78.3624C72.5176 77.4926 71.0664 76.1561 70.052 74.5026C69.0377 72.8491 68.5003 70.9437 68.5 69V68.0146H42.8125V69C42.8122 70.9437 42.2748 72.8491 41.2605 74.5026C40.2461 76.1561 38.7949 77.4926 37.0692 78.3624L34.25 79.7812L19.3662 83.8781C16.6765 84.6191 14.1941 85.9784 12.1141 87.8491C10.0341 89.7198 8.41316 92.051 7.37873 94.6594C6.75092 96.2404 6.34737 97.9027 6.17998 99.5972L4.28125 118.594H23.5469V133.688H87.7656Z" fill="#F79B31"/>
<path d="M103.944 94.6594C102.91 92.051 101.289 89.7198 99.2091 87.8491C97.1291 85.9784 94.6467 84.6191 91.957 83.8781L77.0625 79.7812L74.2433 78.3624C72.5176 77.4926 71.0664 76.1561 70.052 74.5026C69.0377 72.8491 68.5003 70.9437 68.5 69V68.0146H51.375V69C51.3747 70.9437 50.8373 72.8491 49.823 74.5026C48.8086 76.1561 47.3574 77.4926 45.6317 78.3624L42.8125 79.7812L27.9287 83.8781C24.4083 84.8446 21.262 86.8646 18.9056 89.6709C16.5493 92.4772 15.0939 95.9377 14.7318 99.595L12.8438 118.594H23.5469V133.688H87.7656V118.594H107.031L105.143 99.5864C104.975 97.8956 104.571 96.237 103.944 94.6594Z" fill="#FCB732"/>
<path d="M56.3905 88.4062C64.1439 88.4061 71.5798 85.3036 77.0625 79.7812L74.2433 78.3624C72.5176 77.4926 71.0664 76.1561 70.052 74.5026C69.0377 72.8491 68.5003 70.9437 68.5 69V68.0146H42.8125V69C42.8122 70.9437 42.2748 72.8491 41.2605 74.5026C40.2461 76.1561 38.7949 77.4926 37.0692 78.3624L34.25 79.7812C39.7327 85.3036 47.1686 88.4061 54.922 88.4062H56.3905Z" fill="#D08D78"/>
<path d="M79.5242 41.4604C80.7343 34.8979 81.3433 28.2373 81.3438 21.5625C81.3438 19.275 80.4416 17.0812 78.8358 15.4637C77.2301 13.8462 75.0522 12.9375 72.7812 12.9375C67.2985 7.41516 59.8627 4.31269 52.1092 4.3125C44.6348 4.31212 37.3107 6.4281 30.9727 10.419L23.5469 15.0938L24.8441 15.9563C26.4218 17.0155 27.7152 18.451 28.6092 20.1351C29.5033 21.8193 29.9703 23.6999 29.9688 25.6098C29.9686 30.9518 30.5573 36.2773 31.7241 41.4884L79.5242 41.4604Z" fill="#785349"/>
<path d="M81.3438 21.5625C81.3438 19.275 80.4416 17.0812 78.8358 15.4637C77.2301 13.8462 75.0522 12.9375 72.7812 12.9375C68.2492 8.38565 62.3579 5.4598 56.0137 4.61008C50.1605 5.29443 44.531 7.27841 39.5309 10.419L32.1094 15.0938L33.4066 15.9563C34.9843 17.0155 36.2777 18.451 37.1717 20.1352C38.0658 21.8193 38.5328 23.7 38.5312 25.6098C38.5315 30.9502 39.1195 36.2742 40.2844 41.4841L79.5242 41.4604C80.7343 34.8979 81.3433 28.2373 81.3438 21.5625Z" fill="#916658"/>
<path d="M64.0903 29.1417L67.8171 28.2037C68.2708 28.0893 68.7366 28.0313 69.2043 28.0312C70.7207 28.0313 72.175 28.638 73.2472 29.7181C74.3195 30.7982 74.9219 32.2631 74.9219 33.7906V45.9712C74.9225 49.8169 74.6067 53.6559 73.9779 57.449C73.2078 62.1098 70.7563 66.32 67.0936 69.2717C63.8473 71.8879 59.8136 73.313 55.6562 73.3125C51.499 73.3123 47.4655 71.8873 44.2189 69.2717C40.5562 66.32 38.1046 62.1098 37.3346 57.449C36.7058 53.6559 36.39 49.8169 36.3906 45.9712V33.7906C36.3906 32.2631 36.993 30.7982 38.0653 29.7181C39.1375 28.638 40.5918 28.0313 42.1082 28.0312C42.5759 28.0313 43.0417 28.0893 43.4954 28.2037L47.2222 29.1417C49.9805 29.8362 52.813 30.1874 55.6562 30.1875C58.4995 30.1874 61.332 29.8362 64.0903 29.1417Z" fill="#D08D78"/>
<path d="M36.3906 40.9688H34.25C32.5468 40.9688 30.9134 41.6503 29.709 42.8634C28.5047 44.0765 27.8281 45.7219 27.8281 47.4375C27.8281 49.1531 28.5047 50.7985 29.709 52.0116C30.9134 53.2247 32.5468 53.9062 34.25 53.9062H36.8402" fill="#D08D78"/>
<path d="M74.9218 40.9688H77.0624C78.7656 40.9688 80.3991 41.6503 81.6034 42.8634C82.8077 44.0765 83.4843 45.7219 83.4843 47.4375C83.4843 49.1531 82.8077 50.7985 81.6034 52.0116C80.3991 53.2247 78.7656 53.9062 77.0624 53.9062H74.4723" fill="#D08D78"/>
<path d="M77.0603 133.688L77.0624 86.25H132.719V133.688" fill="#0059BE"/>
<path d="M81.3438 115.491C81.3438 119.173 82.7959 122.705 85.3808 125.308C87.9657 127.912 91.4716 129.375 95.1272 129.375H132.719V86.25H81.3438V115.491Z" fill="#006BDB"/>
<path d="M6.42188 118.594H23.5469V133.688H6.42188V118.594Z" fill="#F2B9A1"/>
<path d="M51.375 125.062H77.0625V133.688H51.375V125.062Z" fill="#006BDB"/>
<path d="M94.8147 117.962L88.3929 111.493C87.9916 111.089 87.7661 110.541 87.7661 109.969C87.7661 109.397 87.9916 108.849 88.3929 108.444L94.8147 101.976L97.8416 105.024L92.9331 109.969L97.8416 114.913L94.8147 117.962Z" fill="white"/>
<path d="M98.6293 117.647L107.187 100.406L111.015 102.334L102.457 119.575L98.6293 117.647Z" fill="white"/>
<path d="M114.967 117.962L111.94 114.913L116.848 109.969L111.94 105.024L114.967 101.976L121.388 108.444C121.79 108.849 122.015 109.397 122.015 109.969C122.015 110.541 121.79 111.089 121.388 111.493L114.967 117.962Z" fill="white"/>
<path d="M69.2043 28.0312C68.7366 28.0313 68.2708 28.0893 67.8171 28.2037L64.0903 29.1417C61.332 29.8362 58.4995 30.1874 55.6563 30.1875C52.813 30.1874 49.9805 29.8362 47.2222 29.1417L44.3623 28.4215C43.2791 28.8337 42.3459 29.568 41.6867 30.527C41.0276 31.4859 40.6736 32.6242 40.6719 33.7906V45.9712C40.6713 49.8169 40.987 53.6559 41.6159 57.449C42.3859 62.1098 44.8375 66.32 48.5001 69.2717C51.1759 71.4218 54.3969 72.7725 57.7969 73.1702C61.1962 72.7724 64.4165 71.4217 67.0915 69.2717C70.7542 66.32 73.2057 62.1098 73.9757 57.449C74.6053 53.656 74.9218 49.8169 74.9219 45.9712V33.7906C74.9219 32.2631 74.3195 30.7982 73.2472 29.7181C72.175 28.638 70.7207 28.0313 69.2043 28.0312Z" fill="#F2B9A1"/>
<path d="M51.375 40.9688H59.9375V45.2812H51.375V40.9688Z" fill="#808080"/>
<path d="M67.4704 46.5987L74.9219 40.9688V35.5803L64.9016 43.1487L67.4704 46.5987Z" fill="#808080"/>
<path d="M46.6421 43.3255L36.3906 35.5803V40.9688L44.0755 46.7734L46.6421 43.3255Z" fill="#666666"/>
<path d="M59.9375 40.9688H68.5V47.4375H59.9375V40.9688Z" fill="white"/>
<path d="M40.6719 44.2031L44.0755 46.7734L46.6421 43.3255L40.6719 38.8146V44.2031Z" fill="#808080"/>
<path d="M42.8125 40.9688H51.375V47.4375H42.8125V40.9688Z" fill="white"/>
<path d="M74.2433 78.3624C72.6832 77.573 71.3459 76.4001 70.3551 74.9521C69.3643 73.504 68.752 71.8277 68.575 70.0781C68.1042 70.5503 67.6098 70.998 67.0936 71.4193C64.1914 73.7628 60.648 75.1577 56.9373 75.4175C53.2266 75.6772 49.5257 74.7893 46.3296 72.8726C45.3927 75.2532 43.6199 77.2039 41.3483 78.3538C41.0301 78.514 40.7566 78.7514 40.5523 79.0448C40.3481 79.3382 40.2197 79.6782 40.1787 80.0341C40.1377 80.3901 40.1854 80.7507 40.3175 81.0834C40.4496 81.4161 40.6619 81.7104 40.9352 81.9397C45.7482 85.8046 51.6485 88.0426 57.7969 88.3351C65.0512 87.9956 71.9197 84.946 77.0625 79.7812L74.2433 78.3624Z" fill="#F2B9A1"/>
</svg>
