<svg width="551" height="551" viewBox="0 0 551 551" fill="none" xmlns="http://www.w3.org/2000/svg">
<g clip-path="url(#clip0_13_379)">
<path d="M102.019 80.0591C103.695 80.508 105.543 80.3164 107.165 79.3774L189.658 31.6256C192.903 29.7474 194.016 25.5915 192.146 22.3427C190.274 19.0937 186.128 17.9829 182.883 19.8608L100.39 67.6126C97.1458 69.4899 96.032 73.6466 97.903 76.8946C98.839 78.5201 100.344 79.6103 102.019 80.0591Z" fill="#563E2F"/>
<path d="M116.692 96.4109C118.368 96.86 120.216 96.6682 121.838 95.7291L196.446 52.5407C199.691 50.6626 200.804 46.5066 198.933 43.2587C197.062 40.0097 192.916 38.8988 189.672 40.777L115.063 83.9654C111.819 85.8436 110.705 89.9995 112.576 93.2483C113.511 94.8719 115.017 95.962 116.692 96.4109Z" fill="#563E2F"/>
<path d="M132.38 112.079C134.056 112.528 135.904 112.336 137.526 111.397L202.135 73.9965C205.38 72.1184 206.493 67.9625 204.623 64.7137C202.75 61.4636 198.604 60.3536 195.36 62.2318L130.751 99.6321C127.506 101.51 126.392 105.666 128.263 108.915C129.199 110.54 130.705 111.63 132.38 112.079Z" fill="#563E2F"/>
<path d="M152.952 108.313L110.471 61.7655C103.434 54.0546 103.12 42.2925 109.821 34.2705C109.918 34.1546 110.015 34.0388 110.115 33.9217C120.052 22.2744 107.71 13.4633 120.081 6.30206C132.313 -0.778367 133.893 14.2623 148.921 11.4577C149.071 11.4297 149.221 11.4025 149.37 11.3768C159.649 9.56952 169.652 15.7232 172.793 25.6892L191.758 85.8499L152.952 108.313Z" fill="#99573D"/>
<path d="M109.82 34.2694C109.917 34.1535 110.015 34.0377 110.114 33.9206C120.051 22.2733 107.709 13.4631 120.081 6.30097C123.992 4.03722 126.811 4.03945 129.332 4.99144C128.291 12.6768 135.159 23.0189 127.78 31.6697C127.68 31.7859 127.78 31.6697 127.683 31.7857C120.982 39.8077 121.296 51.5698 128.334 59.2807L167.051 100.151L152.952 108.312L110.471 61.7646C103.433 54.0543 103.119 42.2914 109.82 34.2694Z" fill="#894C37"/>
<path d="M397.862 488.698C353.227 514.536 282.576 536.841 237.929 476.141C208.024 435.484 225.751 406.614 222.117 378.738C218.483 350.863 200.634 348.359 181.853 317.292C158.352 278.418 171.343 228.291 228.769 195.049C286.194 161.808 335.988 175.591 357.814 215.434C375.257 247.275 368.496 264.025 390.756 281.119C413.016 298.212 446.816 297.255 466.981 343.55C497.089 412.667 442.497 462.861 397.862 488.698Z" fill="#FCC472"/>
<path d="M222.117 378.738C218.482 350.863 200.634 348.359 181.853 317.292C158.351 278.418 171.343 228.291 228.768 195.049C231.165 193.662 233.547 192.364 235.915 191.139C184.428 224.297 173.431 271.88 195.951 309.132C214.732 340.198 232.58 342.703 236.215 370.578C239.849 398.453 222.122 427.323 252.027 467.981C294.369 525.547 360.095 508.457 404.842 484.5C402.497 485.963 400.165 487.365 397.861 488.699C353.226 514.537 282.575 536.842 237.928 476.142C208.024 435.483 225.751 406.613 222.117 378.738Z" fill="#F4B158"/>
<path d="M261.046 344.313C248.216 322.032 255.854 293.529 278.105 280.649C300.356 267.768 328.794 275.388 341.624 297.669C354.454 319.949 346.816 348.452 324.565 361.333C302.314 374.213 273.876 366.593 261.046 344.313Z" fill="#563E2F"/>
<path d="M278.054 280.638C280.46 279.245 282.941 278.107 285.464 277.186C268.496 291.461 263.646 316.277 275.091 336.151C286.535 356.026 310.394 364.222 331.209 356.626C329.153 358.357 326.928 359.942 324.522 361.335C302.268 374.217 273.825 366.595 260.993 344.312C248.16 322.028 255.799 293.52 278.054 280.638Z" fill="#4C362A"/>
<path d="M310.217 433.763L394.233 385.128C398.656 382.568 400.174 376.903 397.624 372.474L392.191 363.04C389.641 358.611 383.988 357.096 379.565 359.656L295.549 408.291C291.126 410.851 289.608 416.516 292.158 420.945L297.591 430.379C300.141 434.808 305.794 436.322 310.217 433.763Z" fill="#563E2F"/>
<path d="M295.549 408.291L309.648 400.13C305.225 402.69 303.707 408.355 306.257 412.783L311.69 422.218C314.24 426.647 319.892 428.161 324.315 425.601L310.217 433.762C305.794 436.322 300.141 434.808 297.592 430.379L292.159 420.945C289.609 416.517 291.127 410.852 295.549 408.291Z" fill="#4C362A"/>
<path d="M152.953 108.311L168.439 135.216L175.215 146.984L190.837 174.114L197.616 185.873L220.014 224.771L235.637 251.9L242.404 263.666L261.523 296.853C265.447 290.345 271.019 284.709 278.053 280.637C285.087 276.565 292.741 274.545 300.325 274.392L281.207 241.204L274.439 229.439L258.817 202.309L236.418 163.412L229.64 151.652L207.241 112.755L191.756 85.8492L152.953 108.311Z" fill="#725539"/>
<path d="M261.519 296.853L152.951 108.313L167.05 100.151L272.951 284.059C268.28 287.652 264.443 292.01 261.519 296.853Z" fill="#6B4C32"/>
<path d="M214.054 124.561L207.278 112.795L168.482 135.253L175.257 147.019L214.054 124.561Z" fill="#563E2F"/>
<path d="M236.549 163.314L229.777 151.553L190.98 174.011L197.753 185.772L236.549 163.314Z" fill="#563E2F"/>
<path d="M258.857 202.333L252.082 190.567L213.285 213.025L220.061 224.791L258.857 202.333Z" fill="#563E2F"/>
<path d="M281.197 241.363L274.425 229.602L235.629 252.06L242.401 263.821L281.197 241.363Z" fill="#563E2F"/>
</g>
<defs>
<clipPath id="clip0_13_379">
<rect width="448.913" height="449.935" fill="white" transform="matrix(-0.965926 -0.258819 -0.258819 0.965926 550.068 116.187)"/>
</clipPath>
</defs>
</svg>
