<svg width="413" height="438" viewBox="0 0 413 438" fill="none" xmlns="http://www.w3.org/2000/svg">
<g clip-path="url(#clip0_13_9)">
<path fill-rule="evenodd" clip-rule="evenodd" d="M190.04 119.614L200.657 98.8842C222.305 56.6179 272.472 43.1757 312.351 68.9558C352.209 94.7202 367.075 150.2 345.444 192.462L252.087 351.177C250.2 354.475 247.216 356.823 243.719 357.76C240.221 358.697 236.463 358.156 233.18 356.243L72.9881 265.466C33.1069 239.687 18.2411 184.207 39.8947 141.96C61.5244 99.699 111.691 86.2568 151.573 112.036L171.13 124.681C174.381 126.777 178.198 127.421 181.742 126.471C185.287 125.522 188.27 123.056 190.037 119.615L190.04 119.614Z" fill="#FA5A68"/>
<path fill-rule="evenodd" clip-rule="evenodd" d="M253.855 348.158L96.6852 259.117C56.8041 233.337 41.9383 177.857 63.5919 135.611C71.9575 119.234 85.0718 106.498 100.997 99.2833C88.2138 100.499 76.0236 104.996 65.4097 112.409C54.7959 119.822 46.0559 129.945 39.8947 141.961C18.2411 184.207 33.1069 239.687 72.9881 265.467L233.177 356.244C236.46 358.157 240.219 358.698 243.716 357.761C247.214 356.824 250.198 354.476 252.085 351.178L253.855 348.158Z" fill="#E1515E"/>
<path d="M136.011 148.716C135.889 148.219 137.609 147.531 141.172 146.653C144.776 145.765 146.644 145.591 146.777 146.129L149.747 158.185C151.447 157.414 152.67 156.937 153.416 156.753C162.115 154.61 167.695 158.53 170.155 168.514C171.523 174.065 171.234 178.685 169.286 182.372C167.37 186.008 163.946 188.434 159.017 189.649C154.128 190.853 149.798 190.756 146.025 189.356L136.011 148.716ZM154.064 166.876C153.36 167.05 152.733 167.446 152.182 168.065L155.107 179.934C155.748 180.04 156.379 180.016 157.001 179.863C157.664 179.699 158.265 179.288 158.805 178.627C159.761 177.513 159.867 175.443 159.121 172.419C158.07 168.152 156.384 166.304 154.064 166.876ZM174.839 161.164C173.169 159.378 172.175 157.843 171.859 156.559C171.532 155.233 171.675 154.297 172.287 153.751C174.393 152.133 177.497 150.819 181.599 149.809C185.741 148.788 188.902 149.042 191.08 150.57C193.248 152.057 194.797 154.686 195.726 158.456L198.145 168.274L200.258 167.754C200.962 167.58 201.603 167.862 202.18 168.598C202.798 169.325 203.286 170.413 203.643 171.863C204.001 173.313 203.98 174.834 203.581 176.426C203.224 178.008 202.424 178.953 201.181 179.259C198.944 179.81 196.994 179.653 195.331 178.789C194.587 178.445 193.963 177.962 193.458 177.339C192.144 180.211 189.478 182.143 185.46 183.133C182.435 183.878 179.622 183.429 177.02 181.785C174.418 180.141 172.754 177.848 172.03 174.907C170.366 168.154 173.573 163.783 181.651 161.792L185.069 160.95L184.916 160.329C184.65 159.251 184.296 158.614 183.851 158.416C183.438 158.166 182.589 158.199 181.305 158.516C179.731 158.904 177.576 159.786 174.839 161.164ZM182.628 171.373C182.852 172.284 183.274 172.927 183.894 173.302C184.503 173.635 185.181 173.71 185.927 173.526C186.714 173.332 187.342 172.848 187.81 172.073L186.631 167.288L184.891 167.717C182.902 168.207 182.148 169.426 182.628 171.373ZM211.505 130.311C211.352 129.69 212.911 128.976 216.184 128.169C217.303 127.894 218.607 127.66 220.098 127.469C221.62 127.225 222.412 127.228 222.473 127.477L230.543 160.225L232.718 159.689C233.753 159.434 234.667 160.198 235.457 161.98C235.673 162.498 235.898 163.234 236.133 164.187C236.357 165.098 236.343 166.288 236.09 167.757C235.71 169.784 234.609 171.022 232.786 171.471C231.419 171.808 230.131 171.84 228.921 171.567C227.753 171.283 226.911 170.897 226.395 170.409L225.637 169.739C223.899 172.496 221.311 174.299 217.873 175.146C214.434 175.993 211.141 175.289 207.992 173.032C204.843 170.776 202.641 167.1 201.386 162.005C200.12 156.868 200.429 152.595 202.314 149.186C204.188 145.736 207.052 143.537 210.904 142.587C212.023 142.312 213.193 142.155 214.414 142.118L211.505 130.311ZM214.722 152.193C212.402 152.765 211.757 155.143 212.788 159.327C213.309 161.44 214.018 162.891 214.916 163.68C215.803 164.428 216.64 164.705 217.427 164.512C218.256 164.307 218.956 163.761 219.528 162.873L216.925 152.309C216.119 152.069 215.384 152.03 214.722 152.193ZM262.447 161.723C260.215 163.899 257.048 165.493 252.947 166.503C248.846 167.514 245.044 166.978 241.543 164.897C238.032 162.774 235.669 159.248 234.454 154.318C233.229 149.346 233.591 145.017 235.538 141.329C237.527 137.631 240.593 135.272 244.736 134.251C248.879 133.23 252.329 133.501 255.087 135.062C257.886 136.613 259.658 138.901 260.403 141.925C262.057 148.637 259.031 152.942 251.325 154.84L247.038 155.897C247.344 157.14 247.89 157.928 248.675 158.262C249.492 158.544 250.563 158.522 251.888 158.195C254.788 157.481 257.38 156.139 259.663 154.17C259.694 154.118 259.952 154.362 260.437 154.902C261.87 156.439 262.74 157.828 263.046 159.071C263.342 160.272 263.143 161.157 262.447 161.723ZM250.254 145.679C249.826 143.939 248.762 143.278 247.063 143.696C246.276 143.89 245.654 144.307 245.197 144.947C244.77 145.536 244.669 146.286 244.894 147.197L245.369 149.124L248.724 148.297C250.091 147.96 250.601 147.087 250.254 145.679ZM133.838 224.633C133.685 224.011 135.245 223.297 138.518 222.491C139.636 222.215 140.941 221.982 142.432 221.79C143.954 221.547 144.746 221.55 144.807 221.798L152.876 254.547L155.051 254.011C156.087 253.755 157 254.519 157.791 256.302C158.007 256.82 158.232 257.555 158.467 258.508C158.691 259.42 158.677 260.61 158.423 262.078C158.044 264.105 156.943 265.343 155.12 265.792C153.753 266.129 152.465 266.161 151.255 265.888C150.086 265.605 149.244 265.219 148.729 264.731L147.97 264.061C146.233 266.818 143.645 268.62 140.206 269.467C136.768 270.315 133.474 269.61 130.326 267.354C127.177 265.098 124.975 261.422 123.719 256.326C122.454 251.189 122.763 246.916 124.647 243.508C126.522 240.058 129.385 237.858 133.238 236.909C134.357 236.633 135.527 236.477 136.748 236.44L133.838 224.633ZM137.055 246.515C134.735 247.086 134.091 249.464 135.122 253.648C135.642 255.761 136.352 257.212 137.249 258.002C138.137 258.75 138.974 259.027 139.761 258.833C140.59 258.629 141.29 258.083 141.862 257.195L139.259 246.631C138.453 246.39 137.718 246.351 137.055 246.515ZM172.985 260.336C173.067 260.667 171.202 261.302 167.39 262.241C163.621 263.17 161.7 263.49 161.628 263.2L154.11 232.689C154.039 232.399 155.888 231.789 159.658 230.86C163.469 229.921 165.405 229.576 165.467 229.824L172.985 260.336ZM164.563 226.158C164.635 226.448 162.765 227.062 158.953 228.002C155.183 228.931 153.268 229.271 153.207 229.022L151.002 220.074C150.9 219.66 152.734 218.988 156.503 218.059C160.315 217.12 162.251 216.775 162.312 217.023L164.563 226.158ZM187.709 256.576C187.801 256.948 185.734 257.656 181.508 258.697C178.184 259.472 176.486 259.715 176.415 259.425L165.987 217.106C165.834 216.485 167.766 215.679 171.785 214.689C175.337 213.946 177.149 213.719 177.22 214.009L187.709 256.576ZM225.487 215.166C225.395 214.794 226.488 214.326 228.767 213.765C233.904 212.499 236.472 212.042 236.471 212.394L237.822 244.095C237.862 244.789 235.644 245.687 231.17 246.789C226.696 247.892 224.315 248.127 224.027 247.495L218.049 234.203L218.31 248.903C218.339 249.555 216.033 250.453 211.394 251.596C206.795 252.729 204.342 252.938 204.034 252.223L191.046 223.323C190.861 223.105 192.611 222.542 196.298 221.634C199.954 220.777 201.797 220.411 201.828 220.535L209.862 240.834L209.906 218.808C209.927 218.539 211.264 218.078 213.915 217.425C216.566 216.771 217.964 216.559 218.108 216.787L228.257 236.038L225.487 215.166ZM243.724 219.373C242.054 217.588 241.06 216.053 240.744 214.769C240.417 213.443 240.56 212.507 241.172 211.96C243.279 210.343 246.382 209.029 250.484 208.018C254.626 206.997 257.787 207.251 259.965 208.78C262.133 210.267 263.682 212.895 264.611 216.665L267.03 226.484L269.143 225.963C269.847 225.79 270.488 226.071 271.065 226.808C271.683 227.534 272.171 228.622 272.528 230.072C272.886 231.522 272.865 233.044 272.466 234.636C272.109 236.218 271.309 237.162 270.066 237.468C267.829 238.02 265.879 237.863 264.216 236.998C263.472 236.654 262.848 236.171 262.343 235.548C261.029 238.421 258.363 240.352 254.345 241.342C251.32 242.088 248.507 241.638 245.905 239.994C243.303 238.351 241.639 236.058 240.915 233.117C239.251 226.364 242.458 221.992 250.536 220.002L253.954 219.16L253.801 218.538C253.535 217.461 253.181 216.823 252.736 216.625C252.323 216.376 251.475 216.409 250.19 216.725C248.616 217.113 246.461 217.996 243.724 219.373ZM251.513 229.582C251.737 230.494 252.159 231.137 252.779 231.511C253.388 231.845 254.066 231.919 254.812 231.736C255.599 231.542 256.227 231.057 256.695 230.283L255.516 225.498L253.776 225.927C251.787 226.417 251.033 227.635 251.513 229.582ZM286.482 232.237C286.574 232.61 284.507 233.317 280.281 234.358C276.957 235.133 275.259 235.376 275.188 235.086L264.76 192.768C264.607 192.146 266.539 191.34 270.558 190.35C274.11 189.607 275.922 189.38 275.993 189.67L286.482 232.237ZM288.407 208.363C286.737 206.577 285.744 205.042 285.427 203.758C285.101 202.432 285.243 201.496 285.856 200.95C287.962 199.332 291.066 198.018 295.167 197.008C299.31 195.987 302.47 196.241 304.649 197.769C306.817 199.256 308.365 201.885 309.294 205.655L311.714 215.473L313.826 214.953C314.531 214.779 315.171 215.061 315.748 215.797C316.367 216.524 316.855 217.612 317.212 219.062C317.569 220.512 317.548 222.033 317.15 223.625C316.793 225.207 315.993 226.152 314.75 226.458C312.513 227.009 310.563 226.852 308.899 225.988C308.156 225.644 307.531 225.161 307.026 224.538C305.713 227.41 303.047 229.342 299.028 230.332C296.004 231.077 293.191 230.628 290.588 228.984C287.986 227.34 286.323 225.047 285.598 222.106C283.934 215.353 287.141 210.982 295.22 208.991L298.637 208.149L298.484 207.528C298.219 206.45 297.864 205.813 297.42 205.615C297.007 205.365 296.158 205.398 294.874 205.715C293.299 206.103 291.144 206.985 288.407 208.363ZM296.196 218.572C296.421 219.483 296.843 220.126 297.463 220.501C298.072 220.834 298.75 220.909 299.495 220.725C300.282 220.531 300.91 220.047 301.378 219.272L300.199 214.487L298.459 214.916C296.471 215.406 295.716 216.625 296.196 218.572Z" fill="white"/>
</g>
<defs>
<clipPath id="clip0_13_9">
<rect width="329.831" height="364.763" fill="white" transform="translate(0 85.3666) rotate(-15)"/>
</clipPath>
</defs>
</svg>
