<svg width="65" height="64" viewBox="0 0 65 64" fill="none" xmlns="http://www.w3.org/2000/svg">
<g id="Moon" clip-path="url(#clip0_41_16)">
<g id="Group">
<path id="Vector" d="M56.8525 40.6455C48.0965 44.5725 37.8089 40.6262 33.9332 31.8314C30.1502 23.2471 33.9643 13.118 42.471 9.16362C44.1595 8.37874 45.9075 7.88999 47.6579 7.67487C48.7359 7.54237 48.8617 6.02512 47.8185 5.72299C42.5733 4.20362 36.7835 4.46187 31.4089 6.86424C19.3019 12.2761 13.9157 26.3637 19.3255 38.4715C24.7232 50.5521 38.8968 55.9572 50.9658 50.5445C56.3505 48.1295 60.4052 43.9691 62.7625 39.0301C63.2278 38.0552 62.0109 37.141 61.1998 37.8542C59.9308 38.9702 58.4754 39.9176 56.8525 40.6455Z" fill="#FFE02F"/>
<path id="Vector_2" d="M43.2174 52.5573C42.9389 49.5623 41.3857 46.8866 38.9875 45.1658C38.8465 41.4108 35.8012 38.3863 32.038 38.2786C29.3261 34.0608 24.6327 31.4425 19.5059 31.4425C18.7952 31.4425 18.0964 31.4931 17.412 31.5899C17.6951 33.9204 18.3285 36.2484 19.3396 38.5029C23.6159 48.0375 33.3634 53.402 43.2174 52.5573Z" fill="#F9C301"/>
<path id="Vector_3" d="M35.6149 46.8536C35.7798 46.413 35.8704 45.9363 35.8704 45.4381C35.8704 43.2066 34.0614 41.3976 31.8299 41.3976C31.2986 41.3976 30.7917 41.5013 30.3271 41.6876C28.5227 37.498 24.3571 34.5645 19.5058 34.5645C13.0013 34.5645 7.72831 39.8375 7.72831 46.342C3.75793 46.342 0.539307 49.5606 0.539307 53.531C0.539307 57.5014 3.75793 60.7201 7.72843 60.7201H32.9518C36.9222 60.7201 40.1409 57.5015 40.1409 53.531C40.1408 50.5019 38.2664 47.9121 35.6149 46.8536Z" fill="#EFF3F5"/>
<path id="Vector_4" d="M35.6149 46.8536C35.7798 46.413 35.8704 45.9363 35.8704 45.4381C35.8704 43.2066 34.0614 41.3976 31.8299 41.3976C31.2986 41.3976 30.7917 41.5013 30.3271 41.6876C28.5227 37.498 24.3571 34.5645 19.5058 34.5645C13.0013 34.5645 7.72831 39.8375 7.72831 46.342C3.75793 46.342 0.539307 49.5606 0.539307 53.531C0.539307 57.5014 3.75793 60.7201 7.72843 60.7201H32.9518C36.9222 60.7201 40.1409 57.5015 40.1409 53.531C40.1408 50.5019 38.2664 47.9121 35.6149 46.8536Z" fill="#EFF3F5"/>
<path id="Vector_5" d="M35.6149 46.8536C35.7798 46.413 35.8704 45.9363 35.8704 45.4381C35.8704 43.2066 34.0614 41.3976 31.8299 41.3976C31.5813 41.3976 31.3383 41.4211 31.1021 41.4644C31.3609 42.6355 31.4985 43.8521 31.4985 45.101C31.4985 52.199 27.0915 58.2676 20.8644 60.72H32.9516C36.922 60.72 40.1408 57.5014 40.1408 53.5309C40.1408 50.5019 38.2664 47.9121 35.6149 46.8536Z" fill="#C9E2E7"/>
<path id="Vector_6" d="M61.5066 22.2465C61.6171 21.9512 61.6778 21.6317 61.6778 21.298C61.6778 19.8027 60.4657 18.5905 58.9703 18.5905C58.6143 18.5905 58.2747 18.6599 57.9632 18.7849C56.7541 15.9775 53.9627 14.0117 50.7119 14.0117C46.3533 14.0117 42.8199 17.5451 42.8199 21.9037C40.1594 21.9037 38.0026 24.0605 38.0026 26.7211C38.0026 29.3816 40.1593 31.5385 42.8199 31.5385H59.7218C62.3823 31.5385 64.5392 29.3817 64.5392 26.7211C64.5393 24.6911 63.2833 22.9557 61.5066 22.2465Z" fill="#EFF3F5"/>
<path id="Vector_7" d="M61.5066 22.2465C61.6171 21.9512 61.6778 21.6317 61.6778 21.298C61.6778 19.8027 60.4657 18.5905 58.9703 18.5905C58.6143 18.5905 58.2747 18.6599 57.9632 18.7849C56.7541 15.9775 53.9627 14.0117 50.7119 14.0117C46.3533 14.0117 42.8199 17.5451 42.8199 21.9037C40.1594 21.9037 38.0026 24.0605 38.0026 26.7211C38.0026 29.3816 40.1593 31.5385 42.8199 31.5385H59.7218C62.3823 31.5385 64.5392 29.3817 64.5392 26.7211C64.5393 24.6911 63.2833 22.9557 61.5066 22.2465Z" fill="#EFF3F5"/>
<path id="Vector_8" d="M61.5066 22.2465C61.6171 21.9513 61.6778 21.6318 61.6778 21.298C61.6778 19.8028 60.4657 18.5905 58.9703 18.5905C58.8037 18.5905 58.6408 18.6063 58.4826 18.6353C58.6559 19.42 58.7482 20.2353 58.7482 21.0721C58.7482 25.8284 55.7951 29.895 51.6224 31.5383H59.7219C62.3824 31.5383 64.5393 29.3815 64.5393 26.7209C64.5393 24.6911 63.2833 22.9558 61.5066 22.2465Z" fill="#C9E2E7"/>
<g id="Group_2">
<path id="Vector_9" d="M5.96658 17.2001L6.58883 18.4609C6.69808 18.6823 6.9092 18.8356 7.15358 18.8711L8.54483 19.0733C9.15995 19.1626 9.40558 19.9186 8.96045 20.3525L7.9537 21.3339C7.77695 21.5061 7.69633 21.7544 7.73795 21.9978L7.97558 23.3834C8.0807 23.996 7.43758 24.4633 6.88733 24.174L5.64295 23.5198C5.42445 23.4049 5.16345 23.4049 4.94495 23.5198L3.70058 24.174C3.15033 24.4633 2.50733 23.996 2.61233 23.3834L2.84995 21.9978C2.8917 21.7545 2.81108 21.5063 2.6342 21.3339L1.62745 20.3525C1.18233 19.9186 1.42795 19.1626 2.04308 19.0733L3.43433 18.8711C3.67858 18.8356 3.88983 18.6823 3.99908 18.4609L4.62133 17.2001C4.89658 16.6428 5.69145 16.6428 5.96658 17.2001Z" fill="#FFE02F"/>
<path id="Vector_10" d="M57.2052 53.753L57.6583 54.6711C57.7676 54.8925 57.9787 55.0459 58.2231 55.0814L59.2363 55.2286C59.8515 55.318 60.0971 56.074 59.652 56.5079L58.9187 57.2226C58.742 57.3949 58.6613 57.6431 58.703 57.8865L58.8761 58.8956C58.9812 59.5082 58.3381 59.9755 57.7878 59.6862L56.8816 59.2097C56.6631 59.0949 56.4021 59.0949 56.1836 59.2097L55.2773 59.6862C54.7271 59.9755 54.0841 59.5082 54.1891 58.8956L54.3622 57.8865C54.404 57.6432 54.3233 57.395 54.1465 57.2226L53.4132 56.5079C52.9681 56.074 53.2137 55.318 53.8288 55.2286L54.8421 55.0814C55.0863 55.0459 55.2976 54.8925 55.4068 54.6711L55.86 53.753C56.1352 53.1956 56.9301 53.1956 57.2052 53.753Z" fill="#FFE02F"/>
<path id="Vector_11" d="M17.0575 3.55863L17.5997 4.65725C17.6726 4.80488 17.8134 4.90713 17.9762 4.93075L19.1886 5.10688C19.5987 5.1665 19.7625 5.6705 19.4657 5.95975L18.5885 6.81488C18.4706 6.92975 18.4169 7.09525 18.4447 7.2575L18.6519 8.465C18.7219 8.8735 18.2932 9.18488 17.9264 8.99213L16.842 8.422C16.6964 8.34538 16.5224 8.34538 16.3766 8.422L15.2922 8.99213C14.9254 9.185 14.4967 8.8735 14.5667 8.465L14.7739 7.2575C14.8017 7.09525 14.7479 6.92975 14.6301 6.81488L13.7529 5.95975C13.4561 5.6705 13.6199 5.1665 14.03 5.10688L15.2424 4.93075C15.4052 4.90713 15.546 4.80475 15.6189 4.65725L16.1611 3.55863C16.3442 3.187 16.8741 3.187 17.0575 3.55863Z" fill="#FFE02F"/>
</g>
</g>
</g>
<defs>
<clipPath id="clip0_41_16">
<rect width="64" height="64" fill="white" transform="translate(0.539307)"/>
</clipPath>
</defs>
</svg>
