<svg width="120" height="120" viewBox="0 0 120 120" fill="none" xmlns="http://www.w3.org/2000/svg">
<g clip-path="url(#clip0_50_103)">
<path d="M90.8275 25.1274C89.443 25.4174 17.8378 40.4153 17.4364 40.4993C13.6137 41.3 11.1551 45.0615 11.9558 48.8844L22.8477 100.887C23.5559 104.267 26.6751 106.673 30.1213 106.509L31.5787 107.244L103.581 92.1631L105.698 90.6791C108.921 89.4465 110.813 85.9916 110.104 82.6104C109.742 80.8803 99.5402 32.1734 99.2124 30.6083C98.4117 26.7854 94.6502 24.3268 90.8275 25.1274Z" fill="#365E7D"/>
<path d="M29.4609 99.5013L18.569 47.4992C17.7683 43.6763 20.2269 39.9148 24.0496 39.1141C20.0126 39.9597 17.5101 40.4838 17.4362 40.4993C13.6135 41.3 11.1548 45.0615 11.9555 48.8844L22.8475 100.887C23.5556 104.267 26.6749 106.673 30.1211 106.509L31.5785 107.244L38.1919 105.859L36.7345 105.124C33.2884 105.288 30.1691 102.882 29.4609 99.5013Z" fill="#2B4D66"/>
<path d="M93.2532 37.4019L20.5545 52.6288L19.5715 54.2056L28.9562 99.0118C29.1001 99.6988 29.7736 100.139 30.4606 99.9953L102.773 84.8492C103.46 84.7053 103.901 84.0317 103.757 83.3447C103.511 82.17 94.6567 39.898 94.3719 38.5383L93.2532 37.4019Z" fill="#E4F6FF"/>
<path d="M37.0418 97.3183L27.6571 52.5121L28.6401 50.9353L20.5545 52.6288L19.5715 54.2056L28.9562 99.0118C29.1001 99.6988 29.7736 100.139 30.4606 99.9953L38.5462 98.3017C37.8592 98.4456 37.1857 98.0052 37.0418 97.3183Z" fill="#D3EFFB"/>
<path d="M26.112 45.1351L19.2702 46.5681C18.5832 46.712 18.143 47.3856 18.2869 48.0726L19.5715 54.2057L27.6571 52.5121L28.0702 51.8332L26.7267 45.4187L26.112 45.1351Z" fill="#DD636E"/>
<path d="M91.5831 31.4219C88.3709 32.0947 28.6577 44.6018 26.1118 45.135L27.657 52.5121L94.3718 38.5385L93.0873 32.4054C92.9434 31.7185 92.2699 31.2781 91.5831 31.4219Z" fill="#B1E4F9"/>
<path d="M116.18 88.4839L19.6399 108.704C19.0006 108.838 18.592 109.47 18.7272 110.116L19.5693 114.136C20.1941 117.119 23.1225 119.054 26.0767 118.435L114.189 99.9795C117.143 99.3607 119.049 96.4138 118.424 93.4308L117.582 89.4104C117.447 88.7647 116.819 88.35 116.18 88.4839Z" fill="#407093"/>
<path d="M31.5964 111.617L30.7543 107.597C30.6191 106.951 31.0277 106.319 31.667 106.185L19.6399 108.704C19.0006 108.838 18.592 109.47 18.7272 110.116L19.5693 114.136C20.1941 117.119 23.1225 119.054 26.0767 118.435L38.1038 115.916C35.1495 116.534 32.2212 114.6 31.5964 111.617Z" fill="#365E7D"/>
<path d="M53.4907 101.614L54.0557 104.312C54.3333 105.637 55.6346 106.497 56.9475 106.222L81.0115 101.182C82.3245 100.907 83.1713 99.597 82.8937 98.2714L82.3287 95.5741L53.4907 101.614Z" fill="#5C90B9"/>
<path d="M66.083 101.792L65.5181 99.0952L53.491 101.614L54.0559 104.312C54.3336 105.637 55.6349 106.497 56.9478 106.222L68.9749 103.703C67.662 103.978 66.3607 103.118 66.083 101.792Z" fill="#4A80AA"/>
<path d="M70.8809 60.0362C70.0571 60.2088 69.2494 59.6808 69.0768 58.8569L67.5434 51.5359C67.5175 51.4121 67.3863 51.3265 67.2625 51.3525L49.5447 55.0635C49.4209 55.0894 49.3351 55.2205 49.361 55.3442L50.8944 62.6653C51.067 63.4893 50.539 64.2969 49.7152 64.4694C48.8913 64.642 48.0836 64.114 47.911 63.2902L46.3776 55.9691C46.0063 54.1961 47.1468 52.4512 48.9198 52.0799L66.6376 48.3689C68.4108 47.9975 70.1554 49.138 70.5268 50.911L72.0602 58.2321C72.2328 59.0561 71.7048 59.8637 70.8809 60.0362Z" fill="#B06C6C"/>
<path d="M87.0281 44.9679C98.2684 42.6136 105.472 31.5931 103.118 20.3528C100.763 9.1125 89.7428 1.90899 78.5025 4.26329C67.2622 6.61759 60.0587 17.6382 62.413 28.8785C64.7673 40.1187 75.7879 47.3222 87.0281 44.9679Z" fill="#90D8F9"/>
<path d="M70.7213 27.1382C68.6652 17.3217 73.8995 7.67311 82.7457 3.81789C81.3463 3.82057 79.9262 3.96484 78.5025 4.26304C67.2622 6.61735 60.0587 17.6379 62.413 28.8782C64.7673 40.1185 75.7878 47.322 87.0281 44.9677C88.4519 44.6695 89.8103 44.2318 91.0934 43.6726C81.4435 43.6918 72.7774 36.9548 70.7213 27.1382Z" fill="#75CEF9"/>
<path d="M78.9834 69.3926L45.9657 76.3082L44.4243 77.3941L46.8516 88.9825C47.0502 89.9307 47.9884 90.544 48.9366 90.3454L81.9781 83.4248C82.9263 83.2262 83.5396 82.2879 83.341 81.3397C83.0844 80.1148 81.214 71.1847 80.9138 69.7513L78.9834 69.3926Z" fill="#B06C6C"/>
<path d="M53.2204 87.6485C52.9638 86.4235 51.0933 77.4933 50.7931 76.0601L52.3345 74.9742L45.9657 76.3082L44.4243 77.3941L46.8516 88.9825C47.0502 89.9307 47.9884 90.544 48.9366 90.3454L55.3054 89.0114C54.3572 89.21 53.419 88.5967 53.2204 87.6485Z" fill="#9D5E5E"/>
<path d="M85.7626 38.9256C87.6778 38.5245 88.9052 36.6467 88.5041 34.7315C88.1029 32.8162 86.2251 31.5888 84.3099 31.99C82.3946 32.3911 81.1672 34.2689 81.5684 36.1841C81.9695 38.0994 83.8473 39.3268 85.7626 38.9256Z" fill="#E4F6FF"/>
<path d="M85.0362 35.4578C84.7675 34.175 85.2319 32.9114 86.1417 32.0946C85.5692 31.9058 84.9422 31.8575 84.3099 31.99C82.3948 32.3911 81.1672 34.2688 81.5684 36.1841C81.9696 38.0995 83.8473 39.3268 85.7626 38.9256C86.3949 38.7932 86.9499 38.4974 87.3984 38.0949C86.2373 37.7118 85.3049 36.7406 85.0362 35.4578Z" fill="#D3EFFB"/>
<path d="M95.7493 19.6564C86.7838 13.5802 74.6542 16.1236 68.8826 25.2837C68.434 25.9958 67.4929 26.2098 66.7806 25.7606C66.0685 25.312 65.8549 24.371 66.3035 23.6588C72.9848 13.055 87.048 10.077 97.4594 17.1332C98.1561 17.6054 98.3383 18.5532 97.8659 19.2497C97.3944 19.9461 96.4469 20.129 95.7493 19.6564Z" fill="#E4F6FF"/>
<path d="M92.7338 24.4932C86.3616 20.0231 77.6248 21.8583 73.5857 28.5038C73.1486 29.223 72.2109 29.4516 71.4917 29.0145C70.7723 28.5773 70.5437 27.6396 70.981 26.9204C75.9254 18.7857 86.6887 16.5293 94.4843 21.9976C95.1735 22.4811 95.3403 23.4315 94.8568 24.1207C94.3739 24.8093 93.4234 24.977 92.7338 24.4932Z" fill="#E4F6FF"/>
<path d="M89.6911 29.3162C85.9473 26.483 80.5984 27.606 78.3079 31.7005C77.897 32.4351 76.9683 32.6977 76.2336 32.2865C75.4989 31.8756 75.2367 30.9468 75.6476 30.2124C78.8435 24.5003 86.3158 22.9396 91.5306 26.8856C92.2017 27.3935 92.3342 28.3496 91.8262 29.0206C91.3191 29.6911 90.3631 29.8246 89.6911 29.3162Z" fill="#E4F6FF"/>
<path d="M76.3814 56.7041L43.3397 63.6247C42.3915 63.8234 41.7782 64.7616 41.9768 65.7098L44.4241 77.394C44.6227 78.3422 45.561 78.9555 46.5092 78.7569L79.5506 71.8363C80.4988 71.6377 81.1121 70.6994 80.9135 69.7512L78.4662 58.067C78.2676 57.1188 77.3294 56.5055 76.3814 56.7041Z" fill="#BC7F7F"/>
<path d="M50.7931 76.06L48.3459 64.3759C48.1473 63.4277 48.7605 62.4894 49.7087 62.2908L43.3399 63.6247C42.3917 63.8234 41.7785 64.7616 41.9771 65.7098L44.4243 77.394C44.6229 78.3422 45.5612 78.9555 46.5094 78.7569L52.8782 77.4229C51.93 77.6215 50.9917 77.0082 50.7931 76.06Z" fill="#B06C6C"/>
<path d="M74.292 76.3212C73.4681 76.4938 72.6604 75.9658 72.4878 75.142L71.5092 70.4697C71.3366 69.6457 71.8646 68.8381 72.6885 68.6656C73.5123 68.493 74.3201 69.021 74.4926 69.8449L75.4712 74.5171C75.6438 75.3409 75.1158 76.1487 74.292 76.3212Z" fill="#E4F6FF"/>
<path d="M53.1262 80.7543C52.3023 80.9269 51.4946 80.3989 51.3221 79.5751L50.3434 74.9028C50.1708 74.0788 50.6989 73.2713 51.5227 73.0987C52.3466 72.9261 53.1543 73.4541 53.3269 74.278L54.3055 78.9502C54.478 79.7741 53.9501 80.5818 53.1262 80.7543Z" fill="#E4F6FF"/>
<path d="M49.2778 62.3811L50.0679 66.153C50.3612 67.5536 51.7471 68.4593 53.1477 68.166L69.2205 64.7995C70.621 64.5061 71.5269 63.1202 71.2336 61.7198L70.4436 57.9479L49.2778 62.3811Z" fill="#B06C6C"/>
<path d="M56.4367 64.8193L55.6466 61.0471L49.2778 62.3811L50.0679 66.153C50.3612 67.5534 51.7471 68.4593 53.1477 68.166L59.5165 66.832C58.1159 67.1255 56.73 66.2197 56.4367 64.8193Z" fill="#9D5E5E"/>
</g>
<defs>
<clipPath id="clip0_50_103">
<rect width="101" height="101" fill="white" transform="translate(0 20.7053) rotate(-11.8297)"/>
</clipPath>
</defs>
</svg>
