<svg width="128" height="128" viewBox="0 0 128 128" fill="none" xmlns="http://www.w3.org/2000/svg">
<g clip-path="url(#clip0_52_173)">
<path d="M86.2916 107.083C85.7828 105.455 84.048 104.546 82.4196 105.055L81.5345 102.223L70.0942 105.797L70.9667 108.589C69.338 109.098 68.4412 110.87 68.9626 112.539C69.3963 113.927 70.7251 115.186 74.6282 113.966L84.2633 110.955C85.8919 110.446 86.7996 108.709 86.2916 107.083Z" fill="#585465"/>
<path d="M71.5632 111.726C71.0418 110.058 71.9388 108.285 73.5673 107.777L72.6948 104.985L66.7832 106.832L67.6682 109.664C66.0396 110.173 65.1319 111.91 65.6399 113.536C66.1487 115.165 67.8835 116.073 69.512 115.565L74.6278 113.966C73.2746 113.997 71.9969 113.114 71.5632 111.726Z" fill="#4B4656"/>
<path d="M84.3516 89.1338C84.1403 85.7284 85.1803 82.3205 87.2943 79.5379C87.6344 79.0482 85.8475 81.4812 91.677 73.6455C93.7735 70.827 93.2721 66.878 90.5922 64.6677C90.2461 64.3824 90.4403 63.8037 90.8897 63.7864C94.3614 63.6525 97.1533 60.8146 97.1919 57.3023L97.2746 50.0292C97.3151 46.5163 94.587 43.6171 91.1192 43.4033C90.6729 43.3758 90.4882 42.7954 90.8421 42.5166C93.5713 40.3664 94.1633 36.4299 92.1299 33.5649L87.9209 27.6328C85.8895 24.7673 81.9786 24.0241 79.0482 25.8905C78.67 26.1314 78.1795 25.7681 78.3018 25.3354C79.2466 21.9925 77.4103 18.4606 74.0821 17.3372L67.1896 15.0112C63.8612 13.8879 60.2605 15.5849 58.9864 18.8168C58.822 19.2338 58.2115 19.2284 58.056 18.8061C57.4442 17.1455 56.2193 15.8706 54.7221 15.1565C39.3976 15.7356 26.9538 44.0358 31.9336 60.513C35.6172 72.7018 44.7641 81.7103 55.8643 85.7007C60.6871 87.4345 64.4408 91.2935 65.9694 96.1854C66.9272 99.4178 70.5726 99.314 75.1689 98.0299C80.8276 95.7814 85.3589 92.3574 84.3516 89.1338Z" fill="#F0EDFF"/>
<path d="M63.7207 83.2466C52.6204 79.2562 43.4736 70.2476 39.79 58.0589C34.8102 41.5819 41.2962 24.4404 54.7224 15.1572C53.2807 14.4697 51.5866 14.3022 49.942 14.8161L42.9946 16.987C39.6418 18.0346 37.7273 21.524 38.596 24.8874C38.7069 25.3169 38.2126 25.677 37.8372 25.4259C34.9496 23.4944 31.0233 24.1494 28.9267 26.9679L24.5847 32.8044C22.4882 35.6228 22.9896 39.5719 25.6696 41.7822C26.016 42.068 25.8196 42.6463 25.3721 42.6636C21.9003 42.7976 19.1086 45.6354 19.0701 49.1476L18.9873 56.4204C18.9468 59.9333 21.6748 62.8325 25.1427 63.0463C25.5854 63.0737 25.7744 63.6537 25.4198 63.9332C22.6906 66.0834 22.0986 70.0199 24.132 72.8849L28.341 78.817C30.3724 81.6823 34.2829 82.4256 37.2131 80.5595C37.591 80.3189 38.0825 80.6806 37.9598 81.1149C37.0155 84.4577 38.8518 87.9892 42.1797 89.1124C51.4334 92.2349 48.5791 91.2521 49.1376 91.4612C52.46 92.5453 55.2551 94.7547 57.0203 97.6745C58.3443 101.912 67.731 100.987 75.1692 98.0306L73.8257 93.7313C72.297 88.8395 68.5434 84.9802 63.7207 83.2466Z" fill="#D5D4FF"/>
<path d="M64.3463 83.4876L64.2951 83.3239C62.7126 78.2594 59.3687 74.0727 54.8798 71.5356L53.4431 70.7237C52.7002 70.304 51.7574 70.5658 51.3371 71.3089C50.9172 72.0519 51.1791 72.9948 51.9223 73.4148L53.359 74.2268C56.3894 75.9393 58.8716 78.6556 60.4132 81.8792C62.6658 86.4257 63.6519 85.4776 64.3463 83.4876Z" fill="#D5D4FF"/>
<path d="M65.3947 97.2056C65.6493 98.0204 66.5161 98.4744 67.3309 98.2198C68.1455 97.9652 68.5997 97.0984 68.3451 96.2836L64.3466 83.4874C63.435 83.1175 62.4467 82.8296 60.4133 81.8789C61.3693 83.8784 61.2784 84.2205 65.3947 97.2056Z" fill="#BABBF2"/>
<path d="M76.1815 95.454C75.3669 95.7085 74.4999 95.2545 74.2453 94.4397L70.1957 81.4797C68.6131 76.4152 68.9784 71.0696 71.2242 66.4281L71.9431 64.9426C72.3149 64.1741 73.239 63.853 74.0075 64.2246C74.7757 64.5964 75.0973 65.5207 74.7255 66.2891L74.0066 67.7746C72.1319 71.6492 71.8181 76.3086 73.1459 80.5581L77.1956 93.5181C77.4502 94.3329 76.9961 95.1994 76.1815 95.454Z" fill="#D5D4FF"/>
<path d="M90.4453 94.4512C89.1725 90.378 84.8382 88.1075 80.765 89.3803C79.6026 89.7435 71.7993 92.1819 66.0204 93.9876C60.7317 95.6402 59.6496 100.468 60.6763 103.753C61.7013 107.034 65.9968 110.187 70.63 108.739L85.3746 104.131C89.4417 102.861 91.7205 98.5323 90.4453 94.4512Z" fill="#665F75"/>
<path d="M63.9913 102.718C62.9646 99.4319 63.8641 96.0564 66.0202 93.9878C63.2999 94.8378 61.0274 95.5479 60.1088 95.835C56.0414 97.1059 53.7626 101.434 55.0378 105.515C56.3106 109.588 60.6449 111.859 64.7181 110.586L70.6298 108.739C67.6769 108.265 65.0164 105.998 63.9913 102.718Z" fill="#585465"/>
<path d="M112.199 81.1772C109.853 73.6702 102.308 69.23 94.7634 70.5701C78.2625 75.7258 87.4028 104.98 103.904 99.8242C110.856 96.6354 114.549 88.6983 112.199 81.1772Z" fill="#FCE299"/>
<path d="M94.7634 70.5701C85.5102 72.2137 79.9366 81.5635 82.6965 90.3959C85.4504 99.2092 95.3467 103.749 103.904 99.8242C90.9357 97.4036 85.4749 79.9469 94.7634 70.5701Z" fill="#FDCD64"/>
<path d="M96.9868 84.3113C96.1855 84.5617 95.308 84.1208 95.0506 83.2971C94.7964 82.4836 95.2514 81.6151 96.0648 81.3609L99.015 80.4391C99.8297 80.1845 100.284 79.3177 100.029 78.5029C99.7747 77.6881 98.9079 77.2341 98.0931 77.4887L96.6179 77.9496L96.157 76.4744C95.9024 75.6596 95.0356 75.2056 94.2208 75.4602C93.4062 75.7147 92.952 76.5816 93.2066 77.3964L93.7468 79.1252C92.2202 80.2706 91.4992 82.2956 92.1001 84.2186C92.8655 86.668 95.4689 88.0235 97.9083 87.2612C98.7096 87.0108 99.5871 87.4517 99.8445 88.2754C100.095 89.0785 99.6525 89.9547 98.8302 90.2116L95.88 91.1335C95.0654 91.388 94.6112 92.2548 94.8658 93.0696C95.1204 93.8844 95.9872 94.3385 96.802 94.0839L98.2772 93.6229L98.7381 95.0981C98.9927 95.9129 99.8595 96.3669 100.674 96.1123C101.489 95.8578 101.943 94.991 101.689 94.1762L101.148 92.4448C102.687 91.293 103.395 89.2744 102.795 87.3539C102.029 84.9046 99.4262 83.5491 96.9868 84.3113Z" fill="#FDCD64"/>
<path d="M84.3451 54.2185L80.1967 40.9425L40.1719 53.4492L44.3944 66.9625C45.6427 70.9572 49.6544 74.8146 56.0949 72.8021L78.2342 65.8841C83.1437 64.3498 85.8791 59.1277 84.3451 54.2185Z" fill="#F38054"/>
<path d="M47.4678 66.0022L43.2452 52.4889L32.9932 55.6924L37.1416 68.9684C38.6756 73.8775 43.8978 76.6132 48.8069 75.0792L56.0951 72.8018C52.2501 72.6203 48.7159 69.9967 47.4678 66.0022Z" fill="#E56948"/>
<path d="M63.3063 38.7053C62.4917 38.9598 61.6247 38.5058 61.3701 37.691L60.0967 33.6157C59.4433 31.5248 57.2107 30.3552 55.1198 31.0086L47.9526 33.2482C45.8617 33.9015 44.6921 36.1342 45.3455 38.2251L46.6189 42.3004C46.8735 43.115 46.4195 43.982 45.6047 44.2366C44.7899 44.4912 43.9231 44.0371 43.6685 43.2223L42.3951 39.147C41.2334 35.4293 43.3129 31.4597 47.0305 30.298L54.1977 28.0585C57.9154 26.8968 61.885 28.9762 63.0467 32.6939L64.3201 36.7692C64.5749 37.5838 64.1209 38.4507 63.3063 38.7053Z" fill="#E56948"/>
<path d="M80.1968 40.9425L79.7592 39.542C78.2252 34.6328 73.003 31.8972 68.0938 33.4312C63.6201 34.8291 53.6056 37.9584 45.9543 40.3492C39.1696 42.4693 38.412 47.8169 39.6602 51.8116L42.6112 61.2555L46.0225 61.377L74.1235 52.5961C79.0088 51.0481 81.7271 45.8398 80.1968 40.9425Z" fill="#F9996E"/>
<path d="M42.7333 50.8513C41.4851 46.8566 42.8968 42.6877 45.9543 40.3492C43.0343 41.2616 40.4579 42.0666 38.6661 42.6265C33.757 44.1605 31.0214 49.3827 32.5554 54.2919L32.993 55.6923C34.5233 60.5897 39.7233 63.3237 44.6209 61.8148L46.0223 61.3769L43.1851 52.297L42.7333 50.8513Z" fill="#F38054"/>
<path d="M74.5842 54.0711C75.0931 55.6995 74.1843 57.4343 72.5559 57.9432C70.9274 58.452 69.1927 57.5433 68.6838 55.9148C68.3614 54.883 68.0843 53.9964 67.7619 52.9646C67.2531 51.3361 68.1618 49.6014 69.7903 49.0925C71.4161 48.5845 73.1535 49.4924 73.6624 51.1209L74.5842 54.0711Z" fill="#FCE299"/>
<path d="M50.9824 61.4461C51.4913 63.0745 50.5825 64.8093 48.9541 65.3182C47.3256 65.827 45.5909 64.9183 45.082 63.2898C44.7596 62.258 44.4825 61.3714 44.1601 60.3396C43.6513 58.7111 44.56 56.9764 46.1885 56.4675C47.8143 55.9595 49.5517 56.8674 50.0606 58.4959L50.9824 61.4461Z" fill="#FCE299"/>
<path d="M59.5568 47.4328L53.6564 49.2765C52.8418 49.5311 51.9748 49.0771 51.7202 48.2623C51.4656 47.4475 51.9197 46.5808 52.7345 46.3261L58.6349 44.4824C59.4495 44.2279 60.3164 44.6819 60.571 45.4967C60.8256 46.3115 60.3716 47.1782 59.5568 47.4328Z" fill="#FCE299"/>
</g>
<defs>
<clipPath id="clip0_52_173">
<rect width="102" height="102" fill="white" transform="translate(0 30.4216) rotate(-17.3527)"/>
</clipPath>
</defs>
</svg>
