<svg width="145" height="145" viewBox="0 0 145 145" fill="none" xmlns="http://www.w3.org/2000/svg">
<g clip-path="url(#clip0_50_84)">
<path d="M81.903 119.049C80.4603 119.352 79.1768 118.401 78.8741 116.959L74.49 96.0644C74.1871 94.6205 74.9805 93.2353 76.4232 92.9325C77.8659 92.6298 79.1495 93.5806 79.4522 95.0233L83.8359 115.916C84.1389 117.36 83.3458 118.747 81.903 119.049Z" fill="#147BB6"/>
<path d="M92.8975 119.469L72.0044 123.853C70.5617 124.155 69.1755 123.364 68.8725 121.92C68.5695 120.476 69.5218 119.193 70.9633 118.891L91.8563 114.507C93.2991 114.204 94.6852 114.996 94.9882 116.44C95.2912 117.884 94.3402 119.166 92.8975 119.469Z" fill="#147BB6"/>
<path d="M104.502 16.1486L118.002 80.4902C118.717 83.8991 116.864 87.1735 113.865 87.8029L40.0777 103.285C37.0781 103.914 34.0655 101.661 33.3502 98.2517L19.8501 33.9102" fill="#ECF1F7"/>
<path d="M109.809 17.4893L15.5288 37.2711C14.158 37.5588 12.8148 36.6814 12.5272 35.3107C12.2395 33.9399 13.1169 32.5966 14.4877 32.309L108.768 12.5271C110.139 12.2395 111.482 13.1168 111.77 14.4876C112.057 15.8584 111.18 17.2017 109.809 17.4893Z" fill="#147BB6"/>
<path d="M74.6688 75.2009L55.5151 62.6897L70.06 40.4205C72.0763 37.3334 74.9947 34.9402 78.4171 33.5668L89.5042 29.119C90.5565 28.6962 91.7091 29.449 91.7464 30.5835L92.1301 42.5233C92.2481 46.2091 91.2311 49.843 89.2135 52.9304L74.6688 75.2009Z" fill="#CDD4EA"/>
<path d="M89.6352 44.6696C89.3015 44.7396 88.9398 44.6821 88.6321 44.4812L77.9625 37.5114C77.3456 37.1085 77.1723 36.2823 77.5752 35.6654C77.9781 35.0486 78.8043 34.8753 79.4211 35.2781L90.0907 42.2479C90.7075 42.6508 90.8809 43.477 90.478 44.0939C90.277 44.4015 89.9689 44.5996 89.6352 44.6696Z" fill="#A4ADC4"/>
<path d="M60.7229 90.6211C60.0542 90.7614 59.332 90.6461 58.7151 90.2432C57.4814 89.4375 57.1345 87.7838 57.9415 86.5499L59.7275 83.8154C60.5332 82.5817 62.1869 82.2348 63.4206 83.0405C64.6542 83.8463 65.0012 85.4999 64.1942 86.7339L62.4082 89.4683C62.0056 90.0864 61.3903 90.481 60.7229 90.6211Z" fill="#F05266"/>
<path d="M51.0741 92.121C50.4054 92.2613 49.6831 92.1461 49.0663 91.7432C47.8326 90.9374 47.4857 89.2838 48.2927 88.0499L53.6509 79.8476C54.4579 78.6137 56.1116 78.2667 57.344 79.0727C58.5777 79.8785 58.9247 81.5321 58.1177 82.7661L52.7594 90.9683C52.3567 91.5864 51.7427 91.9807 51.0741 92.121Z" fill="#F05266"/>
<path d="M48.5698 82.6856C47.9011 82.8259 47.1801 82.7104 46.5632 82.3075C45.3301 81.5042 44.9814 79.8484 45.7859 78.615L47.5714 75.878C48.3771 74.6443 50.0308 74.2974 51.2644 75.1031C52.4976 75.9064 52.8463 77.5623 52.0418 78.7957L50.2563 81.5326C49.8549 82.1505 49.2396 82.5451 48.5698 82.6856Z" fill="#F05266"/>
<path d="M71.8178 73.5881L69.1999 80.2155C69.0096 80.6971 68.4269 80.8828 67.9931 80.5995L53.2506 70.9706C52.8183 70.6883 52.7529 70.0803 53.1161 69.7127L58.1932 64.5651" fill="#335C88"/>
<path d="M63.1088 51.0614C63.4774 50.4971 63.0433 49.7554 62.3712 49.7993L56.256 50.1965C55.9991 50.2129 55.7662 50.3498 55.6248 50.5647L48.3161 61.7548C47.9475 62.3191 48.3816 63.0608 49.0536 63.0169L55.1689 62.6197C55.4258 62.6034 55.6587 62.4664 55.8001 62.2516" fill="#EE2763"/>
<path d="M82.2637 63.5724C82.6322 63.008 83.4859 63.1074 83.7158 63.7404L85.8101 69.4996C85.8984 69.7414 85.8666 70.0096 85.7267 70.2255L78.418 81.4156C78.0494 81.9799 77.1958 81.8806 76.9658 81.2476L74.8716 75.4884C74.7833 75.2466 74.815 74.9783 74.955 74.7625" fill="#EE2763"/>
<path d="M78.6085 54.5895C81.2586 54.0334 82.9561 51.4344 82.4001 48.7843C81.844 46.1342 79.245 44.4367 76.5949 44.9927C73.9448 45.5488 72.2473 48.1478 72.8033 50.7979C73.3593 53.448 75.9584 55.1455 78.6085 54.5895Z" fill="#90D8F2"/>
<path d="M78.8823 55.8946C77.2523 56.2366 75.5857 55.9232 74.1915 55.0125C72.7972 54.1019 71.8403 52.7019 71.4983 51.0718C71.1558 49.4393 71.47 47.7764 72.3804 46.3809C74.2026 43.5909 78.2232 42.7473 81.012 44.5698C82.4057 45.478 83.3626 46.878 83.7052 48.5106C84.0472 50.1406 83.7335 51.806 82.8231 53.2015C81.9124 54.5957 80.5124 55.5526 78.8823 55.8946ZM76.8693 46.3003C75.9364 46.4961 75.1353 47.0423 74.6139 47.8408C74.0931 48.6364 73.9139 49.591 74.1096 50.5239C74.3048 51.4543 74.8526 52.2563 75.651 52.7778C77.2469 53.8223 79.5469 53.3397 80.5896 51.7416C81.1099 50.9434 81.289 49.9889 81.0938 49.0585C80.8981 48.1256 80.3516 47.3233 79.5537 46.8043C78.7552 46.2828 77.8022 46.1046 76.8693 46.3003Z" fill="#147BB6"/>
</g>
<defs>
<clipPath id="clip0_50_84">
<rect width="121.684" height="121.684" fill="white" transform="translate(0 24.9875) rotate(-11.8499)"/>
</clipPath>
</defs>
</svg>
