<svg width="152" height="152" viewBox="0 0 152 152" fill="none" xmlns="http://www.w3.org/2000/svg">
<g clip-path="url(#clip0_13_146)">
<path d="M107.307 97.581L102.526 94.666C98.9786 93.8063 95.2734 93.35 91.4615 93.35C90.5471 93.35 89.8061 92.609 89.8061 91.6946V82.3976H53.343V91.6943C53.343 92.6087 52.602 93.3497 51.6877 93.3497C47.8755 93.3497 44.1705 93.8057 40.6225 94.6654L36.832 97.2369V115.839H107.307V97.581Z" fill="#FFCBBE"/>
<path d="M107.307 97.581L102.526 94.666C98.9787 93.8063 95.2734 93.35 91.4615 93.35C90.5475 93.35 89.8062 92.609 89.8062 91.6946V82.3976H80.7776V98.3689C80.7776 99.2833 81.5186 100.024 82.433 100.024C91.5726 100.024 100.099 102.644 107.307 107.169V97.581H107.307Z" fill="#EAAC9D"/>
<path d="M91.0907 0.0276063C90.6656 -0.0780812 90.2233 0.126763 90.0324 0.521013C87.9706 4.78057 83.608 7.71904 78.5582 7.71904H58.6435C49.4638 7.71964 42.0223 15.1611 42.0223 24.3408V42.4772H99.8901V30.2869C99.8901 27.6943 100.518 25.1486 101.66 22.8208C102.712 20.6765 103.304 18.2655 103.304 15.7154C103.304 8.11181 98.1445 1.78036 91.0907 0.0276063Z" fill="#7A402B"/>
<path d="M91.0907 0.0276063C90.6656 -0.0780812 90.2233 0.126763 90.0324 0.521013C89.6645 1.28101 89.2222 1.99797 88.7169 2.66475C92.7227 5.59995 95.3049 10.3384 95.3049 15.7157C95.3049 18.2658 94.7129 20.6768 93.6608 22.8211C92.5187 25.1486 91.8908 27.6943 91.8908 30.2872V42.4775H99.8901V30.2872C99.8901 27.6946 100.518 25.1489 101.66 22.8211C102.712 20.6768 103.304 18.2658 103.304 15.7157C103.304 8.11181 98.1445 1.78036 91.0907 0.0276063Z" fill="#523838"/>
<path d="M54.6407 72.002H45.0038C39.1664 72.002 34.4342 67.2698 34.4342 61.4323V58.3701C34.4342 54.739 37.3777 51.7955 41.0088 51.7955H54.6407V72.002Z" fill="#FFDDCE"/>
<path d="M94.042 72.002H96.9095C102.747 72.002 107.479 67.2698 107.479 61.4323V58.3701C107.479 54.739 104.536 51.7955 100.905 51.7955H94.042V72.002Z" fill="#FFDDCE"/>
<path d="M94.042 72.002H96.9095C102.747 72.002 107.479 67.2698 107.479 61.4323V58.3701C107.479 54.739 104.536 51.7955 100.905 51.7955H94.042V72.002Z" fill="#FFCBBE"/>
<path d="M42.0232 42.4793V57.1096C42.0232 67.2472 46.001 76.9803 53.1014 84.216L55.2944 86.4509C58.5588 89.7774 62.618 91.8416 66.8687 92.6434C66.8687 92.6434 70.4252 92.5962 73.0104 92.1533C75.12 91.792 78.858 91.6765 80.809 90.6962C82.9109 89.6402 84.8783 88.225 86.6192 86.4506L88.8125 84.2154C92.2999 80.6612 95.0341 76.505 96.9136 71.994C98.8605 67.3209 96.8415 65.8285 96.8415 60.6703L99.8904 51.8795V42.479C99.8904 39.0005 97.0706 36.1808 93.5922 36.1808H48.3217C44.8429 36.1811 42.0232 39.0011 42.0232 42.4793Z" fill="#FFDDCE"/>
<path d="M93.5919 36.1811H91.8909V57.1096C91.8909 67.2472 87.9133 76.98 80.813 84.216L78.6196 86.4512C75.3329 89.8008 71.2396 91.8659 66.9569 92.6559C73.8824 93.933 81.304 91.868 86.6189 86.4512L88.8123 84.216C95.9126 76.9803 99.8901 67.2472 99.8901 57.1096V42.4793C99.8901 39.0011 97.0704 36.1811 93.5919 36.1811Z" fill="#FFCBBE"/>
<path d="M70.9567 76.228C68.0049 76.228 65.1736 75.1382 62.985 73.1595C62.0502 72.3143 61.9774 70.8712 62.8226 69.9363C63.6675 69.0012 65.1107 68.9287 66.0458 69.7739C67.3939 70.9929 69.1381 71.6641 70.9567 71.6641C72.7754 71.6641 74.5195 70.9929 75.8676 69.7739C76.8025 68.929 78.2453 69.0015 79.0908 69.9363C79.936 70.8712 79.8633 72.3143 78.9284 73.1595C76.7398 75.1382 73.9085 76.228 70.9567 76.228Z" fill="#DA387D"/>
<path d="M20.0206 55.4366H22.3695C22.7047 55.4366 22.9766 55.1647 22.9766 54.8295V46.4847C22.9766 46.1495 22.7047 45.8776 22.3695 45.8776H20.0206C11.9391 45.8776 5.38796 52.4287 5.38796 60.5102V62.64C5.38796 62.8636 5.20687 63.0447 4.98332 63.0447H0.894463C0.559291 63.0447 0.287354 63.3166 0.287354 63.6518V71.9966C0.287354 72.3318 0.559291 72.6037 0.894463 72.6037H4.98332C5.20687 72.6037 5.38796 72.7848 5.38796 73.0084V89.4618C5.38796 89.797 5.6599 90.0689 5.99507 90.0689H14.3399C14.6751 90.0689 14.947 89.797 14.947 89.4618V73.0084C14.947 72.7848 15.1281 72.6037 15.3517 72.6037H19.4405C19.7757 72.6037 20.0476 72.3318 20.0476 71.9966V63.6518C20.0476 63.3166 19.7757 63.0447 19.4405 63.0447H15.352C15.1284 63.0447 14.9473 62.8636 14.9473 62.64V60.5099C14.9473 57.7083 17.2187 55.4366 20.0206 55.4366Z" fill="#4278C3"/>
<path d="M22.3695 45.8776H20.0207C19.1191 45.8776 18.2379 45.9634 17.3812 46.1195C17.4583 46.2213 17.5061 46.3469 17.5061 46.4847V54.8295C17.5061 55.1647 17.2342 55.4366 16.899 55.4366H14.5502C11.7483 55.4366 9.47686 57.708 9.47686 60.5099V62.64C9.47686 62.8636 9.65825 63.0447 9.8815 63.0447H13.9704C14.3055 63.0447 14.5775 63.3166 14.5775 63.6518V71.9966C14.5775 72.3318 14.3055 72.6037 13.9704 72.6037H9.8815C9.65795 72.6037 9.47686 72.7848 9.47686 73.0084V89.4618C9.47686 89.797 9.20492 90.0689 8.86975 90.0689H14.3403C14.6754 90.0689 14.9474 89.797 14.9474 89.4618V73.0084C14.9474 72.7848 15.1285 72.6037 15.352 72.6037H19.4409C19.776 72.6037 20.048 72.3318 20.048 71.9966V63.6518C20.048 63.3166 19.776 63.0447 19.4409 63.0447H15.352C15.1285 63.0447 14.9474 62.8633 14.9474 62.64V60.5099C14.9474 57.708 17.2188 55.4366 20.0207 55.4366H22.3695C22.7047 55.4366 22.9767 55.1647 22.9767 54.8295V46.4847C22.9767 46.1495 22.7047 45.8776 22.3695 45.8776Z" fill="#335995"/>
<path d="M102.526 94.6675C101.572 103.715 93.9194 110.766 84.6189 110.766H58.5298C49.229 110.766 41.5768 103.715 40.6229 94.6675C20.0854 99.6402 4.83105 118.14 4.83105 140.206V141.678C4.83105 143.089 5.97521 144.233 7.38655 144.233H135.762C137.173 144.233 138.317 143.089 138.317 141.678V140.206C138.318 118.14 123.064 99.6402 102.526 94.6675Z" fill="#DD5790"/>
<path d="M76.1327 141.606C75.4261 141.606 74.7287 141.567 74.0418 141.492C73.7734 141.463 73.6576 141.14 73.8458 140.946C73.8473 140.945 73.8488 140.943 73.8506 140.941C79.8439 134.768 80.9319 125.651 77.1928 118.405C76.9618 117.958 76.3342 117.921 76.0638 118.345C75.3649 119.441 74.5465 120.484 73.6051 121.454C70.389 124.766 66.2832 126.689 62.0326 127.218C61.9067 127.234 61.7957 127.137 61.7889 127.01C61.492 121.411 56.861 116.962 51.1877 116.962C47.0974 116.962 43.5486 119.275 41.7747 122.664C41.6993 122.809 41.5524 122.901 41.3894 122.901H36.3122C35.9895 122.901 35.7785 123.239 35.9224 123.528C36.2627 124.209 36.9618 125.319 38.2155 126.211C38.3509 126.308 38.3325 126.514 38.1817 126.584L36.0335 127.583C35.7399 127.719 35.6932 128.116 35.9465 128.318C36.7059 128.922 38.2856 129.911 40.489 129.902C40.6876 129.901 40.8559 130.042 40.9055 130.235C41.6943 133.3 43.8166 135.829 46.6185 137.167C46.7928 137.25 46.9225 137.403 46.973 137.59C49.2159 145.891 56.7996 152 65.8106 152C73.3266 152 79.8489 147.75 83.1077 141.522C83.3815 140.999 82.8765 140.417 82.3166 140.604C80.3735 141.254 78.2945 141.606 76.1327 141.606Z" fill="#4278C3"/>
<path d="M82.3166 140.604C80.3735 141.254 78.2945 141.606 76.1327 141.606C75.4261 141.606 74.7288 141.567 74.0418 141.492C73.7734 141.463 73.6579 141.139 73.8458 140.946C73.8473 140.944 73.8491 140.943 73.8506 140.941C79.8439 134.768 80.932 125.651 77.1928 118.405C76.9618 117.957 76.3342 117.92 76.0638 118.345C75.365 119.441 74.5465 120.484 73.6051 121.453C72.3475 122.749 70.9525 123.828 69.4675 124.698C70.2525 130.437 68.4884 136.464 64.141 140.941C64.1395 140.943 64.1377 140.945 64.1362 140.946C63.948 141.14 64.0638 141.464 64.3322 141.492C65.0192 141.567 65.7162 141.606 66.4231 141.606C68.5846 141.606 70.6636 141.254 72.607 140.604C73.1669 140.417 73.6719 141 73.3982 141.523C70.8658 146.362 66.3625 150.006 60.9543 151.39C62.507 151.788 64.1339 152.001 65.8106 152.001C73.3266 152.001 79.8489 147.751 83.1077 141.523C83.3815 140.999 82.8765 140.417 82.3166 140.604Z" fill="#335995"/>
<path d="M57.7623 57.8473C59.5716 57.8473 61.0384 56.3806 61.0384 54.5713C61.0384 52.762 59.5716 51.2953 57.7623 51.2953C55.953 51.2953 54.4863 52.762 54.4863 54.5713C54.4863 56.3806 55.953 57.8473 57.7623 57.8473Z" fill="#4278C3"/>
<path d="M84.151 57.8473C85.9603 57.8473 87.427 56.3806 87.427 54.5713C87.427 52.762 85.9603 51.2953 84.151 51.2953C82.3417 51.2953 80.875 52.762 80.875 54.5713C80.875 56.3806 82.3417 57.8473 84.151 57.8473Z" fill="#4278C3"/>
<path d="M102.526 94.6675C102.194 97.8111 101.053 100.712 99.3163 103.162C116.069 109.636 128.167 125.458 129.213 144.233H135.762C137.173 144.233 138.318 143.089 138.318 141.678V140.206C138.318 118.14 123.064 99.6402 102.526 94.6675Z" fill="#DA387D"/>
<path d="M143.651 111.786H125.71C121.258 111.786 117.649 108.176 117.649 103.724V85.7832C117.649 81.331 121.258 77.7216 125.71 77.7216H143.651C148.103 77.7216 151.713 81.331 151.713 85.7832V103.724C151.713 108.176 148.103 111.786 143.651 111.786Z" fill="#BED8FB"/>
<path d="M146.329 78.1791C146.624 79.0172 146.787 79.9179 146.787 80.8569V102.406C146.787 104.865 144.793 106.859 142.333 106.859H120.784C119.845 106.859 118.944 106.697 118.106 106.402C119.211 109.537 122.197 111.785 125.71 111.785H143.651C148.103 111.785 151.713 108.176 151.713 103.724V85.7829C151.713 82.27 149.465 79.2832 146.329 78.1791Z" fill="#9DC6FB"/>
<path d="M134.681 101.083C138.176 101.083 141.01 98.2494 141.01 94.7536C141.01 91.2578 138.176 88.4239 134.681 88.4239C131.185 88.4239 128.351 91.2578 128.351 94.7536C128.351 98.2494 131.185 101.083 134.681 101.083Z" fill="#4278C3"/>
<path d="M136.114 88.5928C136.22 89.0539 136.283 89.5321 136.283 90.0255C136.283 93.5213 133.449 96.3552 129.953 96.3552C129.459 96.3552 128.981 96.2932 128.52 96.1863C129.17 98.9909 131.679 101.083 134.681 101.083C138.177 101.083 141.011 98.2493 141.011 94.7536C141.01 91.7513 138.918 89.243 136.114 88.5928Z" fill="#335995"/>
<path d="M143.867 87.9388C145.285 87.9388 146.434 86.7895 146.434 85.3717C146.434 83.954 145.285 82.8047 143.867 82.8047C142.449 82.8047 141.3 83.954 141.3 85.3717C141.3 86.7895 142.449 87.9388 143.867 87.9388Z" fill="#4278C3"/>
<path d="M47.722 128.691C49.1397 128.691 50.2891 127.542 50.2891 126.124C50.2891 124.706 49.1397 123.557 47.722 123.557C46.3042 123.557 45.1549 124.706 45.1549 126.124C45.1549 127.542 46.3042 128.691 47.722 128.691Z" fill="#335995"/>
</g>
<defs>
<clipPath id="clip0_13_146">
<rect width="152" height="152" fill="white"/>
</clipPath>
</defs>
</svg>
