<svg width="166" height="166" viewBox="0 0 166 166" fill="none" xmlns="http://www.w3.org/2000/svg">
<g clip-path="url(#clip0_13_126)">
<path d="M117.948 35.4445L134.125 31.663C137.954 30.7679 141.784 33.1463 142.679 36.9752L145.92 50.8409C146.815 54.6698 144.437 58.4993 140.608 59.3944L124.431 63.176L117.948 35.4445Z" fill="#696F7C"/>
<path d="M84.6948 101.712L93.9386 99.5509L97.18 113.417L87.9362 115.577L84.6948 101.712Z" fill="#8991A0"/>
<path d="M95.1391 21.2787L93.5184 14.3459C92.9217 11.7933 90.3687 10.2077 87.8161 10.8044L50.8409 19.448C48.2883 20.0447 46.7027 22.5977 47.2994 25.1503L48.9201 32.0832L95.1391 21.2787Z" fill="#696F7C"/>
<path d="M110.265 85.9853L111.886 92.9182C112.483 95.4708 110.897 98.0238 108.345 98.6205L71.3694 107.264C68.8168 107.861 66.2638 106.275 65.6671 103.723L64.0464 96.7898L110.265 85.9853Z" fill="#696F7C"/>
<path d="M99.2208 17.8873L102.612 21.969L117.198 84.3647L115.427 87.2158L36.8551 105.583L33.4637 101.502L19.418 41.417L20.6485 36.2549L99.2208 17.8873Z" fill="#439AF6"/>
<path d="M11.4047 38.4158L20.6485 36.2549L36.8552 105.583L27.6114 107.744C22.5061 108.938 17.4001 105.767 16.2067 100.661L4.32178 49.8205C3.12835 44.7153 6.29948 39.6092 11.4047 38.4158Z" fill="#B9BFCC"/>
<path d="M119.869 22.8094L131.754 73.6503C132.948 78.7555 129.776 83.8615 124.671 85.0549L115.427 87.2158L99.2208 17.8873L108.465 15.7264C113.57 14.533 118.676 17.7041 119.869 22.8094Z" fill="#B9BFCC"/>
<path d="M96.6397 111.106L87.3959 113.267C84.8433 113.863 83.2578 116.416 83.8545 118.969L90.3372 146.7C90.9339 149.253 93.4869 150.838 96.0395 150.242L105.283 148.081C107.836 147.484 109.421 144.931 108.825 142.379L102.342 114.647C101.745 112.095 99.1924 110.509 96.6397 111.106Z" fill="#696F7C"/>
<path d="M51.0162 59.8164C48.1044 52.9904 45.2256 40.2585 62.0955 36.3149C78.9655 32.3713 82.0291 45.0599 82.4451 52.4693L51.0162 59.8164Z" fill="#80624B"/>
<path d="M87.9962 74.1305C93.1014 72.937 98.2074 76.1082 99.4008 81.2134L101.562 90.4572L50.7208 102.342L48.5599 93.0983C47.3665 87.9931 50.5376 82.887 55.6428 81.6936L87.9962 74.1305Z" fill="#D92936"/>
<path d="M81.0634 75.7511C81.0634 75.7511 83.2243 84.9949 73.9805 87.1558C64.7367 89.3167 62.5758 80.0729 62.5758 80.0729L63.0878 75.5906L78.6174 71.9603L81.0634 75.7511Z" fill="#CC966E"/>
<path d="M71.8195 77.912C74.4078 77.307 80.2433 70.7734 80.8214 68.2522C81.0884 66.7393 81.0919 65.1917 80.8317 63.6776C80.7573 63.2459 80.9879 62.8195 81.3898 62.6453C81.9497 62.4696 82.4165 62.0783 82.6872 61.5576C82.9579 61.037 83.0101 60.4301 82.8324 59.8709C82.3154 57.6593 84.3113 54.7287 82.7128 52.7285C82.1311 51.9718 81.1394 51.6578 80.2282 51.942C78.0372 52.6199 76.9447 48.52 75.6527 47.3304C74.7203 46.5012 73.4906 46.0872 72.2466 46.1835C71.0025 46.2799 69.8512 46.8783 69.0576 47.8412C67.1236 50.2668 63.7781 51.0489 60.9692 49.7319C59.831 49.2207 58.5337 49.1947 57.3759 49.6598C56.218 50.1249 55.2993 51.0412 54.8311 52.1978C54.2003 53.8368 55.0392 57.9985 52.7741 58.3598C51.8314 58.5091 51.0816 59.2301 50.8957 60.1662C50.3449 62.6689 53.4378 64.4099 53.9548 66.6215C54.0433 67.2015 54.3592 67.7224 54.8327 68.0691C55.3061 68.4158 55.8981 68.5596 56.4778 68.4689C56.9152 68.4468 57.311 68.7269 57.4356 69.1468C57.8721 70.6194 58.5597 72.0055 59.4682 73.2439C61.1041 75.2475 69.2312 78.5171 71.8195 77.912Z" fill="#E2AC7F"/>
<path d="M117.648 55.0126C116.372 55.311 115.096 54.5182 114.797 53.2419L113.717 48.62C113.418 47.3437 114.211 46.0672 115.487 45.7688C116.764 45.4704 118.04 46.2632 118.339 47.5395L119.419 52.1614C119.717 53.4377 118.925 54.7142 117.648 55.0126Z" fill="#8991A0"/>
<path d="M22.7492 86.9457C21.4729 87.2441 20.1964 86.4513 19.8981 85.175L17.197 73.6202C16.8986 72.3439 17.6914 71.0674 18.9677 70.7691C20.244 70.4707 21.5205 71.2635 21.8189 72.5398L24.52 84.0946C24.8183 85.3709 24.0255 86.6474 22.7492 86.9457Z" fill="#8991A0"/>
<path d="M17.8873 66.1472C16.611 66.4455 15.3345 65.6528 15.0361 64.3764L14.4959 62.0655C14.1976 60.7892 14.9903 59.5127 16.2666 59.2143C17.5429 58.916 18.8195 59.7088 19.1178 60.9851L19.658 63.296C19.9564 64.5723 19.1636 65.8488 17.8873 66.1472Z" fill="#8991A0"/>
</g>
<defs>
<clipPath id="clip0_13_126">
<rect width="137.649" height="137.649" fill="white" transform="translate(0 31.3329) rotate(-13.1575)"/>
</clipPath>
</defs>
</svg>
