<svg width="521" height="130" viewBox="0 0 521 130" fill="none" xmlns="http://www.w3.org/2000/svg">
<path d="M85 31H487C505.778 31 521 46.2223 521 65C521 83.7777 505.778 99 487 99H85V31Z" fill="#D3D3D3"/>
<g clip-path="url(#clip0_68_77)">
<path d="M65 130C100.899 130 130 100.899 130 65C130 29.1015 100.899 0 65 0C29.1015 0 0 29.1015 0 65C0 100.899 29.1015 130 65 130Z" fill="#D3D3D3"/>
<path d="M64.9999 121.099C95.9826 121.099 121.099 95.9826 121.099 64.9999C121.099 34.0173 95.9826 8.90088 64.9999 8.90088C34.0173 8.90088 8.90088 34.0173 8.90088 64.9999C8.90088 95.9826 34.0173 121.099 64.9999 121.099Z" fill="white"/>
<path d="M65 112.113C91.0197 112.113 112.113 91.0197 112.113 65C112.113 38.9803 91.0197 17.8872 65 17.8872C38.9803 17.8872 17.8872 38.9803 17.8872 65C17.8872 91.0197 38.9803 112.113 65 112.113Z" fill="url(#paint0_linear_68_77)"/>
<path d="M81.7862 74.8394C81.3109 74.8394 80.9697 74.9734 80.7625 75.2578C80.5553 75.5259 80.4537 75.9809 80.4537 76.6187V78.1503H83.0903V76.6187C83.0903 75.985 82.9847 75.5259 82.7734 75.2578C82.5744 74.9734 82.2412 74.8394 81.7862 74.8394Z" fill="white"/>
<path d="M71.508 74.7866C71.2927 74.7866 71.0815 74.8313 70.8743 74.9329C70.6671 75.0304 70.464 75.1888 70.2609 75.396V84.8454C70.5006 85.0891 70.7402 85.276 70.9677 85.3816C71.1952 85.4872 71.4349 85.5441 71.6868 85.5441C72.0524 85.5441 72.3206 85.4385 72.4912 85.2232C72.6618 85.0119 72.7512 84.6666 72.7512 84.1791V76.3466C72.7512 75.8347 72.6456 75.4447 72.4343 75.1807C72.219 74.9166 71.9062 74.7866 71.508 74.7866Z" fill="white"/>
<path d="M88.075 63.0338C85.6253 60.5882 64.9878 60.5557 64.9878 60.5557C64.9878 60.5557 44.3543 60.5882 41.9006 63.0338C39.4468 65.4835 39.4387 77.5775 39.4387 77.6466C39.4387 77.74 39.4428 89.8097 41.9006 92.2635C44.3543 94.7091 64.9878 94.7619 64.9878 94.7619C64.9878 94.7619 85.6253 94.7091 88.075 92.2675C90.5409 89.8097 90.5612 77.6507 90.5612 77.6507C90.5612 77.5775 90.5328 65.4835 88.075 63.0338ZM55.1768 70.1594H51.7034V87.7257H48.3397V70.1594H44.8662V67.1735H55.1768V70.1594ZM65 87.7257H62.0222V86.06C61.4656 86.6775 60.8968 87.1447 60.2997 87.4657C59.7025 87.7907 59.1297 87.9491 58.569 87.9491C57.8784 87.9491 57.3665 87.7297 57.009 87.2707C56.6637 86.8157 56.489 86.1454 56.489 85.2394V72.5604H59.4668V84.1913C59.4668 84.5529 59.5318 84.8088 59.6497 84.9713C59.7797 85.1338 59.9828 85.211 60.2631 85.211C60.4825 85.211 60.7628 85.1054 61.0959 84.89C61.4331 84.6747 61.7378 84.4066 62.0222 84.0775V72.5563H65V87.7257ZM75.8184 84.5935C75.8184 85.666 75.5828 86.4866 75.1156 87.0635C74.6525 87.6363 73.974 87.9207 73.0884 87.9207C72.5034 87.9207 71.9834 87.815 71.5325 87.5916C71.0775 87.3722 70.6468 87.035 70.2568 86.5638V87.7257H67.2425V67.1735H70.2568V73.7913C70.6631 73.3282 71.0856 72.9747 71.5365 72.7391C71.9915 72.4954 72.4506 72.3775 72.9097 72.3775C73.8562 72.3775 74.5753 72.6985 75.0709 73.3444C75.5747 73.9904 75.8184 74.9369 75.8184 76.18V84.5935ZM86.1575 80.5107H80.4537V83.3625C80.4537 84.1629 80.5512 84.7154 80.7422 85.0282C80.9453 85.3369 81.2784 85.4872 81.7537 85.4872C82.2493 85.4872 82.5906 85.3572 82.7897 85.0972C82.9847 84.8372 83.0903 84.2604 83.0903 83.3666V82.676H86.1575V83.456C86.1575 85.0119 85.7878 86.1819 85.0362 86.9741C84.2928 87.7582 83.1756 88.1482 81.6928 88.1482C80.3603 88.1482 79.304 87.7338 78.5362 86.901C77.7725 86.0722 77.3825 84.9225 77.3825 83.46V76.6513C77.3825 75.3391 77.809 74.2625 78.65 73.4378C79.4909 72.6091 80.5756 72.1947 81.9162 72.1947C83.2812 72.1947 84.3293 72.5807 85.0647 73.3444C85.7959 74.1082 86.1615 75.2132 86.1615 76.6513L86.1575 80.5107Z" fill="white"/>
<path d="M81.7741 54.1938H78.4144V52.3494C77.801 53.0278 77.1591 53.5519 76.4847 53.9013C75.8144 54.2547 75.1685 54.4335 74.5388 54.4335C73.7547 54.4335 73.1778 54.1856 72.7838 53.686C72.3938 53.1903 72.1947 52.4428 72.1947 51.4475V37.4888H75.5463V50.2938C75.5463 50.6878 75.6235 50.9763 75.7616 51.151C75.8997 51.3297 76.1313 51.4191 76.4441 51.4191C76.6878 51.4191 77.0047 51.3013 77.3785 51.0656C77.7563 50.83 78.1016 50.5335 78.4103 50.1638V37.4888H81.77L81.7741 54.1938Z" fill="white"/>
<path d="M68.1444 38.285C67.2547 37.4766 66.1131 37.0703 64.7278 37.0703C63.2044 37.0703 61.9897 37.4562 61.0878 38.22C60.1819 38.9837 59.731 40.0156 59.731 41.3116V49.9688C59.731 51.3866 60.1738 52.5159 61.0513 53.3569C61.9328 54.1937 63.111 54.6122 64.5775 54.6122C66.105 54.6122 67.2994 54.2059 68.1769 53.3934C69.0422 52.5769 69.4769 51.4597 69.4769 50.0297V41.4009C69.4728 40.1334 69.03 39.0894 68.1444 38.285ZM66.0522 50.2856C66.0522 50.7284 65.9181 51.0819 65.65 51.3419C65.3819 51.5937 65.0203 51.7238 64.5653 51.7238C64.1185 51.7238 63.7772 51.6019 63.5416 51.35C63.306 51.0941 63.18 50.7447 63.18 50.2856V41.1856C63.18 40.82 63.31 40.5234 63.566 40.3C63.8219 40.0766 64.155 39.9669 64.5653 39.9669C65.0041 39.9669 65.3656 40.0766 65.6378 40.3C65.9141 40.5234 66.0481 40.82 66.0481 41.1856V50.2856H66.0522Z" fill="white"/>
<path d="M50.5862 31.5535H46.7797L51.2768 45.2238V54.1938H55.059V44.8013L59.4547 31.5535H55.6115L53.2797 40.6047H53.04L50.5862 31.5535Z" fill="white"/>
</g>
<path d="M138.376 70.52C140.32 71.696 141.856 72.284 142.984 72.284C143.704 72.284 144.064 72.032 144.064 71.528C144.064 71.168 143.44 70.7 142.192 70.124C139.192 68.9 137.692 66.896 137.692 64.112C137.692 62.336 138.34 60.98 139.636 60.044C140.932 59.108 142.48 58.64 144.28 58.64C146.104 58.64 147.64 58.832 148.888 59.216C150.16 59.6 150.796 60.104 150.796 60.728C150.796 61.256 150.532 61.952 150.004 62.816C149.5 63.68 149.152 64.148 148.96 64.22C147.928 63.644 146.812 63.356 145.612 63.356C144.964 63.356 144.64 63.584 144.64 64.04C144.64 64.328 144.76 64.58 145 64.796C145.264 64.988 145.732 65.24 146.404 65.552C147.076 65.84 147.628 66.104 148.06 66.344C148.516 66.584 149.02 66.92 149.572 67.352C150.724 68.264 151.3 69.452 151.3 70.916C151.3 72.836 150.664 74.396 149.392 75.596C148.12 76.772 146.2 77.36 143.632 77.36C141.928 77.36 140.38 77.072 138.988 76.496C137.596 75.92 136.9 75.128 136.9 74.12C136.9 73.448 137.056 72.74 137.368 71.996C137.704 71.252 138.04 70.76 138.376 70.52ZM152.387 59.216C152.387 58.952 153.419 58.82 155.483 58.82C157.547 58.82 158.579 58.952 158.579 59.216V69.728C158.579 70.928 158.963 71.528 159.731 71.528C160.307 71.528 160.955 71.276 161.675 70.772V59.216C161.675 58.976 162.695 58.856 164.735 58.856C166.775 58.856 167.795 58.976 167.795 59.216V71.024H168.731C169.547 71.024 169.955 71.804 169.955 73.364C169.955 74.156 169.787 74.96 169.451 75.776C168.971 76.832 168.323 77.36 167.507 77.36C165.899 77.36 164.711 76.7 163.943 75.38L163.907 75.416C162.443 76.712 160.871 77.36 159.191 77.36C156.863 77.36 155.147 76.784 154.043 75.632C152.939 74.456 152.387 72.524 152.387 69.836V59.216ZM171.069 51.908C171.069 51.62 172.101 51.476 174.165 51.476C176.253 51.476 177.297 51.632 177.297 51.944V58.928C178.329 58.736 179.061 58.64 179.493 58.64C184.533 58.64 187.053 61.532 187.053 67.316C187.053 70.532 186.273 73.016 184.713 74.768C183.177 76.496 180.981 77.36 178.125 77.36C175.293 77.36 172.941 76.724 171.069 75.452V51.908ZM178.485 64.256C178.077 64.256 177.681 64.388 177.297 64.652V71.528C177.633 71.672 177.981 71.744 178.341 71.744C178.725 71.744 179.109 71.6 179.493 71.312C180.165 70.832 180.501 69.716 180.501 67.964C180.501 65.492 179.829 64.256 178.485 64.256ZM189.088 70.52C191.032 71.696 192.568 72.284 193.696 72.284C194.416 72.284 194.776 72.032 194.776 71.528C194.776 71.168 194.152 70.7 192.904 70.124C189.904 68.9 188.404 66.896 188.404 64.112C188.404 62.336 189.052 60.98 190.348 60.044C191.644 59.108 193.192 58.64 194.992 58.64C196.816 58.64 198.352 58.832 199.6 59.216C200.872 59.6 201.508 60.104 201.508 60.728C201.508 61.256 201.244 61.952 200.716 62.816C200.212 63.68 199.864 64.148 199.672 64.22C198.64 63.644 197.524 63.356 196.324 63.356C195.676 63.356 195.352 63.584 195.352 64.04C195.352 64.328 195.472 64.58 195.712 64.796C195.976 64.988 196.444 65.24 197.116 65.552C197.788 65.84 198.34 66.104 198.772 66.344C199.228 66.584 199.732 66.92 200.284 67.352C201.436 68.264 202.012 69.452 202.012 70.916C202.012 72.836 201.376 74.396 200.104 75.596C198.832 76.772 196.912 77.36 194.344 77.36C192.64 77.36 191.092 77.072 189.7 76.496C188.308 75.92 187.612 75.128 187.612 74.12C187.612 73.448 187.768 72.74 188.08 71.996C188.416 71.252 188.752 70.76 189.088 70.52ZM209.183 68.072C209.183 70.424 210.071 71.6 211.847 71.6C212.999 71.6 213.959 71.372 214.727 70.916C215.087 70.916 215.375 71.54 215.591 72.788C215.831 74.012 215.951 74.852 215.951 75.308C215.951 75.74 215.891 76.028 215.771 76.172C214.499 76.964 212.759 77.36 210.551 77.36C208.343 77.36 206.459 76.544 204.899 74.912C203.363 73.256 202.595 71.012 202.595 68.18C202.595 65.324 203.351 63.02 204.863 61.268C206.399 59.516 208.427 58.64 210.947 58.64C213.491 58.64 215.255 59.252 216.239 60.476C216.455 60.74 216.563 61.136 216.563 61.664C216.563 62.168 216.467 62.792 216.275 63.536C215.843 65.072 215.279 65.96 214.583 66.2C214.487 66.224 214.343 66.236 214.151 66.236C213.983 66.236 213.767 66.092 213.503 65.804C212.567 64.868 211.811 64.4 211.235 64.4C210.683 64.4 210.203 64.688 209.795 65.264C209.387 65.84 209.183 66.776 209.183 68.072ZM225.161 76.964C225.161 77.132 224.069 77.216 221.885 77.216C219.701 77.168 218.609 77.072 218.609 76.928V64.976H217.637C217.253 64.976 216.941 64.748 216.701 64.292C216.485 63.812 216.377 63.224 216.377 62.528C216.377 59.936 217.145 58.64 218.681 58.64C219.761 58.64 220.661 58.976 221.381 59.648C222.101 60.296 222.461 61.04 222.461 61.88C222.965 60.896 223.637 60.116 224.477 59.54C225.341 58.94 226.217 58.64 227.105 58.64C228.497 58.64 229.337 59 229.625 59.72C229.697 59.912 229.733 60.2 229.733 60.584C229.733 60.944 229.613 61.604 229.373 62.564C229.157 63.524 228.929 64.22 228.689 64.652C228.449 65.084 228.305 65.3 228.257 65.3C228.209 65.3 227.981 65.216 227.573 65.048C227.189 64.856 226.841 64.76 226.529 64.76C225.617 64.76 225.161 65.48 225.161 66.92V76.964ZM236.878 76.784C236.878 76.976 235.774 77.072 233.566 77.072C231.382 77.072 230.29 76.988 230.29 76.82V59.144C230.29 58.976 231.382 58.892 233.566 58.892C235.774 58.892 236.878 58.964 236.878 59.108V76.784ZM236.878 56.984C236.878 57.152 235.774 57.236 233.566 57.236C231.382 57.236 230.29 57.164 230.29 57.02V51.836C230.29 51.596 231.382 51.476 233.566 51.476C235.774 51.476 236.878 51.548 236.878 51.692V56.984ZM239.054 51.908C239.054 51.62 240.086 51.476 242.15 51.476C244.238 51.476 245.282 51.632 245.282 51.944V58.928C246.314 58.736 247.046 58.64 247.478 58.64C252.518 58.64 255.038 61.532 255.038 67.316C255.038 70.532 254.258 73.016 252.698 74.768C251.162 76.496 248.966 77.36 246.11 77.36C243.278 77.36 240.926 76.724 239.054 75.452V51.908ZM246.47 64.256C246.062 64.256 245.666 64.388 245.282 64.652V71.528C245.618 71.672 245.966 71.744 246.326 71.744C246.71 71.744 247.094 71.6 247.478 71.312C248.15 70.832 248.486 69.716 248.486 67.964C248.486 65.492 247.814 64.256 246.47 64.256ZM269.925 76.028C268.413 76.916 266.469 77.36 264.093 77.36C261.717 77.36 259.713 76.556 258.081 74.948C256.449 73.316 255.633 71.072 255.633 68.216C255.633 65.336 256.413 63.02 257.973 61.268C259.557 59.516 261.549 58.64 263.949 58.64C266.349 58.64 268.197 59.252 269.493 60.476C270.813 61.7 271.473 63.188 271.473 64.94C271.473 68.828 269.241 70.772 264.777 70.772H262.293C262.293 71.492 262.485 71.996 262.869 72.284C263.277 72.548 263.865 72.68 264.633 72.68C266.313 72.68 267.909 72.296 269.421 71.528C269.445 71.504 269.553 71.672 269.745 72.032C270.321 73.064 270.609 73.94 270.609 74.66C270.609 75.356 270.381 75.812 269.925 76.028ZM265.425 65.624C265.425 64.616 264.933 64.112 263.949 64.112C263.493 64.112 263.097 64.256 262.761 64.544C262.449 64.808 262.293 65.204 262.293 65.732V66.848H264.237C265.029 66.848 265.425 66.44 265.425 65.624ZM286.37 76.784C286.37 77.072 285.362 77.216 283.346 77.216C280.946 77.12 279.746 76.964 279.746 76.748V64.004H277.91C277.43 64.004 277.19 63.176 277.19 61.52C277.19 61.088 277.226 60.56 277.298 59.936C277.394 59.312 277.574 59 277.838 59H279.746V55.832C279.746 55.352 280.754 55.112 282.77 55.112C284.81 55.112 285.83 55.304 285.83 55.688V57.992L285.866 59H288.926C289.334 59 289.538 59.84 289.538 61.52C289.538 63.2 289.334 64.04 288.926 64.04H286.37V76.784ZM291.632 74.876C290.144 73.22 289.4 70.928 289.4 68C289.4 65.072 290.144 62.78 291.632 61.124C293.144 59.468 295.172 58.64 297.716 58.64C300.26 58.64 302.276 59.468 303.764 61.124C305.252 62.78 305.996 65.072 305.996 68C305.996 70.928 305.252 73.22 303.764 74.876C302.276 76.532 300.26 77.36 297.716 77.36C295.172 77.36 293.144 76.532 291.632 74.876ZM297.716 64.652C296.372 64.652 295.7 65.756 295.7 67.964C295.7 70.172 296.372 71.276 297.716 71.276C299.084 71.276 299.768 70.172 299.768 67.964C299.768 65.756 299.084 64.652 297.716 64.652ZM313.562 70.52C315.506 71.696 317.042 72.284 318.17 72.284C318.89 72.284 319.25 72.032 319.25 71.528C319.25 71.168 318.626 70.7 317.378 70.124C314.378 68.9 312.878 66.896 312.878 64.112C312.878 62.336 313.526 60.98 314.822 60.044C316.118 59.108 317.666 58.64 319.466 58.64C321.29 58.64 322.826 58.832 324.074 59.216C325.346 59.6 325.982 60.104 325.982 60.728C325.982 61.256 325.718 61.952 325.19 62.816C324.686 63.68 324.338 64.148 324.146 64.22C323.114 63.644 321.998 63.356 320.798 63.356C320.15 63.356 319.826 63.584 319.826 64.04C319.826 64.328 319.946 64.58 320.186 64.796C320.45 64.988 320.918 65.24 321.59 65.552C322.262 65.84 322.814 66.104 323.246 66.344C323.702 66.584 324.206 66.92 324.758 67.352C325.91 68.264 326.486 69.452 326.486 70.916C326.486 72.836 325.85 74.396 324.578 75.596C323.306 76.772 321.386 77.36 318.818 77.36C317.114 77.36 315.566 77.072 314.174 76.496C312.782 75.92 312.086 75.128 312.086 74.12C312.086 73.448 312.242 72.74 312.554 71.996C312.89 71.252 313.226 70.76 313.562 70.52ZM341.361 76.028C339.849 76.916 337.905 77.36 335.529 77.36C333.153 77.36 331.149 76.556 329.517 74.948C327.885 73.316 327.069 71.072 327.069 68.216C327.069 65.336 327.849 63.02 329.409 61.268C330.993 59.516 332.985 58.64 335.385 58.64C337.785 58.64 339.633 59.252 340.929 60.476C342.249 61.7 342.909 63.188 342.909 64.94C342.909 68.828 340.677 70.772 336.213 70.772H333.729C333.729 71.492 333.921 71.996 334.305 72.284C334.713 72.548 335.301 72.68 336.069 72.68C337.749 72.68 339.345 72.296 340.857 71.528C340.881 71.504 340.989 71.672 341.181 72.032C341.757 73.064 342.045 73.94 342.045 74.66C342.045 75.356 341.817 75.812 341.361 76.028ZM336.861 65.624C336.861 64.616 336.369 64.112 335.385 64.112C334.929 64.112 334.533 64.256 334.197 64.544C333.885 64.808 333.729 65.204 333.729 65.732V66.848H335.673C336.465 66.848 336.861 66.44 336.861 65.624ZM357.609 76.028C356.097 76.916 354.153 77.36 351.777 77.36C349.401 77.36 347.397 76.556 345.765 74.948C344.133 73.316 343.317 71.072 343.317 68.216C343.317 65.336 344.097 63.02 345.657 61.268C347.241 59.516 349.233 58.64 351.633 58.64C354.033 58.64 355.881 59.252 357.177 60.476C358.497 61.7 359.157 63.188 359.157 64.94C359.157 68.828 356.925 70.772 352.461 70.772H349.977C349.977 71.492 350.169 71.996 350.553 72.284C350.961 72.548 351.549 72.68 352.317 72.68C353.997 72.68 355.593 72.296 357.105 71.528C357.129 71.504 357.237 71.672 357.429 72.032C358.005 73.064 358.293 73.94 358.293 74.66C358.293 75.356 358.065 75.812 357.609 76.028ZM353.109 65.624C353.109 64.616 352.617 64.112 351.633 64.112C351.177 64.112 350.781 64.256 350.445 64.544C350.133 64.808 349.977 65.204 349.977 65.732V66.848H351.921C352.713 66.848 353.109 66.44 353.109 65.624ZM382.082 76.82C382.082 76.988 381.05 77.072 378.986 77.072C376.946 77.072 375.926 76.964 375.926 76.748V66.272C375.926 65.072 375.53 64.472 374.738 64.472C374.33 64.472 373.79 64.736 373.118 65.264V76.784C373.118 77.024 372.086 77.144 370.022 77.144C367.982 77.144 366.962 77.012 366.962 76.748V64.976H366.062C365.27 64.976 364.874 64.148 364.874 62.492C364.874 61.748 365.018 60.992 365.306 60.224C365.69 59.168 366.314 58.64 367.178 58.64C368.042 58.64 368.87 58.868 369.662 59.324C370.478 59.78 370.97 60.212 371.138 60.62C372.626 59.3 374.27 58.64 376.07 58.64C377.894 58.64 379.358 59.204 380.462 60.332C381.758 59.204 383.318 58.64 385.142 58.64C389.102 58.64 391.082 61.052 391.082 65.876V76.82C391.082 76.988 390.05 77.072 387.986 77.072C385.946 77.072 384.926 76.964 384.926 76.748V66.272C384.926 65.072 384.53 64.472 383.738 64.472C383.306 64.472 382.754 64.736 382.082 65.264V76.82ZM391.625 59.18C391.625 58.916 392.717 58.784 394.901 58.784C397.109 58.784 398.249 58.904 398.321 59.144L400.913 67.64L403.397 59.072C403.493 58.88 404.237 58.784 405.629 58.784C408.821 58.784 410.345 58.94 410.201 59.252L401.741 83.336C401.717 83.48 401.057 83.552 399.761 83.552C398.489 83.552 397.301 83.504 396.197 83.408C395.093 83.336 394.565 83.24 394.613 83.12L397.745 75.56L391.625 59.18ZM415.082 59.108C415.01 58.916 416.126 58.82 418.43 58.82C420.758 58.82 421.922 58.88 421.922 59L424.514 71.24L426.458 59.18C426.53 58.964 427.718 58.856 430.022 58.856C432.35 58.856 433.478 58.952 433.406 59.144L428.33 76.748C428.162 76.988 426.734 77.108 424.046 77.108C421.358 77.108 419.918 76.928 419.726 76.568L415.082 59.108ZM440.552 76.712C440.552 76.928 439.328 77.036 436.88 77.036C434.96 77.012 434 76.916 434 76.748V52.232C434 51.872 435.164 51.692 437.492 51.692C439.532 51.764 440.552 51.884 440.552 52.052V76.712ZM444.096 74.876C442.608 73.22 441.864 70.928 441.864 68C441.864 65.072 442.608 62.78 444.096 61.124C445.608 59.468 447.636 58.64 450.18 58.64C452.724 58.64 454.74 59.468 456.228 61.124C457.716 62.78 458.46 65.072 458.46 68C458.46 70.928 457.716 73.22 456.228 74.876C454.74 76.532 452.724 77.36 450.18 77.36C447.636 77.36 445.608 76.532 444.096 74.876ZM450.18 64.652C448.836 64.652 448.164 65.756 448.164 67.964C448.164 70.172 448.836 71.276 450.18 71.276C451.548 71.276 452.232 70.172 452.232 67.964C452.232 65.756 451.548 64.652 450.18 64.652ZM466.369 77C464.041 77 462.241 76.256 460.969 74.768C459.697 73.256 459.061 71.036 459.061 68.108C459.061 65.156 459.889 62.852 461.545 61.196C463.225 59.516 465.445 58.676 468.205 58.676C470.989 58.676 473.281 59.288 475.081 60.512V78.44C475.081 80.216 474.361 81.572 472.921 82.508C471.481 83.468 469.633 83.948 467.377 83.948C465.121 83.948 463.105 83.66 461.329 83.084C461.089 82.508 460.969 81.992 460.969 81.536C460.969 80 461.221 78.872 461.725 78.152C463.333 78.848 465.049 79.196 466.873 79.196C468.193 79.196 468.853 78.728 468.853 77.792V76.712C467.821 76.904 466.993 77 466.369 77ZM468.025 64.544C466.417 64.544 465.613 65.756 465.613 68.18C465.613 69.692 465.925 70.676 466.549 71.132C466.957 71.444 467.365 71.6 467.773 71.6C468.181 71.6 468.541 71.564 468.853 71.492V64.652C468.565 64.58 468.289 64.544 468.025 64.544ZM477.804 70.52C479.748 71.696 481.284 72.284 482.412 72.284C483.132 72.284 483.492 72.032 483.492 71.528C483.492 71.168 482.868 70.7 481.62 70.124C478.62 68.9 477.12 66.896 477.12 64.112C477.12 62.336 477.768 60.98 479.064 60.044C480.36 59.108 481.908 58.64 483.708 58.64C485.532 58.64 487.068 58.832 488.316 59.216C489.588 59.6 490.224 60.104 490.224 60.728C490.224 61.256 489.96 61.952 489.432 62.816C488.928 63.68 488.58 64.148 488.388 64.22C487.356 63.644 486.24 63.356 485.04 63.356C484.392 63.356 484.068 63.584 484.068 64.04C484.068 64.328 484.188 64.58 484.428 64.796C484.692 64.988 485.16 65.24 485.832 65.552C486.504 65.84 487.056 66.104 487.488 66.344C487.944 66.584 488.448 66.92 489 67.352C490.152 68.264 490.728 69.452 490.728 70.916C490.728 72.836 490.092 74.396 488.82 75.596C487.548 76.772 485.628 77.36 483.06 77.36C481.356 77.36 479.808 77.072 478.416 76.496C477.024 75.92 476.328 75.128 476.328 74.12C476.328 73.448 476.484 72.74 476.796 71.996C477.132 71.252 477.468 70.76 477.804 70.52Z" fill="black"/>
<defs>
<linearGradient id="paint0_linear_68_77" x1="65" y1="112.113" x2="65" y2="17.8872" gradientUnits="userSpaceOnUse">
<stop stop-color="#FF2D76"/>
<stop offset="1" stop-color="#FB0000"/>
</linearGradient>
<clipPath id="clip0_68_77">
<rect width="130" height="130" fill="white"/>
</clipPath>
</defs>
</svg>
