<svg width="130" height="130" viewBox="0 0 130 130" fill="none" xmlns="http://www.w3.org/2000/svg">
<g id="Youtube" clip-path="url(#clip0_68_60)">
<g id="Layer_4_copy">
<g id="Group">
<path id="Vector" d="M65 130C100.899 130 130 100.899 130 65C130 29.1015 100.899 0 65 0C29.1015 0 0 29.1015 0 65C0 100.899 29.1015 130 65 130Z" fill="#D3D3D3"/>
<path id="Vector_2" d="M64.9999 121.099C95.9826 121.099 121.099 95.9826 121.099 64.9999C121.099 34.0173 95.9826 8.90088 64.9999 8.90088C34.0173 8.90088 8.90088 34.0173 8.90088 64.9999C8.90088 95.9826 34.0173 121.099 64.9999 121.099Z" fill="white"/>
<path id="Vector_3" d="M65 112.113C91.0197 112.113 112.113 91.0197 112.113 65C112.113 38.9803 91.0197 17.8872 65 17.8872C38.9803 17.8872 17.8872 38.9803 17.8872 65C17.8872 91.0197 38.9803 112.113 65 112.113Z" fill="url(#paint0_linear_68_60)"/>
</g>
</g>
<g id="Official_copy_2">
<g id="Group_2">
<g id="Group_3">
<path id="Vector_4" d="M81.7862 74.8394C81.3109 74.8394 80.9697 74.9734 80.7625 75.2578C80.5553 75.5259 80.4537 75.9809 80.4537 76.6187V78.1503H83.0903V76.6187C83.0903 75.985 82.9847 75.5259 82.7734 75.2578C82.5744 74.9734 82.2412 74.8394 81.7862 74.8394Z" fill="white"/>
<path id="Vector_5" d="M71.508 74.7866C71.2927 74.7866 71.0815 74.8313 70.8743 74.9329C70.6671 75.0304 70.464 75.1888 70.2609 75.396V84.8454C70.5006 85.0891 70.7402 85.276 70.9677 85.3816C71.1952 85.4872 71.4349 85.5441 71.6868 85.5441C72.0524 85.5441 72.3206 85.4385 72.4912 85.2232C72.6618 85.0119 72.7512 84.6666 72.7512 84.1791V76.3466C72.7512 75.8347 72.6456 75.4447 72.4343 75.1807C72.219 74.9166 71.9062 74.7866 71.508 74.7866Z" fill="white"/>
<path id="Vector_6" d="M88.075 63.0338C85.6253 60.5882 64.9878 60.5557 64.9878 60.5557C64.9878 60.5557 44.3543 60.5882 41.9006 63.0338C39.4468 65.4835 39.4387 77.5775 39.4387 77.6466C39.4387 77.74 39.4428 89.8097 41.9006 92.2635C44.3543 94.7091 64.9878 94.7619 64.9878 94.7619C64.9878 94.7619 85.6253 94.7091 88.075 92.2675C90.5409 89.8097 90.5612 77.6507 90.5612 77.6507C90.5612 77.5775 90.5328 65.4835 88.075 63.0338ZM55.1768 70.1594H51.7034V87.7257H48.3397V70.1594H44.8662V67.1735H55.1768V70.1594ZM65 87.7257H62.0222V86.06C61.4656 86.6775 60.8968 87.1447 60.2997 87.4657C59.7025 87.7907 59.1297 87.9491 58.569 87.9491C57.8784 87.9491 57.3665 87.7297 57.009 87.2707C56.6637 86.8157 56.489 86.1454 56.489 85.2394V72.5604H59.4668V84.1913C59.4668 84.5529 59.5318 84.8088 59.6497 84.9713C59.7797 85.1338 59.9828 85.211 60.2631 85.211C60.4825 85.211 60.7628 85.1054 61.0959 84.89C61.4331 84.6747 61.7378 84.4066 62.0222 84.0775V72.5563H65V87.7257ZM75.8184 84.5935C75.8184 85.666 75.5828 86.4866 75.1156 87.0635C74.6525 87.6363 73.974 87.9207 73.0884 87.9207C72.5034 87.9207 71.9834 87.815 71.5325 87.5916C71.0775 87.3722 70.6468 87.035 70.2568 86.5638V87.7257H67.2425V67.1735H70.2568V73.7913C70.6631 73.3282 71.0856 72.9747 71.5365 72.7391C71.9915 72.4954 72.4506 72.3775 72.9097 72.3775C73.8562 72.3775 74.5753 72.6985 75.0709 73.3444C75.5747 73.9904 75.8184 74.9369 75.8184 76.18V84.5935ZM86.1575 80.5107H80.4537V83.3625C80.4537 84.1629 80.5512 84.7154 80.7422 85.0282C80.9453 85.3369 81.2784 85.4872 81.7537 85.4872C82.2493 85.4872 82.5906 85.3572 82.7897 85.0972C82.9847 84.8372 83.0903 84.2604 83.0903 83.3666V82.676H86.1575V83.456C86.1575 85.0119 85.7878 86.1819 85.0362 86.9741C84.2928 87.7582 83.1756 88.1482 81.6928 88.1482C80.3603 88.1482 79.304 87.7338 78.5362 86.901C77.7725 86.0722 77.3825 84.9225 77.3825 83.46V76.6513C77.3825 75.3391 77.809 74.2625 78.65 73.4378C79.4909 72.6091 80.5756 72.1947 81.9162 72.1947C83.2812 72.1947 84.3293 72.5807 85.0647 73.3444C85.7959 74.1082 86.1615 75.2132 86.1615 76.6513L86.1575 80.5107Z" fill="white"/>
</g>
<path id="Vector_7" d="M81.7741 54.1938H78.4144V52.3494C77.801 53.0278 77.1591 53.5519 76.4847 53.9013C75.8144 54.2547 75.1685 54.4335 74.5388 54.4335C73.7547 54.4335 73.1778 54.1856 72.7838 53.686C72.3938 53.1903 72.1947 52.4428 72.1947 51.4475V37.4888H75.5463V50.2938C75.5463 50.6878 75.6235 50.9763 75.7616 51.151C75.8997 51.3297 76.1313 51.4191 76.4441 51.4191C76.6878 51.4191 77.0047 51.3013 77.3785 51.0656C77.7563 50.83 78.1016 50.5335 78.4103 50.1638V37.4888H81.77L81.7741 54.1938Z" fill="white"/>
<path id="Vector_8" d="M68.1444 38.285C67.2547 37.4766 66.1131 37.0703 64.7278 37.0703C63.2044 37.0703 61.9897 37.4562 61.0878 38.22C60.1819 38.9837 59.731 40.0156 59.731 41.3116V49.9688C59.731 51.3866 60.1738 52.5159 61.0513 53.3569C61.9328 54.1937 63.111 54.6122 64.5775 54.6122C66.105 54.6122 67.2994 54.2059 68.1769 53.3934C69.0422 52.5769 69.4769 51.4597 69.4769 50.0297V41.4009C69.4728 40.1334 69.03 39.0894 68.1444 38.285ZM66.0522 50.2856C66.0522 50.7284 65.9181 51.0819 65.65 51.3419C65.3819 51.5937 65.0203 51.7238 64.5653 51.7238C64.1185 51.7238 63.7772 51.6019 63.5416 51.35C63.306 51.0941 63.18 50.7447 63.18 50.2856V41.1856C63.18 40.82 63.31 40.5234 63.566 40.3C63.8219 40.0766 64.155 39.9669 64.5653 39.9669C65.0041 39.9669 65.3656 40.0766 65.6378 40.3C65.9141 40.5234 66.0481 40.82 66.0481 41.1856V50.2856H66.0522Z" fill="white"/>
<path id="Vector_9" d="M50.5862 31.5535H46.7797L51.2768 45.2238V54.1938H55.059V44.8013L59.4547 31.5535H55.6115L53.2797 40.6047H53.04L50.5862 31.5535Z" fill="white"/>
</g>
</g>
</g>
<defs>
<linearGradient id="paint0_linear_68_60" x1="65" y1="112.113" x2="65" y2="17.8872" gradientUnits="userSpaceOnUse">
<stop stop-color="#FF2D76"/>
<stop offset="1" stop-color="#FB0000"/>
</linearGradient>
<clipPath id="clip0_68_60">
<rect width="130" height="130" fill="white"/>
</clipPath>
</defs>
</svg>
